<svg width="217" height="187" viewBox="0 0 217 187" fill="none" xmlns="http://www.w3.org/2000/svg">
<path d="M146.423 48.9015L145.424 48.8725L146.423 48.9015ZM77.2637 13.0756L76.5379 12.3878L77.2637 13.0756ZM215.462 77.195C216.011 77.2548 216.407 77.7485 216.347 78.2975L215.372 87.2444C215.312 87.7935 214.818 88.19 214.269 88.1301C213.72 88.0703 213.324 87.5766 213.384 87.0276L214.251 79.0748L206.298 78.2074C205.749 78.1476 205.352 77.654 205.412 77.1049C205.472 76.5559 205.966 76.1594 206.515 76.2192L215.462 77.195ZM-5.15875e-05 185.35L0.0707194 184.353C2.92468 184.555 6.01162 184.623 9.29073 184.542L9.31541 185.542L9.34008 186.542C6.0032 186.624 2.85228 186.555 -0.0708226 186.348L-5.15875e-05 185.35ZM27.8594 183.719L27.6953 182.733C33.4956 181.768 39.5691 180.404 45.7702 178.593L46.0505 179.553L46.3308 180.513C40.0523 182.346 33.9012 183.728 28.0235 184.706L27.8594 183.719ZM63.6182 173.289L63.2274 172.368C68.794 170.005 74.3536 167.261 79.8067 164.103L80.3078 164.969L80.8089 165.834C75.2807 169.035 69.6471 171.816 64.0089 174.209L63.6182 173.289ZM95.8001 154.584L95.1887 153.793C99.9935 150.08 104.623 145.982 108.996 141.471L109.714 142.167L110.432 142.864C105.989 147.446 101.288 151.607 96.4116 155.376L95.8001 154.584ZM121.656 127.863L120.842 127.281C124.34 122.387 127.559 117.123 130.435 111.468L131.326 111.921L132.217 112.375C129.295 118.12 126.025 123.47 122.469 128.444L121.656 127.863ZM138.558 94.7187L137.612 94.3974C139.524 88.7614 141.127 82.8068 142.378 76.5194L143.359 76.7145L144.339 76.9097C143.072 83.281 141.446 89.32 139.505 95.04L138.558 94.7187ZM145.913 58.2337L144.916 58.1529C145.161 55.1262 145.332 52.0332 145.424 48.8725L146.423 48.9015L147.423 48.9306C147.33 52.1252 147.158 55.2528 146.909 58.3146L145.913 58.2337ZM146.423 48.9015L145.424 48.8725C145.508 45.9564 145.396 43.1749 145.106 40.5289L146.1 40.4199L147.094 40.311C147.394 43.0522 147.51 45.9261 147.423 48.9306L146.423 48.9015ZM141.508 24.1526L140.611 24.5931C138.038 19.3483 134.571 15.0091 130.538 11.596L131.184 10.8327L131.83 10.0693C136.072 13.6594 139.711 18.2179 142.406 23.7122L141.508 24.1526ZM116.318 2.88391L116.04 3.84467C110.699 2.30239 105.092 1.89881 99.6447 2.6661L99.5052 1.67587L99.3658 0.685641C105.095 -0.121394 110.986 0.303658 116.595 1.92314L116.318 2.88391ZM83.7493 7.61769L84.3022 8.45093C82.051 9.94478 79.9314 11.7142 77.9896 13.7634L77.2637 13.0756L76.5379 12.3878C78.5845 10.2278 80.8204 8.36112 83.1964 6.78446L83.7493 7.61769ZM77.2637 13.0756L77.9896 13.7634C75.4215 16.4738 73.3549 19.3514 71.7546 22.3479L70.8725 21.8769L69.9904 21.4058C71.6779 18.246 73.851 15.2234 76.5379 12.3878L77.2637 13.0756ZM66.5498 42.9482L67.5471 42.8748C68.0463 49.6524 70.2056 56.5501 73.7843 63.1579L72.9049 63.6341L72.0256 64.1103C68.332 57.2901 66.0753 50.1201 65.5525 43.0217L66.5498 42.9482ZM86.1617 80.8407L86.8553 80.1205C91.8462 84.9271 97.6671 89.2496 104.16 92.8416L103.676 93.7166L103.192 94.5917C96.5482 90.9163 90.5861 86.4901 85.468 81.561L86.1617 80.8407ZM123.86 101.794L124.115 100.827C130.845 102.595 137.982 103.611 145.419 103.707L145.407 104.706L145.394 105.706C137.791 105.609 130.491 104.57 123.606 102.762L123.86 101.794ZM167.044 102.429L166.827 101.453C173.505 99.9642 180.328 97.7037 187.23 94.5675L187.644 95.4779L188.057 96.3884C181.032 99.5805 174.078 101.886 167.262 103.405L167.044 102.429ZM206.602 84.7024L206.036 83.878C208.931 81.8907 211.83 79.7371 214.727 77.4095L215.353 78.1891L215.98 78.9687C213.044 81.3269 210.105 83.5106 207.168 85.5268L206.602 84.7024Z" fill="url(#paint0_linear_330_2951)"/>
<defs>
<linearGradient id="paint0_linear_330_2951" x1="21.2658" y1="-260.138" x2="211.133" y2="192.146" gradientUnits="userSpaceOnUse">
<stop stop-color="white"/>
<stop offset="0.0905828" stop-color="#FFEA01"/>
<stop offset="0.247447" stop-color="#E4CA56"/>
<stop offset="0.344909" stop-color="#CEFD67"/>
<stop offset="0.430052" stop-color="#DDB149"/>
<stop offset="0.529616" stop-color="#5A4BC9"/>
<stop offset="0.716747" stop-color="#FF2414"/>
<stop offset="0.844023" stop-color="#FF8941"/>
<stop offset="1" stop-color="#FF6201"/>
</linearGradient>
</defs>
</svg>
