<svg width="139" height="152" viewBox="0 0 139 152" fill="none" xmlns="http://www.w3.org/2000/svg">
<path d="M24.1673 74.1113L23.802 73.1805L24.1673 74.1113ZM16.0439 131.688L16.5503 130.825L16.0439 131.688ZM17.853 2.13251C17.8001 1.58276 18.2029 1.09415 18.7527 1.04116L27.7112 0.177626C28.2609 0.124636 28.7494 0.527335 28.8023 1.07708C28.8552 1.62682 28.4524 2.11544 27.9027 2.16843L19.9396 2.93601L20.7056 10.8992C20.7584 11.449 20.3557 11.9376 19.8059 11.9906C19.2562 12.0436 18.7677 11.6409 18.7148 11.0911L17.853 2.13251ZM139.084 151.57L138.103 151.766C137.538 148.931 136.691 145.769 135.566 142.379L136.515 142.064L137.465 141.749C138.611 145.204 139.481 148.447 140.065 151.375L139.084 151.57ZM128.76 123.949L127.874 124.411C124.986 118.875 121.554 113.221 117.598 107.748L118.408 107.162L119.219 106.577C123.235 112.133 126.718 117.87 129.647 123.486L128.76 123.949ZM105.615 92.1676L104.912 92.8798C100.284 88.3164 95.217 84.165 89.7306 80.6663L90.2684 79.8231L90.8061 78.9799C96.4257 82.5635 101.601 86.8065 106.317 91.4554L105.615 92.1676ZM72.4677 71.4574L72.1697 72.412C66.1582 70.5363 59.7763 69.4698 53.0363 69.4233L53.0434 68.4233L53.0505 67.4233C59.9957 67.4713 66.5734 68.5706 72.7658 70.5027L72.4677 71.4574ZM33.5652 71.0044L33.8237 71.9703C30.7871 72.7836 27.6898 73.8025 24.5327 75.0421L24.1673 74.1113L23.802 73.1805C27.0265 71.9144 30.1951 70.8718 33.3067 70.0384L33.5652 71.0044ZM24.1673 74.1113L24.5327 75.0421C21.5986 76.1942 18.9892 77.5686 16.687 79.1171L16.129 78.2874L15.571 77.4577C17.9998 75.8239 20.7393 74.3831 23.802 73.1805L24.1673 74.1113ZM4.42443 91.8357L5.33356 92.252C2.81955 97.7406 2.07384 103.719 2.85321 109.41L1.86246 109.546L0.871728 109.681C0.0439753 103.638 0.833823 97.2735 3.51529 91.4194L4.42443 91.8357ZM9.12124 125.894L9.87804 125.24C11.7768 127.438 14.0129 129.335 16.5503 130.825L16.0439 131.688L15.5375 132.55C12.8023 130.944 10.399 128.903 8.36442 126.548L9.12124 125.894ZM16.0439 131.688L16.5503 130.825C18.7824 132.136 21.8811 132.969 25.5736 133.252L25.4968 134.25L25.42 135.247C21.5461 134.949 18.1199 134.066 15.5375 132.55L16.0439 131.688ZM45.0198 131.649L44.7191 130.696C50.7202 128.802 56.7398 125.896 62.0098 121.957L62.6084 122.758L63.207 123.559C57.735 127.649 51.5082 130.651 45.3205 132.603L45.0198 131.649ZM75.466 107.933L74.5775 107.474C77.3309 102.142 78.9043 95.9521 78.7396 88.8699L79.7394 88.8465L80.7391 88.823C80.9115 96.2419 79.2608 102.763 76.3545 108.392L75.466 107.933ZM75.5854 69.6064L74.6538 69.9701C72.5503 64.5796 69.5722 58.8181 65.5736 52.6805L66.4115 52.1345L67.2494 51.5885C71.3118 57.8241 74.3568 63.7072 76.5169 69.2427L75.5854 69.6064ZM54.5113 36.3501L53.75 36.9987C49.8099 32.3728 45.337 27.5707 40.2857 22.5909L40.9878 21.8787L41.6898 21.1664C46.7784 26.1829 51.2913 31.0274 55.2726 35.7016L54.5113 36.3501ZM26.5068 8.51472L25.8509 9.26964C23.4053 7.14466 20.8601 4.99089 18.2123 2.80826L18.8484 2.03656L19.4846 1.26486C22.1452 3.4581 24.7037 5.62304 27.1628 7.75979L26.5068 8.51472Z" fill="url(#paint0_linear_330_2952)"/>
<defs>
<linearGradient id="paint0_linear_330_2952" x1="-146.105" y1="233.281" x2="144.386" y2="45.4822" gradientUnits="userSpaceOnUse">
<stop stop-color="white"/>
<stop offset="0.0905828" stop-color="#FFEA01"/>
<stop offset="0.247447" stop-color="#E4CA56"/>
<stop offset="0.344909" stop-color="#CEFD67"/>
<stop offset="0.430052" stop-color="#DDB149"/>
<stop offset="0.529616" stop-color="#5A4BC9"/>
<stop offset="0.716747" stop-color="#FF2414"/>
<stop offset="0.844023" stop-color="#FF8941"/>
<stop offset="1" stop-color="#FF6201"/>
</linearGradient>
</defs>
</svg>
