<svg width="202" height="189" viewBox="0 0 202 189" fill="none" xmlns="http://www.w3.org/2000/svg">
<g filter="url(#filter0_d_1_1282)">
<path d="M160 71.5L159.82 72.4837L159.82 72.4837L160 71.5ZM179.5 142.5L180.021 143.353L179.5 142.5ZM147.495 2.10112C147.551 1.55166 147.151 1.06097 146.601 1.00513L137.647 0.0950602C137.098 0.039214 136.607 0.439362 136.551 0.988816C136.495 1.53827 136.896 2.02896 137.445 2.08481L145.404 2.89376L144.595 10.8528C144.539 11.4022 144.939 11.8929 145.489 11.9487C146.038 12.0046 146.529 11.6044 146.585 11.055L147.495 2.10112ZM5.99034 180.138C6.31387 177.828 6.76427 175.376 7.34497 172.809L5.39426 172.367C4.80231 174.984 4.34151 177.491 4.00966 179.861L5.99034 180.138ZM11.6058 158.425C13.2277 153.949 15.1747 149.313 17.4574 144.614L15.6585 143.74C13.3453 148.502 11.3712 153.202 9.7255 157.744L11.6058 158.425ZM24.6871 131.452C27.256 127.284 30.0926 123.139 33.2039 119.084L31.6172 117.867C28.4627 121.978 25.5876 126.179 22.9844 130.403L24.6871 131.452ZM42.9632 107.682C46.3684 104.117 50.0185 100.687 53.9193 97.4472L52.6414 95.9087C48.6788 99.2 44.9726 102.682 41.5169 106.3L42.9632 107.682ZM66.0099 88.587C70.1477 85.9313 74.513 83.4904 79.1108 81.3096L78.2537 79.5026C73.5766 81.721 69.1368 84.2036 64.9296 86.9039L66.0099 88.587ZM93.0368 75.7761C97.6734 74.272 102.511 73.0236 107.554 72.0662L107.18 70.1013C102.055 71.0745 97.1358 72.3438 92.4197 73.8737L93.0368 75.7761ZM122.412 70.1608C127.241 69.8272 132.235 69.7498 137.398 69.9535L137.476 67.9551C132.243 67.7485 127.176 67.8269 122.274 68.1655L122.412 70.1608ZM152.365 71.2887C154.816 71.6253 157.301 72.0229 159.82 72.4837L160.18 70.5163C157.632 70.0503 155.118 69.648 152.637 69.3073L152.365 71.2887ZM159.82 72.4837C162.531 72.9794 165.078 73.6309 167.464 74.4194L168.092 72.5204C165.614 71.7018 162.977 71.0279 160.18 70.5163L159.82 72.4837ZM181.296 81.7055C185.632 85.1129 188.957 89.1667 191.314 93.5612L193.077 92.6157C190.589 87.9799 187.087 83.712 182.532 80.1329L181.296 81.7055ZM195.619 108.47C195.992 113.705 195.261 118.962 193.482 123.839L195.361 124.525C197.238 119.379 198.007 113.841 197.614 108.328L195.619 108.47ZM185.124 136.864C183.302 138.649 181.252 140.257 178.979 141.647L180.021 143.353C182.425 141.884 184.595 140.182 186.524 138.293L185.124 136.864ZM178.979 141.647C176.484 143.171 173.951 144.354 171.402 145.22L172.046 147.114C174.739 146.199 177.405 144.952 180.021 143.353L178.979 141.647ZM154.946 146.648C149.587 145.829 144.322 143.808 139.357 140.771L138.314 142.478C143.477 145.635 148.991 147.761 154.644 148.625L154.946 146.648ZM126.522 129.894C122.902 125.825 119.655 121.149 116.913 115.995L115.147 116.934C117.961 122.223 121.298 127.031 125.028 131.223L126.522 129.894ZM110.626 100.279C109.129 94.9645 108.139 89.3673 107.748 83.5814L105.752 83.7161C106.153 89.6422 107.167 95.3758 108.701 100.821L110.626 100.279ZM108.339 66.6601C109.087 61.2223 110.391 55.703 112.317 50.1694L110.429 49.5117C108.458 55.1713 107.124 60.8196 106.358 66.3874L108.339 66.6601ZM119.359 34.7602C122.05 30.0509 125.246 25.3752 128.991 20.7759L127.44 19.5132C123.628 24.1953 120.37 28.9611 117.622 33.7677L119.359 34.7602ZM140.672 8.38147C142.717 6.49053 144.869 4.62058 147.132 2.77498L145.868 1.22502C143.573 3.09631 141.39 4.99346 139.314 6.91315L140.672 8.38147Z" fill="url(#paint0_linear_1_1282)"/>
</g>
<defs>
<filter id="filter0_d_1_1282" x="0.00976562" y="0.0898438" width="201.704" height="188.049" filterUnits="userSpaceOnUse" color-interpolation-filters="sRGB">
<feFlood flood-opacity="0" result="BackgroundImageFix"/>
<feColorMatrix in="SourceAlpha" type="matrix" values="0 0 0 0 0 0 0 0 0 0 0 0 0 0 0 0 0 0 127 0" result="hardAlpha"/>
<feOffset dy="4"/>
<feGaussianBlur stdDeviation="2"/>
<feComposite in2="hardAlpha" operator="out"/>
<feColorMatrix type="matrix" values="0 0 0 0 0 0 0 0 0 0 0 0 0 0 0 0 0 0 0.25 0"/>
<feBlend mode="normal" in2="BackgroundImageFix" result="effect1_dropShadow_1_1282"/>
<feBlend mode="normal" in="SourceGraphic" in2="effect1_dropShadow_1_1282" result="shape"/>
</filter>
<linearGradient id="paint0_linear_1_1282" x1="421.074" y1="248.094" x2="40.3078" y2="-16.5461" gradientUnits="userSpaceOnUse">
<stop stop-color="white"/>
<stop offset="0.0905828" stop-color="#FFEA01"/>
<stop offset="0.247447" stop-color="#E4CA56"/>
<stop offset="0.344909" stop-color="#CEFD67"/>
<stop offset="0.430052" stop-color="#DDB149"/>
<stop offset="0.529616" stop-color="#5A4BC9"/>
<stop offset="0.716747" stop-color="#FF2414"/>
<stop offset="0.844023" stop-color="#FF8941"/>
<stop offset="1" stop-color="#FF6201"/>
</linearGradient>
</defs>
</svg>
