<svg width="194" height="181" viewBox="0 0 194 181" fill="none" xmlns="http://www.w3.org/2000/svg">
<path d="M156 71.5L155.82 72.4837L156 71.5ZM175.5 142.5L176.021 143.353L175.5 142.5ZM143.495 2.10112C143.551 1.55166 143.151 1.06097 142.601 1.00513L133.647 0.0950601C133.098 0.039214 132.607 0.439362 132.551 0.988816C132.495 1.53827 132.896 2.02896 133.445 2.08481L141.404 2.89376L140.595 10.8528C140.539 11.4022 140.939 11.8929 141.489 11.9487C142.038 12.0046 142.529 11.6044 142.585 11.055L143.495 2.10112ZM1.99034 180.138C2.31387 177.828 2.76427 175.376 3.34497 172.809L1.39426 172.367C0.802308 174.984 0.341508 177.491 0.00965828 179.861L1.99034 180.138ZM7.60584 158.425C9.22773 153.949 11.1747 149.313 13.4574 144.614L11.6585 143.74C9.34533 148.502 7.37117 153.202 5.7255 157.744L7.60584 158.425ZM20.6871 131.452C23.256 127.284 26.0926 123.139 29.2039 119.084L27.6172 117.867C24.4627 121.978 21.5876 126.179 18.9844 130.403L20.6871 131.452ZM38.9632 107.682C42.3684 104.117 46.0185 100.687 49.9193 97.4472L48.6414 95.9087C44.6788 99.2 40.9726 102.682 37.5169 106.3L38.9632 107.682ZM62.0099 88.587C66.1477 85.9313 70.513 83.4904 75.1108 81.3096L74.2537 79.5026C69.5766 81.721 65.1368 84.2036 60.9296 86.9039L62.0099 88.587ZM89.0368 75.7761C93.6734 74.272 98.5109 73.0236 103.554 72.0662L103.18 70.1013C98.0549 71.0745 93.1358 72.3438 88.4197 73.8737L89.0368 75.7761ZM118.412 70.1608C123.241 69.8272 128.235 69.7498 133.398 69.9535L133.476 67.9551C128.243 67.7485 123.176 67.8269 118.274 68.1655L118.412 70.1608ZM148.365 71.2887C150.816 71.6253 153.301 72.0229 155.82 72.4837L156.18 70.5163C153.632 70.0503 151.118 69.648 148.637 69.3073L148.365 71.2887ZM155.82 72.4837C158.531 72.9794 161.078 73.6309 163.464 74.4194L164.092 72.5204C161.614 71.7018 158.977 71.0279 156.18 70.5163L155.82 72.4837ZM177.296 81.7055C181.632 85.1129 184.957 89.1667 187.314 93.5612L189.077 92.6157C186.589 87.9799 183.087 83.712 178.532 80.1329L177.296 81.7055ZM191.619 108.47C191.992 113.705 191.261 118.962 189.482 123.839L191.361 124.525C193.238 119.379 194.007 113.841 193.614 108.328L191.619 108.47ZM181.124 136.864C179.302 138.649 177.252 140.257 174.979 141.647L176.021 143.353C178.425 141.884 180.595 140.182 182.524 138.293L181.124 136.864ZM174.979 141.647C172.484 143.171 169.951 144.354 167.402 145.22L168.046 147.114C170.739 146.199 173.405 144.952 176.021 143.353L174.979 141.647ZM150.946 146.648C145.587 145.829 140.322 143.808 135.357 140.771L134.314 142.478C139.477 145.635 144.991 147.761 150.644 148.625L150.946 146.648ZM122.522 129.894C118.902 125.825 115.655 121.149 112.913 115.995L111.147 116.934C113.961 122.223 117.298 127.031 121.028 131.223L122.522 129.894ZM106.626 100.279C105.129 94.9645 104.139 89.3673 103.748 83.5814L101.752 83.7161C102.153 89.6422 103.167 95.3758 104.701 100.821L106.626 100.279ZM104.339 66.6601C105.087 61.2223 106.391 55.703 108.317 50.1694L106.429 49.5117C104.458 55.1713 103.124 60.8196 102.358 66.3874L104.339 66.6601ZM115.359 34.7602C118.05 30.0509 121.246 25.3752 124.991 20.7759L123.44 19.5132C119.628 24.1953 116.37 28.9611 113.622 33.7677L115.359 34.7602ZM136.672 8.38147C138.717 6.49053 140.869 4.62058 143.132 2.77498L141.868 1.22502C139.573 3.09631 137.39 4.99346 135.314 6.91315L136.672 8.38147Z" fill="url(#paint0_linear_276_2373)"/>
<defs>
<linearGradient id="paint0_linear_276_2373" x1="417.074" y1="248.094" x2="36.3078" y2="-16.5461" gradientUnits="userSpaceOnUse">
<stop stop-color="white"/>
<stop offset="0.0905828" stop-color="#FFEA01"/>
<stop offset="0.247447" stop-color="#E4CA56"/>
<stop offset="0.344909" stop-color="#CEFD67"/>
<stop offset="0.430052" stop-color="#DDB149"/>
<stop offset="0.529616" stop-color="#5A4BC9"/>
<stop offset="0.716747" stop-color="#FF2414"/>
<stop offset="0.844023" stop-color="#FF8941"/>
<stop offset="1" stop-color="#FF6201"/>
</linearGradient>
</defs>
</svg>
