<svg width="107" height="127" viewBox="0 0 107 127" fill="none" xmlns="http://www.w3.org/2000/svg">
<path d="M20.5502 58.7192L20.2543 57.764L20.5502 58.7192ZM10.8687 103.312L11.4373 102.49L10.8687 103.312ZM19.5505 2.02212C19.5382 1.46997 19.976 1.01246 20.5281 1.00024L29.5259 0.801206C30.0781 0.788992 30.5356 1.2267 30.5478 1.77885C30.56 2.331 30.1223 2.7885 29.5701 2.80072L21.5721 2.97764L21.749 10.9757C21.7612 11.5278 21.3235 11.9853 20.7714 11.9976C20.2192 12.0098 19.7617 11.5721 19.7495 11.0199L19.5505 2.02212ZM105.008 126.123C104.817 124.58 104.53 122.906 104.147 121.127L106.103 120.707C106.496 122.536 106.793 124.268 106.992 125.877L105.008 126.123ZM101.374 111.33C100.316 108.268 99.0446 105.077 97.5584 101.843L99.3757 101.008C100.889 104.301 102.185 107.553 103.264 110.677L101.374 111.33ZM92.8472 92.7627C91.1583 89.8605 89.2982 86.9894 87.2671 84.21L88.8819 83.03C90.9567 85.8691 92.8544 88.7988 94.5758 91.7567L92.8472 92.7627ZM80.7823 76.3375C78.4684 73.8542 75.9928 71.5173 73.3556 69.3824L74.614 67.8279C77.33 70.0266 79.8735 72.4284 82.2455 74.9741L80.7823 76.3375ZM64.9835 63.653C62.0643 61.999 58.988 60.5957 55.7543 59.4959L56.3983 57.6024C59.7574 58.7448 62.9477 60.2009 65.9694 61.9129L64.9835 63.653ZM45.9202 57.2035C42.6847 56.7807 39.313 56.6538 35.8043 56.8652L35.684 54.8688C39.3183 54.6498 42.817 54.781 46.1794 55.2204L45.9202 57.2035ZM25.7571 58.3442C24.1459 58.7171 22.5089 59.1594 20.8461 59.6745L20.2543 57.764C21.9624 57.2349 23.6463 56.7799 25.306 56.3957L25.7571 58.3442ZM20.8461 59.6745C19.3125 60.1495 17.8819 60.706 16.5513 61.3331L15.6987 59.524C17.1167 58.8557 18.6346 58.2657 20.2543 57.764L20.8461 59.6745ZM9.059 66.5052C6.80084 68.7411 5.11306 71.2825 3.95491 73.9737L2.11779 73.1832C3.37506 70.2616 5.20694 67.5047 7.65181 65.084L9.059 66.5052ZM2.01073 82.8205C1.92028 85.8909 2.40265 88.9433 3.4083 91.7781L1.5234 92.4468C0.434546 89.3775 -0.0861125 86.0783 0.0116 82.7616L2.01073 82.8205ZM8.03293 99.5254C9.05009 100.629 10.187 101.625 11.4373 102.49L10.3001 104.135C8.92454 103.184 7.67638 102.09 6.56221 100.881L8.03293 99.5254ZM11.4373 102.49C12.6475 103.326 14.2495 103.998 16.1713 104.466L15.6977 106.409C13.6118 105.901 11.7654 105.148 10.3001 104.135L11.4373 102.49ZM26.8881 105.044C30.3071 104.729 33.9278 103.99 37.4975 102.799L38.1305 104.696C34.4145 105.936 30.6429 106.707 27.0717 107.036L26.8881 105.044ZM47.2867 98.1749C50.3168 96.2401 53.0824 93.8949 55.387 91.121L56.9253 92.3991C54.4724 95.3515 51.5443 97.8292 48.3631 99.8605L47.2867 98.1749ZM60.6115 81.8327C61.685 78.6702 62.2711 75.1499 62.228 71.2506L64.2278 71.2285C64.2734 75.3451 63.6543 79.0909 62.5054 82.4755L60.6115 81.8327ZM60.6932 60.5743C59.8417 57.3575 58.6152 53.9412 56.9621 50.3196L58.7815 49.4891C60.4766 53.2026 61.7432 56.7254 62.6266 60.0626L60.6932 60.5743ZM51.7898 40.6353C50.0104 37.7077 47.9765 34.6674 45.668 31.5123L47.2821 30.3313C49.6214 33.5286 51.6875 36.6162 53.4989 39.5965L51.7898 40.6353ZM38.8851 22.8706C36.6416 20.1881 34.2122 17.4316 31.5867 14.6003L33.0533 13.2404C35.7005 16.0952 38.1526 18.8772 40.4193 21.5875L38.8851 22.8706ZM23.9064 6.66552C22.5968 5.36574 21.2479 4.05145 19.8589 2.72257L21.2415 1.27743C22.6391 2.61454 23.9968 3.93737 25.3153 5.246L23.9064 6.66552Z" fill="url(#paint0_linear_1_1283)"/>
<defs>
<linearGradient id="paint0_linear_1_1283" x1="-121.88" y1="173.436" x2="116.287" y2="43.2955" gradientUnits="userSpaceOnUse">
<stop stop-color="white"/>
<stop offset="0.0905828" stop-color="#FFEA01"/>
<stop offset="0.247447" stop-color="#E4CA56"/>
<stop offset="0.344909" stop-color="#CEFD67"/>
<stop offset="0.430052" stop-color="#DDB149"/>
<stop offset="0.529616" stop-color="#5A4BC9"/>
<stop offset="0.716747" stop-color="#FF2414"/>
<stop offset="0.844023" stop-color="#FF8941"/>
<stop offset="1" stop-color="#FF6201"/>
</linearGradient>
</defs>
</svg>
