<svg width="89" height="50" viewBox="0 0 89 50" fill="none" xmlns="http://www.w3.org/2000/svg">
<path d="M77.648 26.5296C76.6819 28.2562 75.4101 31.6337 73.068 31.8125C72.4457 31.8967 71.8137 31.7549 71.2888 31.4136C70.9732 31.1524 70.7333 30.8129 70.5938 30.4299C69.7668 28.3662 71.3444 26.8873 72.5398 25.4152L80.0944 16.1288C80.6442 15.3686 81.3268 14.7117 82.1099 14.189C82.5019 13.9286 82.9566 13.7755 83.4278 13.7453C83.899 13.7151 84.3698 13.8089 84.7925 14.017C85.4771 14.5008 85.9689 15.2066 86.1825 16.0119C87.0797 18.7863 87.6214 21.6612 87.7949 24.5691C87.9617 26.2751 88.2814 27.9604 88.3857 29.6732C88.4621 30.9596 88.6637 33.1677 87.5169 34.0963C87.2656 34.2796 86.9746 34.4024 86.6669 34.4549C86.3593 34.5075 86.0435 34.4883 85.7447 34.399C82.8396 33.6217 83.2705 29.9346 83.3747 27.6508C83.3122 29.0266 82.5616 30.3061 81.9848 31.5374C80.3098 35.2726 78.76 39.0009 76.3484 42.3578C74.4927 44.9373 72.0741 47.5306 68.9189 48.4868C64.9991 49.67 60.155 47.7645 58.626 43.8986C57.9443 41.9423 57.7255 39.8572 57.9866 37.804C58.4522 32.5417 59.7588 27.4307 60.5372 22.2234C61.2322 17.4083 61.6631 3.25164 52.8923 6.51221C51.5838 7.02159 50.3994 7.79999 49.4173 8.79598C48.9934 9.20183 45.6574 12.3798 45.706 12.4693L43.1624 7.3927C45.3516 5.56981 47.4713 3.61622 49.9803 2.24046C52.4892 0.864693 55.4916 0.121779 58.2368 0.912844C59.5224 1.33845 60.7072 2.0183 61.7191 2.9111C62.731 3.8039 63.549 4.891 64.1234 6.10636C69.4888 16.7066 62.7334 28.9372 63.0739 39.9571C63.1226 41.4566 63.7134 43.6647 65.5551 43.7817C67.1397 43.8849 68.7104 42.5779 69.7737 41.5805C71.8503 39.5057 73.5396 37.0837 74.7638 34.4265C75.419 33.1746 75.9834 31.8781 76.4526 30.5468C76.8974 29.2467 77.0294 27.7265 77.648 26.5296Z" fill="url(#paint0_linear_1_1269)"/>
<path d="M36.7381 16.5601C38.0203 19.8577 38.3736 23.4439 37.7595 26.9284C37.2348 29.8877 36.0246 32.6862 35.318 35.6175C34.8423 37.5555 34.6184 39.7592 35.7657 41.4103C37.011 40.6198 37.6896 39.1926 38.1723 37.8003C39.0954 34.8673 39.6316 31.8262 39.7673 28.7543C40.18 22.7797 39.9142 16.5251 37.1999 11.1801C36.4761 9.63497 35.4174 8.27037 34.1007 7.1853C29.5325 3.68724 24.6564 7.74499 21.6482 11.264C18.1503 15.4127 15.464 20.2401 13.1484 25.1443C10.7393 29.9767 8.85144 35.0519 7.51676 40.2839C7.33487 41.0675 5.80281 49.8197 5.92873 49.8197H0.5C0.5 49.8197 2.03208 40.13 2.22097 39.2625C3.01211 35.6355 4.02609 32.0607 5.25713 28.5585C7.54379 21.773 10.9435 15.4153 15.3171 9.74588C17.1615 7.30025 19.3781 5.15906 21.8861 3.4004C25.8457 0.762866 31.0995 -0.39849 35.4159 1.5954C38.0511 2.91896 40.1829 5.06564 41.4883 7.71001C42.7829 10.3403 43.6699 13.1523 44.1187 16.0494C45.6018 24.011 45.6507 32.4063 42.9364 40.0391C42.3669 41.9029 41.3895 43.6164 40.0751 45.0553C39.4097 45.7673 38.5788 46.3039 37.6562 46.6176C36.7335 46.9312 35.7477 47.0122 34.7863 46.8533C33.9297 46.6236 33.137 46.2009 32.4689 45.6176C31.8007 45.0344 31.2749 44.306 30.9316 43.4882C30.2559 41.8636 29.9431 40.111 30.0152 38.353C30.0152 30.6573 33.3102 23.3813 36.7451 16.4971L36.7381 16.5601Z" fill="url(#paint1_linear_1_1269)"/>
<defs>
<linearGradient id="paint0_linear_1_1269" x1="141.448" y1="67.2915" x2="43.8602" y2="8.17985" gradientUnits="userSpaceOnUse">
<stop stop-color="white"/>
<stop offset="0.0905828" stop-color="#FFEA01"/>
<stop offset="0.247447" stop-color="#E4CA56"/>
<stop offset="0.344909" stop-color="#CEFD67"/>
<stop offset="0.430052" stop-color="#DDB149"/>
<stop offset="0.529616" stop-color="#5A4BC9"/>
<stop offset="0.716747" stop-color="#FF2414"/>
<stop offset="0.844023" stop-color="#FF8941"/>
<stop offset="1" stop-color="#FF6201"/>
</linearGradient>
<linearGradient id="paint1_linear_1_1269" x1="-3.93025" y1="64.0964" x2="80.7459" y2="-20.5706" gradientUnits="userSpaceOnUse">
<stop offset="0.110831" stop-opacity="0"/>
<stop offset="0.424738" stop-color="#FFEA01"/>
<stop offset="0.5919" stop-color="#FF6201"/>
<stop offset="0.676676" stop-color="#FF8941"/>
<stop offset="0.72704" stop-color="#5A4BC9"/>
<stop offset="0.782922" stop-color="#CEFD67"/>
<stop offset="0.840482" stop-color="#FF0004"/>
</linearGradient>
</defs>
</svg>
