<svg width="25" height="26" viewBox="0 0 25 26" fill="none" xmlns="http://www.w3.org/2000/svg">
<path d="M24.5478 0.827757L19.9137 24.8094C19.8039 25.3783 19.0983 25.5652 18.7315 25.122L12.5988 17.7034L12.6705 17.6L22.709 2.75462C22.8311 2.5745 22.8453 2.34342 22.7474 2.15165C22.6481 1.95843 22.4476 1.83318 22.2367 1.83318C22.1108 1.83318 21.9896 1.8759 21.887 1.95698L6.77536 13.8444L0.435462 11.3675C-0.13424 11.1446 -0.148495 10.3261 0.413605 10.0834L23.6193 0.0558482C24.1197 -0.160189 24.6533 0.283051 24.5478 0.827271V0.827757Z" fill="white"/>
<path d="M22.1294 2.27576L7.21021 14.0117L9.01672 20.2797C9.17114 20.8147 9.86106 20.9331 10.1775 20.4787L12.3485 17.3629L22.3836 2.52238C22.4986 2.35198 22.29 2.14953 22.1294 2.27576Z" fill="white"/>
</svg>
