<svg width="100" height="91" viewBox="0 0 100 91" fill="none" xmlns="http://www.w3.org/2000/svg">
<g clip-path="url(#clip0_1_3722)">
<path d="M81.1272 73.0566C80.3155 73.8704 79.4708 74.6574 78.5952 75.4094C70.247 82.5936 59.1442 86.8872 47.1843 87.0747C29.4351 87.3549 12.7634 79.2415 4.83343 65.4728C3.86304 63.7875 3.02245 62.0156 2.32814 60.1655C0.828268 56.1727 0.00622067 51.8111 3.98647e-05 47.1281C-0.0329244 22.5388 20.3823 4.52177 44.78 0.74324C71.5841 -3.41026 94.7106 9.67244 93.5857 44.3344C93.2169 55.7215 88.5154 65.6438 81.1272 73.0566Z" fill="#FF3C00" fill-opacity="0.15"/>
<path d="M22.3046 58.079C21.9028 58.079 21.703 57.3723 21.6453 57.121L21.4207 57.1045C21.2765 57.329 20.9345 57.8462 20.7697 57.9286C20.5245 58.0522 19.4099 57.4341 19.2616 57.259C19.0967 57.0653 19.3852 56.4163 19.5933 56.0063L19.4676 55.8642C19.2698 55.891 18.6023 55.9816 18.3509 55.9548C18.2809 55.9487 18.2149 55.9054 18.1572 55.8312C17.9347 55.5407 17.8132 54.7084 17.8544 54.4529C17.8997 54.1686 18.5549 53.9317 18.833 53.8431L18.868 53.6885C18.5487 53.4578 18.0687 53.089 18.0254 52.9468C17.9615 52.7326 18.5549 51.6036 18.7753 51.4367C19.0349 51.243 19.7004 51.6303 19.8982 51.754L19.9435 51.7746L20.1063 51.6448C19.9497 50.9875 19.9435 50.6084 20.0857 50.5157C20.2608 50.4024 21.0746 50.1325 21.5011 50.1119C21.9337 50.0872 22.0965 50.8433 22.1439 51.105L22.3684 51.1338C22.525 50.9175 22.8938 50.421 23.0627 50.3468C23.3141 50.2376 24.3937 50.9154 24.5317 51.0967C24.6842 51.2986 24.3628 51.9311 24.13 52.3288L24.2474 52.4792C24.4472 52.4627 25.1189 52.4112 25.3661 52.4503C25.4362 52.4606 25.5 52.506 25.5536 52.5842C25.7596 52.885 25.8338 53.7256 25.7802 53.977C25.7411 54.1562 25.4588 54.3252 24.9397 54.4818C25.1642 54.6692 25.601 55.0442 25.6649 55.1719C25.7741 55.3924 25.2219 56.3669 24.9314 56.5626C24.6368 56.7583 24.0373 56.4534 23.8106 56.3236L23.6499 56.4678C23.8415 57.1148 23.8704 57.4939 23.7323 57.5948C23.5634 57.7184 22.764 58.0316 22.3396 58.0749C22.3272 58.0749 22.3149 58.0749 22.3025 58.0749L22.3046 58.079ZM21.3115 56.8881L21.8142 56.9273L21.8286 57.0035C21.8863 57.2961 22.0862 57.8894 22.3169 57.8709C22.7187 57.8297 23.4769 57.5248 23.6087 57.4279C23.6437 57.3599 23.5655 56.9046 23.4315 56.4658L23.413 56.4019L23.7838 56.0702L23.8498 56.1094C24.1526 56.2927 24.6512 56.5008 24.816 56.3916C25.0839 56.2124 25.4939 55.3862 25.4753 55.2544C25.4403 55.1905 25.0571 54.8485 24.7233 54.5724L24.6842 54.5394L24.6945 54.3396L24.7666 54.319C25.3352 54.1603 25.5639 54.0017 25.5783 53.9337C25.6237 53.7236 25.5474 52.9386 25.3826 52.6996C25.3579 52.6646 25.3414 52.6543 25.3332 52.6522C25.0715 52.611 24.2165 52.6873 24.2083 52.6873L24.1526 52.6914L23.8786 52.3432L23.9136 52.2834C24.1938 51.8096 24.404 51.311 24.3607 51.2162C24.2247 51.037 23.2791 50.5137 23.1328 50.5363C23.0504 50.5734 22.7352 50.9628 22.4941 51.3007L22.4591 51.3522L21.9584 51.2863L21.9481 51.208C21.9069 50.9154 21.7462 50.3138 21.5134 50.3138H21.5072C21.1055 50.3324 20.3288 50.5961 20.1928 50.6847C20.1536 50.7527 20.2072 51.21 20.3164 51.6551L20.3329 51.7189L19.9682 52.0115L19.7972 51.9291C19.4449 51.7107 18.9958 51.5232 18.8969 51.5974C18.6929 51.7498 18.2191 52.747 18.2232 52.8933C18.2603 52.9613 18.6785 53.295 19.0411 53.5567L19.0967 53.5958L19.0081 53.9996L18.9505 54.0161C18.5425 54.1397 18.0769 54.3602 18.0584 54.4797C18.0254 54.6919 18.1449 55.4727 18.32 55.7014C18.3447 55.7344 18.3633 55.7447 18.3715 55.7447C18.6352 55.7694 19.4841 55.6479 19.4923 55.6479L19.5479 55.6396L19.8405 55.9713L19.8075 56.0331C19.552 56.5235 19.3707 57.0324 19.4202 57.123C19.5644 57.294 20.5389 57.7679 20.6852 57.7349C20.7655 57.6937 21.0581 57.2878 21.2806 56.9355L21.3136 56.884L21.3115 56.8881ZM21.8204 55.4336C21.0663 55.4336 20.4544 54.8217 20.4544 54.0676C20.4544 53.3136 21.0663 52.7017 21.8204 52.7017C22.5745 52.7017 23.1864 53.3136 23.1864 54.0676C23.1864 54.8217 22.5745 55.4336 21.8204 55.4336ZM21.8204 52.9077C21.1817 52.9077 20.6605 53.429 20.6605 54.0676C20.6605 54.7063 21.1797 55.2276 21.8204 55.2276C22.4611 55.2276 22.9803 54.7063 22.9803 54.0676C22.9803 53.429 22.4591 52.9077 21.8204 52.9077Z" fill="white"/>
<path d="M77.6989 68.3927C77.2971 68.3927 77.0973 67.6861 77.0396 67.4347L76.815 67.4182C76.6708 67.6428 76.3288 68.1599 76.164 68.2423C75.9188 68.366 74.8042 67.7479 74.6558 67.5748C74.491 67.3811 74.7795 66.7322 74.9875 66.3222L74.8619 66.18C74.6641 66.2068 73.9966 66.2954 73.7452 66.2707C73.6752 66.2645 73.6092 66.2212 73.5515 66.147C73.329 65.8565 73.2075 65.0242 73.2487 64.7687C73.294 64.4844 73.9492 64.2475 74.2273 64.1589L74.2623 64.0044C73.943 63.7736 73.4629 63.4048 73.4197 63.2627C73.3558 63.0463 73.9492 61.9194 74.1696 61.7525C74.4292 61.5568 75.0947 61.9462 75.2925 62.0698L75.3378 62.0904L75.5005 61.9606C75.344 61.3033 75.3378 60.9243 75.4799 60.8316C75.6551 60.7182 76.4689 60.4483 76.8954 60.4277C76.9015 60.4277 76.9077 60.4277 76.9118 60.4277C77.3259 60.4277 77.4908 61.1633 77.5361 61.4208L77.7607 61.4496C77.9172 61.2333 78.286 60.7368 78.455 60.6626C78.7063 60.5555 79.7859 61.2312 79.9239 61.4125C80.0764 61.6144 79.755 62.247 79.5243 62.6446L79.6417 62.795C79.8415 62.7785 80.5132 62.727 80.7604 62.7661C80.8305 62.7764 80.8943 62.8218 80.9479 62.9001C81.1539 63.2009 81.2281 64.0414 81.1745 64.2928C81.1354 64.472 80.8531 64.641 80.3339 64.7976C80.5585 64.9851 80.9953 65.36 81.0592 65.4878C81.1683 65.7082 80.6162 66.6827 80.3257 66.8784C80.0311 67.0762 79.4315 66.7692 79.2049 66.6394L79.0442 66.7837C79.2358 67.4326 79.2647 67.8097 79.1266 67.9106C78.9577 68.0342 78.1604 68.3474 77.7359 68.3907C77.7236 68.3907 77.7112 68.3907 77.7009 68.3907L77.6989 68.3927ZM76.7058 67.2019L77.2085 67.241L77.2229 67.3173C77.2806 67.6098 77.4784 68.2053 77.7133 68.1847C78.115 68.1434 78.8732 67.8385 79.0051 67.7417C79.0401 67.6737 78.9618 67.2184 78.8279 66.7795L78.8093 66.7157L79.1802 66.384L79.2461 66.4231C79.5469 66.6065 80.0476 66.8146 80.2124 66.7054C80.4802 66.5261 80.8902 65.7 80.8717 65.5681C80.8366 65.5042 80.4534 65.1622 80.1197 64.8862L80.0785 64.8532L80.0888 64.6533L80.1609 64.6327C80.7295 64.4741 80.9582 64.3155 80.9726 64.2475C81.0179 64.0373 80.9417 63.2524 80.7769 63.0134C80.7522 62.9784 80.7357 62.968 80.7274 62.966C80.5091 62.933 79.8415 62.9804 79.6025 63.001L79.5469 63.0051L79.2729 62.6569L79.31 62.5951C79.5902 62.1213 79.8003 61.6227 79.7571 61.5279C79.6211 61.3487 78.6837 60.8274 78.5291 60.846C78.4467 60.8831 78.1315 61.2724 77.8925 61.6103L77.8575 61.6618L77.3569 61.5959L77.3466 61.5176C77.3053 61.2251 77.1446 60.6235 76.9118 60.6235H76.9057C76.5039 60.642 75.7272 60.9057 75.5912 60.9943C75.5521 61.0623 75.6056 61.5197 75.7148 61.9647L75.7313 62.0286L75.3666 62.3211L75.1956 62.2387C74.8433 62.0203 74.3942 61.8349 74.2953 61.907C74.0913 62.0595 73.6175 63.0566 73.6216 63.2029C73.6587 63.2709 74.0769 63.6047 74.4395 63.8663L74.4951 63.9055L74.4065 64.3093L74.3489 64.3278C73.9409 64.4514 73.4753 64.6719 73.4568 64.7914C73.4238 65.0036 73.5433 65.7844 73.7184 66.0131C73.7431 66.0461 73.7617 66.0564 73.7699 66.0564C74.0357 66.0811 74.8825 65.9596 74.8907 65.9596L74.9463 65.9513L75.2389 66.283L75.2059 66.3448C74.9505 66.8352 74.7692 67.3441 74.8165 67.4347C74.9628 67.6057 75.9353 68.0755 76.0815 68.0466C76.1619 68.0054 76.4545 67.5995 76.677 67.2472L76.7099 67.1957L76.7058 67.2019ZM77.2147 65.7473C76.4606 65.7473 75.8487 65.1354 75.8487 64.3814C75.8487 63.6273 76.4606 63.0154 77.2147 63.0154C77.9688 63.0154 78.5807 63.6273 78.5807 64.3814C78.5807 65.1354 77.9688 65.7473 77.2147 65.7473ZM77.2147 63.2215C76.576 63.2215 76.0548 63.7427 76.0548 64.3814C76.0548 65.0201 76.576 65.5413 77.2147 65.5413C77.8534 65.5413 78.3746 65.0201 78.3746 64.3814C78.3746 63.7427 77.8534 63.2215 77.2147 63.2215Z" fill="white"/>
<path d="M66.04 15.0818C65.5373 15.0818 65.2859 14.1547 65.22 13.858L64.8945 13.8333C64.74 14.0764 64.2743 14.7852 64.0642 14.8902C63.7799 15.0324 62.3706 14.2783 62.1708 14.0435C61.9627 13.7983 62.383 12.8959 62.6076 12.455L62.4221 12.2448C62.1893 12.2778 61.3117 12.3952 60.9882 12.3623C60.9058 12.354 60.8296 12.3046 60.7595 12.216C60.4731 11.8452 60.331 10.7656 60.3784 10.4751C60.434 10.1186 61.3302 9.80755 61.6248 9.71277L61.6763 9.47996C61.3302 9.22861 60.6503 8.71766 60.5947 8.53636C60.5164 8.27677 61.2746 6.8387 61.5424 6.63679C61.8679 6.39162 62.7683 6.93141 62.9455 7.04266L63.0217 7.07975L63.2566 6.89226C63.1371 6.39162 62.9928 5.6046 63.2133 5.46244C63.4358 5.31822 64.468 4.97828 65.0098 4.95149C65.5352 4.93089 65.7536 5.90952 65.8051 6.21856L66.1286 6.26182C66.2975 6.02901 66.8002 5.345 67.0145 5.25229C67.307 5.12661 68.673 5.9569 68.8584 6.20208C69.0521 6.45755 68.5844 7.33522 68.3351 7.76376L68.5082 7.98215C68.741 7.9636 69.6269 7.89356 69.9483 7.943C70.0307 7.95536 70.1049 8.00893 70.1688 8.10164C70.4345 8.48691 70.5149 9.57473 70.4531 9.86111C70.4057 10.0857 70.0328 10.2999 69.3488 10.5019C69.5898 10.7038 70.2244 11.2394 70.3089 11.4104C70.4407 11.6741 69.7361 12.9144 69.3797 13.1514C69.0088 13.3986 68.2094 12.9783 67.9601 12.8361L67.7253 13.0463C67.8716 13.5387 68.0611 14.3175 67.8468 14.472C67.6326 14.6286 66.621 15.0241 66.0812 15.0818C66.0668 15.0818 66.0523 15.0839 66.0379 15.0839L66.04 15.0818ZM64.7853 13.619L65.3889 13.6664L65.4034 13.7427C65.4631 14.0476 65.7165 14.915 66.0606 14.8758C66.5777 14.8222 67.5563 14.4287 67.7253 14.3051C67.7871 14.2206 67.6861 13.6293 67.509 13.0422L67.4904 12.9783L67.9354 12.5807L68.0014 12.6198C68.366 12.8403 69.0336 13.1349 69.2664 12.9804C69.6228 12.7434 70.1564 11.6597 70.1214 11.497C70.074 11.4043 69.5898 10.9695 69.151 10.609L69.1118 10.576L69.1221 10.3556L69.1943 10.335C69.8906 10.1413 70.2285 9.93734 70.2532 9.82197C70.313 9.54177 70.2161 8.53842 69.9998 8.2232C69.971 8.17993 69.9401 8.15521 69.9174 8.15109C69.5795 8.09752 68.4835 8.19435 68.4732 8.19642L68.4175 8.20054L68.0879 7.7823L68.125 7.72255C68.5041 7.08181 68.7719 6.43076 68.6977 6.32981C68.5082 6.08052 67.2823 5.40269 67.0969 5.44596C66.9671 5.50158 66.5303 6.05786 66.2625 6.43489L66.2275 6.48639L65.6259 6.40604L65.6156 6.32775C65.5723 6.01871 65.3622 5.13898 65.0222 5.16164C64.503 5.18636 63.5038 5.52631 63.3287 5.63962C63.2627 5.72203 63.3287 6.30715 63.4749 6.91287L63.4914 6.97674L63.0526 7.32698L62.8486 7.23015C62.3851 6.94171 61.8102 6.70272 61.6681 6.80779C61.4003 7.00764 60.7801 8.31179 60.7945 8.48897C60.8357 8.58375 61.3776 9.0164 61.8515 9.35841L61.9071 9.39755L61.7999 9.87965L61.7423 9.8982C61.2045 10.061 60.6091 10.3432 60.5803 10.5122C60.5349 10.7944 60.6874 11.7916 60.9223 12.0944C60.9532 12.1356 60.9841 12.1604 61.0067 12.1624C61.3487 12.1954 62.4366 12.0388 62.4469 12.0388L62.5025 12.0306L62.8548 12.4282L62.8218 12.49C62.4778 13.1514 62.247 13.8148 62.3274 13.9116C62.5293 14.1506 63.7902 14.7604 63.9756 14.7069C64.1033 14.643 64.5071 14.0641 64.7544 13.6726L64.7873 13.6211L64.7853 13.619ZM65.4219 11.6989C64.4742 11.6989 63.7036 10.9283 63.7036 9.98061C63.7036 9.03288 64.4742 8.26234 65.4219 8.26234C66.3696 8.26234 67.1402 9.03288 67.1402 9.98061C67.1402 10.9283 66.3696 11.6989 65.4219 11.6989ZM65.4219 8.47043C64.5875 8.47043 63.9097 9.14826 63.9097 9.98267C63.9097 10.8171 64.5875 11.4949 65.4219 11.4949C66.2563 11.4949 66.9341 10.8171 66.9341 9.98267C66.9341 9.14826 66.2563 8.47043 65.4219 8.47043Z" fill="white"/>
<path d="M57.6298 20.2071C57.2878 20.1535 56.2123 20.2503 56.2123 20.2503L55.9713 19.9433C55.9713 19.9433 56.6944 18.7237 56.5172 18.4888C56.34 18.2539 55.0689 17.5122 54.8566 17.6029C54.6444 17.6956 54.0078 18.5918 54.0078 18.5918L53.5628 18.5321C53.5628 18.5321 53.3897 17.298 52.887 17.3206C52.3843 17.3453 51.4016 17.6709 51.2038 17.7965C51.006 17.9243 51.3027 19.1316 51.3027 19.1316L50.9772 19.3912L50.8371 19.3253C50.8371 19.3253 49.8729 18.7216 49.5968 18.9297C49.3207 19.1357 48.6655 20.4811 48.717 20.6521C48.7686 20.8251 49.776 21.5483 49.776 21.5483L49.6998 21.8924C49.6998 21.8924 48.5625 22.2364 48.511 22.564C48.4595 22.8916 48.6655 24.2349 49.0117 24.2699C49.3557 24.3049 50.425 24.1484 50.425 24.1484L50.6825 24.4409C50.6825 24.4409 50.0274 25.6997 50.2169 25.9222C50.4065 26.1468 51.7168 26.8185 51.9228 26.7154C52.1289 26.6124 52.716 25.6812 52.716 25.6812L53.1631 25.7162C53.1631 25.7162 53.4042 26.94 53.9048 26.8885C54.4055 26.837 55.3697 26.4579 55.5592 26.3199C55.7487 26.1818 55.3861 24.9931 55.3861 24.9931L55.7137 24.7005C55.7137 24.7005 56.6779 25.2856 57.0405 25.0446C57.4031 24.8035 57.9883 23.6662 57.9017 23.4932C57.8152 23.3201 56.9375 22.597 56.9375 22.597L56.9416 22.5043C57.2466 22.4198 57.978 22.189 58.0336 21.9336C58.1036 21.6101 57.9718 20.2565 57.6277 20.2029L57.6298 20.2071ZM53.2785 23.6312C52.4194 23.6312 51.7209 22.9349 51.7209 22.0737C51.7209 21.2125 52.4173 20.5161 53.2785 20.5161C54.1397 20.5161 54.836 21.2125 54.836 22.0737C54.836 22.9349 54.1397 23.6312 53.2785 23.6312Z" fill="white"/>
<path d="M21.3507 41.1911C20.9345 41.1251 19.6221 41.2426 19.6221 41.2426L19.3275 40.8697C19.3275 40.8697 20.2093 39.3822 19.993 39.0978C19.7766 38.8115 18.2294 37.907 17.9698 38.0183C17.7102 38.1295 16.9355 39.2235 16.9355 39.2235L16.3916 39.1514C16.3916 39.1514 16.1794 37.6453 15.5696 37.6763C14.9577 37.7051 13.7586 38.1027 13.5175 38.2572C13.2785 38.4118 13.6391 39.8828 13.6391 39.8828L13.2435 40.2001L13.0725 40.1177C13.0725 40.1177 11.8961 39.3822 11.5603 39.6356C11.2245 39.8869 10.4251 41.5269 10.4889 41.737C10.5528 41.9472 11.7787 42.829 11.7787 42.829L11.686 43.2493C11.686 43.2493 10.2994 43.6696 10.2376 44.0693C10.1737 44.469 10.4271 46.1069 10.8474 46.1481C11.2677 46.1893 12.5698 46.0018 12.5698 46.0018L12.885 46.3582C12.885 46.3582 12.0877 47.8911 12.3185 48.1651C12.5492 48.4391 14.1459 49.257 14.3973 49.1313C14.6486 49.0057 15.3635 47.8705 15.3635 47.8705L15.9095 47.9117C15.9095 47.9117 16.2041 49.4033 16.8119 49.3394C17.4217 49.2756 18.5982 48.8141 18.8289 48.6472C19.0597 48.4782 18.6188 47.0299 18.6188 47.0299L19.0184 46.6734C19.0184 46.6734 20.1949 47.3884 20.6358 47.0937C21.0767 46.7991 21.7916 45.4126 21.6865 45.2024C21.5814 44.9923 20.5101 44.1105 20.5101 44.1105L20.5163 43.9992C20.8892 43.8962 21.7792 43.616 21.8472 43.3049C21.9317 42.9093 21.771 41.2611 21.3527 41.1952L21.3507 41.1911ZM16.0475 45.3652C14.9989 45.3652 14.15 44.5163 14.15 43.4677C14.15 42.419 14.9989 41.5702 16.0475 41.5702C17.0962 41.5702 17.945 42.419 17.945 43.4677C17.945 44.5163 17.0962 45.3652 16.0475 45.3652Z" fill="white"/>
<path d="M60.2877 61.7969C59.9457 61.7433 58.8703 61.8402 58.8703 61.8402L58.6292 61.5332C58.6292 61.5332 59.3524 60.3135 59.1752 60.0786C58.998 59.8438 57.7268 59.1021 57.5146 59.1927C57.3024 59.2854 56.6658 60.1816 56.6658 60.1816L56.2208 60.1219C56.2208 60.1219 56.0477 58.8878 55.545 58.9105C55.0423 58.9352 54.0595 59.2607 53.8617 59.3864C53.664 59.5141 53.9606 60.7214 53.9606 60.7214L53.6351 60.981L53.495 60.9151C53.495 60.9151 52.5308 60.3114 52.2547 60.5195C51.9787 60.7256 51.3235 62.0709 51.375 62.2419C51.4265 62.415 52.434 63.1381 52.434 63.1381L52.3578 63.4822C52.3578 63.4822 51.2205 63.8263 51.169 64.1539C51.1175 64.4814 51.3235 65.8247 51.6696 65.8598C52.0137 65.8948 53.083 65.7382 53.083 65.7382L53.3405 66.0308C53.3405 66.0308 52.6853 67.2896 52.8749 67.5121C53.0644 67.7367 54.3748 68.4083 54.5808 68.3053C54.7868 68.2023 55.374 67.271 55.374 67.271L55.8211 67.3061C55.8211 67.3061 56.0621 68.5299 56.5628 68.4784C57.0634 68.4268 58.0276 68.0478 58.2172 67.9097C58.4067 67.7717 58.0441 66.5829 58.0441 66.5829L58.3717 66.2903C58.3717 66.2903 59.3359 66.8755 59.6985 66.6344C60.0611 66.3934 60.6462 65.2561 60.5597 65.083C60.4732 64.91 59.5955 64.1868 59.5955 64.1868L59.5996 64.0941C59.9045 64.0096 60.6359 63.7789 60.6915 63.5234C60.7616 63.1999 60.6297 61.8463 60.2857 61.7928L60.2877 61.7969ZM55.9364 65.2211C55.0773 65.2211 54.3789 64.5247 54.3789 63.6635C54.3789 62.8023 55.0752 62.1059 55.9364 62.1059C56.7976 62.1059 57.494 62.8023 57.494 63.6635C57.494 64.5247 56.7976 65.2211 55.9364 65.2211Z" fill="white"/>
<path d="M16.1525 61.1549C16.1525 61.1549 20.9323 64.4102 23.007 59.9785C23.007 59.9785 22.1706 62.8546 24.1196 64.2C26.0686 65.5454 28.2648 65.772 28.2648 65.772C28.2648 65.772 24.6882 66.8392 24.408 69.2106C24.0248 72.4699 25.2733 73.7638 25.2733 73.7638C25.2733 73.7638 22.698 72.7357 20.7428 73.4094C18.7876 74.0831 18.5074 76.1413 18.5074 76.1413C18.5074 76.1413 18.7587 72.3978 16.6119 71.0298C14.4631 69.6638 12.0979 69.7545 12.0979 69.7545C12.0979 69.7545 15.553 68.8995 16.2638 65.2693C16.9746 61.6391 16.1504 61.1508 16.1504 61.1508L16.1525 61.1549Z" fill="white"/>
<path d="M77.1612 39.8424C77.1612 39.8424 81.941 43.0977 84.0157 38.666C84.0157 38.666 83.1792 41.5422 85.1282 42.8875C87.0773 44.2329 89.2756 44.4595 89.2756 44.4595C89.2756 44.4595 85.6989 45.5267 85.4187 47.8981C85.0355 51.1574 86.2841 52.4513 86.2841 52.4513C86.2841 52.4513 83.7087 51.4232 81.7535 52.0969C79.7983 52.7706 79.5181 54.8288 79.5181 54.8288C79.5181 54.8288 79.7695 51.0853 77.6227 49.7173C75.4738 48.3513 73.1086 48.442 73.1086 48.442C73.1086 48.442 76.5637 47.587 77.2745 43.9568C77.9853 40.3266 77.1612 39.8383 77.1612 39.8383V39.8424Z" fill="white"/>
<path d="M24.6758 22.4587C24.6758 22.4587 28.8128 18.4164 24.8797 15.5073C24.8797 15.5073 27.5334 16.8959 29.2372 15.2519C30.9411 13.6078 31.6003 11.498 31.6003 11.498C31.6003 11.498 31.9382 15.2148 34.2086 15.9585C37.3279 16.9804 38.8442 16.0121 38.8442 16.0121C38.8442 16.0121 37.3279 18.334 37.5998 20.3819C37.8739 22.4319 39.8352 23.1138 39.8352 23.1138C39.8352 23.1138 36.2153 22.1249 34.4497 23.9606C32.6861 25.7963 32.307 28.1327 32.307 28.1327C32.307 28.1327 32.1525 24.5766 28.7366 23.1612C25.3206 21.7458 24.6778 22.4566 24.6778 22.4566L24.6758 22.4587Z" fill="white"/>
<path d="M48.2495 17.316L47.8045 16.1251L47.413 17.316C47.413 17.316 46.4282 17.4664 46.4282 17.59C46.4282 17.7033 47.5449 17.9361 47.5449 17.9361C47.5449 17.9361 47.6726 18.515 47.8045 18.7767C47.9363 19.0383 48.2969 17.8846 48.2969 17.8846C48.2969 17.8846 49.156 17.6312 49.1457 17.5508C49.1354 17.4684 48.2474 17.318 48.2474 17.318L48.2495 17.316Z" fill="white"/>
<path d="M66.9216 49.2567L66.6208 48.4512L66.3571 49.2567C66.3571 49.2567 65.6917 49.3597 65.6917 49.4422C65.6917 49.5184 66.4478 49.677 66.4478 49.677C66.4478 49.677 66.5343 50.0685 66.6229 50.2457C66.7115 50.4229 66.9567 49.642 66.9567 49.642C66.9567 49.642 67.5376 49.471 67.5315 49.4154C67.5253 49.3598 66.9257 49.2567 66.9257 49.2567H66.9216Z" fill="white"/>
<path d="M5.021 51.122L4.7202 50.3164L4.45648 51.122C4.45648 51.122 3.79102 51.225 3.79102 51.3074C3.79102 51.3836 4.54713 51.5423 4.54713 51.5423C4.54713 51.5423 4.63367 51.9337 4.72226 52.1109C4.81085 52.2881 5.05602 51.5072 5.05602 51.5072C5.05602 51.5072 5.63702 51.3362 5.63084 51.2806C5.62465 51.225 5.02306 51.122 5.02306 51.122H5.021Z" fill="white"/>
<path d="M30.3416 8.80752L30.0408 8.00195L29.777 8.80752C29.777 8.80752 29.1116 8.91053 29.1116 8.99294C29.1116 9.06917 29.8677 9.22781 29.8677 9.22781C29.8677 9.22781 29.9542 9.61926 30.0428 9.79645C30.1314 9.97363 30.3766 9.19279 30.3766 9.19279C30.3766 9.19279 30.9576 9.02179 30.9514 8.96616C30.9452 8.91053 30.3457 8.80752 30.3457 8.80752H30.3416Z" fill="white"/>
<path d="M77.2231 11.3954L76.9223 10.5898L76.6586 11.3954C76.6586 11.3954 75.9932 11.4984 75.9932 11.5808C75.9932 11.6571 76.7493 11.8157 76.7493 11.8157C76.7493 11.8157 76.8358 12.2072 76.9244 12.3843C77.013 12.5615 77.2582 11.7807 77.2582 11.7807C77.2582 11.7807 77.8392 11.6097 77.833 11.554C77.8268 11.4984 77.2273 11.3954 77.2273 11.3954H77.2231Z" fill="white"/>
<path d="M53.2167 8.5845L52.5265 6.73438L51.9187 8.5845C51.9187 8.5845 50.3879 8.81937 50.3879 9.01097C50.3879 9.18816 52.1227 9.5487 52.1227 9.5487C52.1227 9.5487 52.3205 10.447 52.5265 10.8549C52.7305 11.2608 53.2909 9.46835 53.2909 9.46835C53.2909 9.46835 54.6259 9.07484 54.6094 8.94916C54.5929 8.82143 53.2146 8.58656 53.2146 8.58656L53.2167 8.5845Z" fill="white"/>
<path d="M9.00958 59.4955L8.48215 58.0801L8.01653 59.4955C8.01653 59.4955 6.84424 59.6747 6.84424 59.821C6.84424 59.957 8.17311 60.2331 8.17311 60.2331C8.17311 60.2331 8.32557 60.9212 8.48215 61.2323C8.63873 61.5434 9.06727 60.1712 9.06727 60.1712C9.06727 60.1712 10.0892 59.8705 10.0768 59.7736C10.0644 59.6747 9.00958 59.4955 9.00958 59.4955Z" fill="white"/>
<path d="M68.4297 71.6733L67.9847 70.4824L67.5932 71.6733C67.5932 71.6733 66.6084 71.8237 66.6084 71.9473C66.6084 72.0606 67.7251 72.2934 67.7251 72.2934C67.7251 72.2934 67.8528 72.8723 67.9847 73.134C68.1165 73.3956 68.4771 72.2419 68.4771 72.2419C68.4771 72.2419 69.3362 71.9885 69.3259 71.9081C69.3156 71.8257 68.4276 71.6753 68.4276 71.6753L68.4297 71.6733Z" fill="white"/>
<path d="M76.2196 57.8882C76.2196 56.3759 75.517 54.9358 74.3262 53.6832C72.8716 52.1524 70.6651 51.2665 68.5842 51.627C66.5033 51.9876 64.7006 53.4977 63.8188 55.4179C62.9494 57.3092 63.075 59.934 64.4348 61.7223C64.4348 61.7223 63.1162 64.0195 63.6086 64.3348C63.8106 64.5552 65.4856 63.5828 66.0459 63.0862L66.0315 63.0718C67.7251 64.2894 70.1109 65.0208 72.7398 63.7332C74.7032 62.771 76.2196 60.6448 76.2175 57.8902L76.2196 57.8882Z" fill="#FF5741"/>
<path d="M72.6512 55.4611C72.6512 56.1925 72.0579 56.7838 71.3285 56.7838C70.5992 56.7838 70.0059 56.1905 70.0059 55.4611C70.0059 54.7318 70.5992 54.1384 71.3285 54.1384C72.0579 54.1384 72.6512 54.7318 72.6512 55.4611Z" fill="#FFEDED"/>
<path d="M72.5338 60.3322C72.5338 61.0636 71.9405 61.6549 71.2111 61.6549C70.4818 61.6549 69.8884 61.0615 69.8884 60.3322C69.8884 59.6029 70.4818 59.0095 71.2111 59.0095C71.9405 59.0095 72.5338 59.6029 72.5338 60.3322Z" fill="#FFEDED"/>
<path d="M68.7306 58.1779C68.7306 58.9093 68.1372 59.5006 67.4079 59.5006C66.6786 59.5006 66.0852 58.9073 66.0852 58.1779C66.0852 57.4486 66.6786 56.8552 67.4079 56.8552C68.1372 56.8552 68.7306 57.4486 68.7306 58.1779Z" fill="#FFEDED"/>
<path d="M67.6282 58.0643C68.8376 57.2444 70.047 56.4264 71.2564 55.6064C71.4356 55.4849 71.2667 55.1923 71.0854 55.3139C69.876 56.1339 68.6666 56.9518 67.4572 57.7718C67.278 57.8933 67.4469 58.1859 67.6282 58.0643Z" fill="#FFEDED"/>
<path d="M67.2988 57.9446C68.6133 58.7893 69.9298 59.634 71.2442 60.4787C71.4276 60.5962 71.5986 60.3036 71.4152 60.1862C70.1008 59.3415 68.7843 58.4967 67.4698 57.652C67.2864 57.5346 67.1154 57.8272 67.2988 57.9446Z" fill="#FFEDED"/>
<path d="M43.7622 7.94238C42.6456 6.64853 40.7996 5.98513 39.0319 6.1314H39.0442C37.7524 6.15613 36.1083 6.62175 35.2616 7.55093C34.4148 8.47805 33.9739 9.70597 33.9657 10.9195C33.9554 12.7037 34.9484 14.459 36.4957 15.4479C36.2402 15.9465 35.859 16.3812 35.3914 16.6882C36.1866 16.7912 37.0169 16.5213 37.6123 15.9857C37.6329 15.9918 37.6515 16.0022 37.67 16.0083C39.8766 16.7377 42.5714 15.9239 43.9415 14.1108C45.3095 12.2998 45.2333 9.64828 43.7622 7.94238Z" fill="#FF5741"/>
<path d="M43.6014 6.70921C43.3006 6.95851 39.4623 12.3461 39.4623 12.3461C39.4623 12.3461 37.025 9.04762 36.9756 8.94666C36.9756 8.94666 35.8877 9.49058 35.8115 9.85936C35.7373 10.2282 38.5146 14.2972 39.4973 14.1406C40.4801 13.984 44.9344 7.60955 44.9344 7.60955L43.6014 6.70715V6.70921Z" fill="#FFEDED"/>
<path d="M35.7704 25.9664C39.6354 26.2569 43.4984 26.5495 47.3635 26.84C51.2471 27.1325 55.1286 27.4251 59.0122 27.7177C61.1961 27.8825 63.38 28.0473 65.5639 28.2121C66.1511 28.2575 66.7156 27.6929 66.6888 27.1511C66.66 26.5392 66.1943 26.1374 65.5639 26.09C61.6988 25.7996 57.8358 25.507 53.9708 25.2165C50.0872 24.9239 46.2056 24.6314 42.322 24.3388C40.1381 24.174 37.9542 24.0092 35.7704 23.8444C35.1832 23.799 34.6187 24.3635 34.6454 24.9054C34.6743 25.5173 35.1399 25.919 35.7704 25.9664Z" fill="#FFEDED"/>
<path d="M35.7705 26.0939C40.4864 26.4482 45.2024 26.8047 49.9163 27.159C54.6199 27.5134 59.3235 27.8678 64.0271 28.2221C64.3011 28.2427 64.573 28.2633 64.8471 28.2839C65.1272 28.3045 65.428 28.3581 65.7103 28.3375C66.0709 28.3087 66.4046 28.0923 66.6106 27.7998C67.0392 27.1899 66.7425 26.37 66.0811 26.0836C65.6423 25.894 65.1087 25.9249 64.641 25.8899C64.06 25.8466 63.479 25.8013 62.898 25.7581C61.7175 25.6695 60.539 25.5809 59.3585 25.4923C54.6673 25.1379 49.9781 24.7856 45.2869 24.4312C42.934 24.2541 40.5812 24.0769 38.2284 23.8997C37.6474 23.8564 37.0685 23.8132 36.4875 23.7678C36.0218 23.7328 35.5377 23.6277 35.1153 23.8853C34.4787 24.2767 34.3118 25.14 34.8475 25.6942C35.0927 25.9476 35.4285 26.0609 35.7705 26.0939C35.9353 26.1104 35.9332 25.8528 35.7705 25.8363C35.3687 25.7972 34.9793 25.5953 34.8331 25.1997C34.6724 24.7671 34.8825 24.3117 35.276 24.0892C35.5047 23.9615 35.7231 23.9677 35.9744 23.9862C36.2485 24.0068 36.5204 24.0274 36.7944 24.048C37.3569 24.0913 37.9214 24.1325 38.4839 24.1758L45.0314 24.6682C49.4136 24.9978 53.7958 25.3295 58.178 25.6592C60.366 25.824 62.554 25.9888 64.744 26.1536C65.1952 26.1866 65.7453 26.1413 66.1388 26.4009C66.4726 26.6213 66.658 27.0643 66.5097 27.4495C66.3181 27.9481 65.8483 28.1026 65.3601 28.0656C64.8141 28.0244 64.2681 27.9831 63.7221 27.9419C59.3255 27.6102 54.9289 27.2785 50.5323 26.9489C46.1604 26.6193 41.7865 26.2896 37.4146 25.96C36.8665 25.9188 36.3206 25.8776 35.7725 25.8363C35.6077 25.824 35.6077 26.0815 35.7725 26.0939H35.7705Z" fill="#421B36"/>
<path d="M21.8636 38.489C22.9246 42.0532 23.9857 45.6175 25.0467 49.1818C26.1015 52.7296 27.1585 56.2773 28.2133 59.8251C28.8108 61.8359 29.4103 63.8468 30.0078 65.8555C30.1665 66.3871 30.7598 66.7765 31.314 66.5972C31.8518 66.4242 32.2247 65.8617 32.0557 65.291C30.9947 61.7267 29.9336 58.1625 28.8726 54.5982C27.8177 51.0504 26.7608 47.5026 25.706 43.9549C25.1085 41.944 24.509 39.9332 23.9115 37.9245C23.7528 37.3929 23.1595 37.0035 22.6053 37.1828C22.0675 37.3579 21.6946 37.9183 21.8636 38.489Z" fill="#FFEDED"/>
<path d="M21.74 38.5214C23.0256 42.8418 24.3112 47.1622 25.5968 51.4805C26.8804 55.7968 28.166 60.113 29.4495 64.4293C29.602 64.9423 29.7194 65.4883 29.9193 65.9869C30.0429 66.298 30.2922 66.5493 30.6012 66.6791C31.2852 66.9655 32.0825 66.4793 32.2082 65.7623C32.2865 65.3173 32.0558 64.8413 31.9321 64.4231C31.7714 63.8833 31.6107 63.3435 31.45 62.8037C31.1286 61.7242 30.8072 60.6446 30.4858 59.5671C29.1982 55.2384 27.9084 50.9098 26.6208 46.5812C25.98 44.4303 25.3393 42.2773 24.7006 40.1264C24.5461 39.6072 24.3916 39.088 24.237 38.5709C24.1134 38.1526 24.0392 37.6829 23.7158 37.3656C23.1863 36.8423 22.3478 36.935 21.9172 37.5345C21.707 37.8271 21.6514 38.1774 21.74 38.5235C21.7812 38.6842 22.0305 38.6162 21.9893 38.4555C21.876 38.0125 22.0944 37.5696 22.5023 37.3656C22.9102 37.1616 23.3882 37.3162 23.6499 37.6808C23.7714 37.8518 23.8167 38.0537 23.8744 38.2515C23.9507 38.5111 24.0289 38.7707 24.1052 39.0303C24.2556 39.533 24.4039 40.0357 24.5543 40.5384C25.1456 42.5266 25.739 44.5168 26.3303 46.505C27.5252 50.5225 28.7222 54.5421 29.9172 58.5596C30.5167 60.5704 31.1142 62.5812 31.7137 64.5921C31.8477 65.0391 32.1052 65.548 31.858 65.9992C31.6581 66.3659 31.2131 66.6029 30.801 66.4813C30.3148 66.3371 30.1644 65.925 30.0326 65.4842C29.8822 64.9814 29.7338 64.4787 29.5834 63.976C28.3967 59.9874 27.2079 55.9966 26.0212 52.0079C24.8221 47.9822 23.6251 43.9543 22.4261 39.9286C22.2798 39.4382 22.1335 38.9479 21.9872 38.4576C21.9398 38.2989 21.6905 38.3669 21.7379 38.5255L21.74 38.5214Z" fill="#421B36"/>
<path d="M37.5399 28.7342C37.4719 36.3881 31.1552 40.5334 22.9244 40.4592C14.6936 40.385 7.66192 36.1223 7.73196 28.4684C7.79995 20.8145 14.5288 14.6688 22.7596 14.7409C30.9903 14.815 37.61 21.0782 37.542 28.7321L37.5399 28.7342Z" fill="#FFEDED"/>
<path d="M37.4124 28.7342C37.3815 31.4002 36.5347 34.0044 34.734 36.0028C32.9601 37.9704 30.5043 39.1756 27.9557 39.7896C25.0096 40.4983 21.847 40.5107 18.8782 39.9359C16.1401 39.4064 13.4309 38.3144 11.3397 36.4313C9.34328 34.6348 8.10506 32.181 7.89697 29.4985C7.67652 26.643 8.47591 23.7607 10.0582 21.3811C11.6508 18.9829 14.0015 17.1205 16.6593 16.0326C19.5128 14.8645 22.7062 14.5719 25.7286 15.1735C28.6006 15.7463 31.3037 17.1349 33.3907 19.1951C35.4139 21.1936 36.8087 23.7895 37.2579 26.6039C37.3691 27.3085 37.4186 28.0193 37.4144 28.7321C37.4144 28.8969 37.6699 28.899 37.672 28.7321C37.6905 25.8024 36.7222 22.9366 34.9607 20.6002C33.1868 18.2474 30.7041 16.4859 27.929 15.5093C24.9622 14.4648 21.6802 14.3308 18.633 15.1096C15.7569 15.8431 13.0909 17.4048 11.1007 19.6175C9.17228 21.7622 7.92994 24.4818 7.66004 27.36C7.39839 30.1413 8.0721 32.9371 9.80066 35.1581C11.5107 37.3564 14.0118 38.8048 16.6387 39.6351C19.6158 40.5766 22.8566 40.8094 25.949 40.4138C28.6995 40.0615 31.4355 39.1488 33.6215 37.3997C35.6735 35.7576 37.0333 33.4295 37.4824 30.8418C37.604 30.1455 37.6617 29.4388 37.6699 28.7321C37.6699 28.5673 37.4144 28.5652 37.4124 28.7321V28.7342Z" fill="#421B36"/>
<path d="M30.4424 15.1766C30.908 14.7542 31.0275 14.029 30.8153 13.4377C30.6031 12.8464 30.1025 12.387 29.5338 12.1233C28.9631 11.8596 28.3265 11.771 27.6981 11.7545C27.6631 10.8274 27.0739 9.94144 26.2333 9.54999C25.3927 9.15854 22.599 9.44698 22.7947 10.8644L26.2683 16.9937C26.1385 17.8096 26.6062 18.6564 27.3108 19.087C28.0154 19.5196 28.9116 19.5691 29.7069 19.3363C30.6299 19.0664 31.4746 18.3721 31.7054 17.4388C31.9361 16.5034 31.386 15.3826 30.4445 15.1766H30.4424Z" fill="#421B36"/>
<path d="M17.16 10.281C16.1422 10.5097 15.1183 10.7384 14.1602 11.1504C13.2022 11.5625 12.306 12.1723 11.7126 13.0315C10.8473 14.282 10.7258 15.9055 10.8679 17.4198C11.0101 18.9341 11.385 20.4278 11.4056 21.9483C10.3034 22.4448 9.74301 23.7943 9.95522 24.9831C10.1674 26.1719 11.0369 27.1711 12.0814 27.7768C11.1337 28.502 10.7402 29.87 11.1584 30.9867C11.5746 32.1034 12.7675 32.8801 13.9583 32.808L21.7832 30.8384L17.16 10.281Z" fill="#421B36"/>
<path d="M15.8929 29.2496C15.8929 29.2496 13.6163 33.0034 14.5372 35.144C15.4582 37.2867 18.4724 38.5929 18.4724 38.5929C18.4724 38.5929 18.8102 40.8818 19.7621 41.0343C20.7139 41.1868 30.9679 39.8847 31.3078 38.2097C31.5612 36.9653 27.999 23.3819 25.8255 23.6765C23.6519 23.9712 18.5074 23.897 18.5074 23.897C18.5074 23.897 16.0639 22.8792 14.5208 24.0103L15.895 29.2454L15.8929 29.2496Z" fill="#FF5741"/>
<path d="M5.8882 37.8008C5.89232 37.9306 5.13414 42.1068 6.1787 43.959C7.1326 45.6504 10.0767 45.8462 11.659 43.9878C13.2413 42.1315 14.6588 35.7982 14.6588 35.7982L16.6222 27.9404L14.9575 23.7869C14.9575 23.7869 13.7914 24.1041 13.0559 25.4186C12.3204 26.733 8.91885 36.9623 8.91885 36.9623L5.8882 37.8029V37.8008Z" fill="#FF5741"/>
<path d="M14.807 29.5726C15.2026 29.9744 15.6414 30.3225 16.1194 30.6192V30.3967C15.0357 31.2064 14.4053 32.527 14.4856 33.8806C14.4959 34.0455 14.7535 34.0455 14.7432 33.8806C14.671 32.6239 15.2376 31.3733 16.2513 30.6192C16.3275 30.5615 16.3399 30.4523 16.2513 30.3967C15.7898 30.1124 15.3715 29.7766 14.9904 29.3913C14.873 29.2739 14.6916 29.4552 14.8091 29.5726H14.807Z" fill="#421B36"/>
<path d="M0.144116 31.5473C0.144116 31.5473 6.93476 38.6057 8.35429 39.0817C9.77381 39.5576 14.1622 38.5233 13.9706 37.9279C13.781 37.3325 7.24586 30.035 6.44442 29.8187C5.64297 29.6003 -0.288541 30.9271 0.144116 31.5473Z" fill="#421B36"/>
<path d="M2.02514 33.403C2.02514 33.403 1.18249 33.0837 1.41118 33.8357C1.63987 34.5877 2.31152 34.8226 2.31152 34.8226C2.31152 34.8226 2.0169 35.3685 3.02849 35.6838C3.02849 35.6838 2.94608 36.376 3.81551 36.5923C3.81551 36.5923 3.5827 36.8746 4.56751 37.468C5.55232 38.0593 6.3311 38.7268 6.3311 38.7268L7.15109 38.1314L5.34217 36.683C5.34217 36.683 6.93888 35.9042 6.6113 35.383C6.28372 34.8617 5.4081 35.4015 4.61284 35.9969L4.31204 36.2256L4.27701 36.1164C4.27701 36.1164 5.5276 35.0286 5.5585 34.7257C5.58941 34.4229 5.43901 33.9696 4.88891 34.1035L4.63756 34.1757C4.63756 34.1757 4.73851 33.879 4.24817 33.8213C3.75783 33.7636 2.95844 34.291 2.94608 34.2848C2.93372 34.2787 2.10137 33.5143 2.10137 33.5143" fill="#FFAE7A"/>
<path d="M9.18882 37.953L10.171 41.2391C10.2184 41.3977 10.4675 41.3297 10.4202 41.1711C10.0928 40.075 9.76537 38.979 9.43797 37.885C9.39061 37.7263 9.14146 37.7943 9.18882 37.953Z" fill="#421B36"/>
<path d="M22.7907 28.9333C21.7482 29.3268 20.578 29.4422 19.5129 29.1146C18.4477 28.787 17.5062 27.9856 17.1435 26.9328C16.7809 25.88 17.6401 24.6026 18.5074 23.9021L23.7199 23.9536L22.7907 28.9333Z" fill="#FFAE7A"/>
<path d="M11.9103 12.9268C12.4418 11.9565 13.3112 11.1962 14.2878 10.677C15.3283 10.1249 16.5047 9.8282 17.6831 9.82202L18.5855 21.4564L14.0942 19.0149C13.612 17.9951 11.8608 16.9959 11.5641 16.1347C11.2036 15.086 11.3746 13.8972 11.9082 12.9268H11.9103Z" fill="#421B36"/>
<path d="M21.9313 11.9203C19.5641 9.23986 15.0953 10.0825 13.8612 13.4346C13.4718 14.4956 13.3936 15.8574 13.6181 17.6416C14.2424 22.6213 19.1644 22.0218 19.1644 22.0218L19.3848 24.2613L23.4023 23.808L23.0253 19.3784C23.0253 19.3784 23.221 15.604 22.6627 13.2821C22.5391 12.765 22.2754 12.3117 21.9292 11.9203H21.9313Z" fill="#FFAE7A"/>
<path d="M15.8474 14.9822C15.8639 15.1656 16.0101 15.3036 16.1748 15.2892C16.3396 15.2748 16.4611 15.1161 16.4446 14.9328C16.4281 14.7494 16.2819 14.6114 16.1172 14.6258C15.9525 14.6402 15.831 14.7989 15.8474 14.9822Z" fill="#421B36"/>
<path d="M19.1748 14.7498C19.1913 14.9332 19.3375 15.0712 19.5022 15.0568C19.667 15.0424 19.7885 14.8837 19.772 14.7003C19.7555 14.517 19.6093 14.3789 19.4446 14.3934C19.2798 14.4078 19.1584 14.5664 19.1748 14.7498Z" fill="#421B36"/>
<path d="M20.244 12.5857C19.5579 12.2499 18.8986 12.3962 18.2022 12.5527C18.0436 12.5878 17.8973 12.3859 18.058 12.2767C18.7503 11.811 19.665 12.0336 20.3181 12.4312C20.4108 12.4868 20.3449 12.6352 20.244 12.5857Z" fill="#421B36"/>
<path d="M20.687 21.2755C19.9412 21.9884 18.944 22.3571 17.9139 22.3695C17.7388 22.3695 17.712 22.1099 17.8912 22.0955C18.8925 22.011 19.7846 21.7185 20.6726 21.2549C20.6829 21.2487 20.6953 21.2673 20.687 21.2755Z" fill="#421B36"/>
<path d="M25.4895 13.0662C26.4475 15.1161 26.0231 17.3515 24.5645 19.078L23.1058 20.8045C22.805 19.3232 22.3785 16.5522 21.8243 15.2171C21.2763 13.8923 18.736 10.9997 17.5781 10.4002L17.5225 9.73885C18.8472 9.14755 20.5222 9.29177 21.8655 9.8398C22.6237 10.1488 23.421 10.5939 23.9999 11.1749C23.9999 11.1749 25.0775 12.1864 25.4875 13.0682L25.4895 13.0662Z" fill="#421B36"/>
<g opacity="0.3">
<path d="M18.9379 16.2413C18.9606 16.5133 19.4056 16.6987 19.9289 16.6534C20.4543 16.6101 20.8601 16.3546 20.8375 16.0827C20.8148 15.8107 20.3698 15.6253 19.8465 15.6706C19.3211 15.7139 18.9153 15.9694 18.9379 16.2413Z" fill="#421B36"/>
</g>
<g opacity="0.3">
<path d="M13.8635 16.4697C13.8861 16.7417 14.3311 16.9271 14.8544 16.8818C15.3798 16.8385 15.7857 16.583 15.763 16.3111C15.7404 16.0391 15.2953 15.8537 14.772 15.899C14.2467 15.9423 13.8408 16.1978 13.8635 16.4697Z" fill="#421B36"/>
</g>
<path d="M14.9078 12.7848C15.4167 12.1337 16.3726 12.1523 16.8403 12.826C17.5017 13.782 17.1494 15.426 16.6343 16.3655C16.5313 16.551 16.2634 16.4212 16.3376 16.2234C16.6178 15.4796 16.8877 14.7173 16.8362 13.9076C16.7682 12.8487 15.9173 12.2738 14.9964 12.8796C14.9346 12.9208 14.8625 12.8425 14.9078 12.7827V12.7848Z" fill="#421B36"/>
<path d="M18.4281 16.8318C18.5208 17.1594 18.2428 17.5262 17.9978 17.7178C17.6992 17.9526 17.308 18.0804 16.9373 17.9465C16.8405 17.9114 16.8302 17.7651 16.927 17.7219C17.1988 17.6024 17.4892 17.5159 17.7198 17.3201C17.9154 17.1574 18.0225 16.906 18.2263 16.7597C18.3066 16.702 18.4013 16.7391 18.4281 16.8318Z" fill="#421B36"/>
<path d="M30.6484 25.4071C30.2817 24.8138 29.7666 24.3585 29.231 23.9691C29.095 23.8702 28.9446 23.7569 28.8993 23.5797C28.856 23.4107 28.9219 23.2356 28.9755 23.0729C29.3649 21.8985 29.0785 19.5725 28.4316 18.5464C27.7826 17.5204 26.6701 16.6531 25.712 16.1792L22.5392 17.1846C22.5392 17.1846 18.9688 19.4447 20.4419 23.384C19.8629 23.8125 19.4921 24.5892 19.49 25.3824C19.49 26.1777 19.8547 26.9647 20.4336 27.4097C20.0092 27.7455 19.5786 28.0896 19.2613 28.5573C18.9441 29.0229 18.7524 29.641 18.8761 30.2199C19.0203 30.8895 19.5621 31.3757 20.1369 31.5756C20.7138 31.7754 21.3278 31.7425 21.9273 31.7074L28.0051 29.8202C28.6562 29.7007 29.3134 29.538 29.8882 29.1713C30.463 28.8025 30.9513 28.2009 31.0873 27.4612C31.2191 26.7546 31.0131 26.0005 30.6464 25.4071H30.6484Z" fill="#421B36"/>
<path d="M24.1072 15.3955C24.3749 15.2327 24.7352 15.2657 25.0029 15.4305C25.2706 15.5974 25.4518 15.8776 25.5527 16.1763C25.7215 16.6728 25.67 17.2559 25.3509 17.67C25.0317 18.0841 24.4263 18.2778 23.9507 18.0573L24.1072 15.3955Z" fill="#FFAE7A"/>
<path d="M24.8504 16.7785C24.7495 16.7187 24.5374 16.6961 24.4242 16.7105C24.2636 16.7311 24.1668 16.8217 24.0659 16.9392C23.9629 17.0607 23.7529 16.933 23.827 16.7847C23.93 16.5828 24.1483 16.4488 24.3748 16.4344C24.4818 16.4282 24.6033 16.4488 24.696 16.5024C24.8031 16.5621 24.8236 16.6425 24.8834 16.7393C24.8957 16.7599 24.8751 16.7929 24.8504 16.7785Z" fill="#421B36"/>
<path d="M25.9057 23.677C25.541 23.6008 23.5034 23.2073 22.7061 25.216C21.9088 27.2227 20.584 38.7128 20.584 38.7128C20.584 38.7128 18.089 41.1769 18.3775 41.7991C18.6659 42.4213 19.5044 46.3193 22.2034 46.103C24.9023 45.8867 25.7306 41.9413 26.394 39.982C27.0574 38.0247 27.5354 30.9127 27.7084 29.1491C27.8815 27.3855 27.5539 24.019 25.9057 23.677Z" fill="#FF5741"/>
<path d="M9.22803 32.4282C9.22803 32.4282 10.1098 31.1158 11.1832 31.225C12.2566 31.3342 15.1142 33.1863 16.0537 34.2268C16.9932 35.2672 21.5484 39.227 21.5217 39.6927C21.4949 40.1583 21.1467 42.6698 18.9401 42.4122L16.8181 38.9242C16.8181 38.9242 16.5008 39.0952 15.7447 38.815C14.9906 38.5348 14.2345 36.8536 14.2345 36.8536C14.2345 36.8536 12.2649 37.0844 11.5912 36.8021C10.9174 36.5199 11.1029 35.9904 11.1029 35.9904C11.1029 35.9904 9.71425 36.3282 9.30838 35.7988C8.90251 35.2693 9.33722 34.9334 9.33722 34.9334C9.33722 34.9334 8.53166 34.9582 8.33387 34.4596C8.13815 33.961 8.09076 33.7611 8.67176 33.6417C9.25275 33.5222 9.98621 33.2687 9.98621 33.2687L9.22803 32.4302V32.4282Z" fill="#FFAE7A"/>
<path d="M19.6509 37.8875C21.0416 39.0062 22.2386 40.3392 23.6293 41.4579C23.757 41.5609 23.9404 41.3796 23.8106 41.2766C22.4199 40.1579 21.2229 38.8249 19.8322 37.7062C19.7045 37.6032 19.5211 37.7845 19.6509 37.8875Z" fill="#421B36"/>
<path d="M10.464 36.2582C11.7372 36.0253 13.0228 35.8729 14.3146 35.7967C14.4794 35.7864 14.4794 35.5288 14.3146 35.5391C13.0002 35.6153 11.6919 35.774 10.396 36.0109C10.2332 36.0398 10.3012 36.2891 10.464 36.2602V36.2582Z" fill="#421B36"/>
<path d="M9.33923 35.1316C10.7711 34.8453 12.2215 34.6763 13.6802 34.6207C13.845 34.6145 13.8471 34.357 13.6802 34.3631C12.1989 34.4188 10.7237 34.5939 9.26918 34.8844C9.10642 34.9174 9.17647 35.1646 9.33717 35.1337L9.33923 35.1316Z" fill="#421B36"/>
<path d="M8.99708 33.6764C10.4393 33.3942 11.9 33.2252 13.369 33.1676C13.5338 33.1614 13.5359 32.9038 13.369 32.91C11.8773 32.9677 10.3939 33.1408 8.92909 33.4271C8.76633 33.4581 8.83638 33.7073 8.99708 33.6764Z" fill="#421B36"/>
<path d="M10.5566 33.2362C10.6514 33.0467 10.7852 32.7541 11.0405 32.7644C11.1661 32.7706 11.2876 32.8509 11.3926 32.9107C11.5224 32.9849 11.65 33.0631 11.7736 33.1476C11.9115 33.2403 12.0413 33.0178 11.9033 32.9251C11.7612 32.8303 11.615 32.7397 11.4647 32.6573C11.3206 32.579 11.162 32.4966 10.9932 32.5089C10.6555 32.5337 10.4702 32.8324 10.3343 33.1064C10.2601 33.2547 10.4825 33.3845 10.5566 33.2362Z" fill="#421B36"/>
<path d="M5.6222 37.104C5.59955 36.9804 5.56043 36.8609 5.50689 36.7476C5.48218 36.8115 5.45542 36.8733 5.43071 36.9372C5.79517 36.7868 6.12875 36.5807 6.4232 36.317C6.47468 36.2717 6.47056 36.181 6.4232 36.1357C6.37172 36.0842 6.29347 36.0904 6.242 36.1357C5.98255 36.3665 5.67986 36.556 5.36276 36.6879C5.28245 36.7208 5.24745 36.795 5.28657 36.8774C5.32981 36.9701 5.35864 37.0711 5.37717 37.1741C5.38952 37.2421 5.47395 37.2812 5.53572 37.2647C5.60779 37.2441 5.63662 37.1741 5.62632 37.1061L5.6222 37.104Z" fill="#421B36"/>
<path d="M3.88365 36.7428C4.05878 36.444 4.30189 36.1885 4.56766 35.9702C4.83138 35.7559 5.13218 35.5705 5.45976 35.4736C5.6184 35.4262 5.55041 35.177 5.39177 35.2243C5.02916 35.3315 4.69952 35.5334 4.40696 35.7703C4.1144 36.0052 3.85069 36.2874 3.66114 36.613C3.57667 36.7572 3.79918 36.887 3.88365 36.7428Z" fill="#421B36"/>
<path d="M3.12748 35.6673C3.50039 35.0163 4.09581 34.4971 4.7963 34.2251C4.94876 34.1654 4.88283 33.9161 4.72831 33.9759C3.96395 34.2725 3.31496 34.8247 2.90497 35.5375C2.82256 35.6818 3.04507 35.8115 3.12748 35.6673Z" fill="#421B36"/>
<path d="M2.31549 34.8675C2.44727 34.3298 2.97852 34.0599 3.47065 33.9259C3.6292 33.8827 3.56331 33.6334 3.4027 33.6767C2.82409 33.8353 2.22283 34.1711 2.06839 34.7995C2.02927 34.9602 2.27636 35.0282 2.31755 34.8675H2.31549Z" fill="#421B36"/>
<path d="M26.2787 40.3437C27.1585 37.2924 27.4572 34.1608 27.8858 31.0271C27.9084 30.8644 27.6591 30.7943 27.6365 30.9591C27.2079 34.0907 26.9071 37.2244 26.0294 40.2757C25.9841 40.4343 26.2314 40.5044 26.2787 40.3437Z" fill="#421B36"/>
<path d="M20.8723 38.7127C21.208 36.1126 21.3933 33.4899 21.5663 30.8734C21.5765 30.7086 21.3192 30.7086 21.3089 30.8734C21.1359 33.4879 20.9485 36.1126 20.6149 38.7127C20.5943 38.8775 20.8517 38.8755 20.8723 38.7127Z" fill="#421B36"/>
<path d="M17.4587 10.3393C19.0163 12.4696 20.7737 14.4475 22.7062 16.244C22.8278 16.3573 23.0091 16.176 22.8875 16.0627C20.9694 14.2826 19.2244 12.3233 17.6812 10.2095C17.5844 10.0776 17.3598 10.2054 17.4587 10.3393Z" fill="#421B36"/>
<path d="M24.3647 11.4571C25.6854 12.5697 26.2313 14.4404 25.706 16.0865C25.6895 16.1422 25.7183 16.204 25.7657 16.2328C27.8239 17.4793 29.0807 19.8486 28.9715 22.2509C28.9633 22.4157 29.2208 22.4157 29.229 22.2509C29.3423 19.76 28.0258 17.3021 25.8955 16.0103C25.9161 16.0598 25.9347 16.1071 25.9553 16.1566C26.5054 14.4301 25.9347 12.444 24.5481 11.2758C24.4224 11.1707 24.2391 11.352 24.3668 11.4571H24.3647Z" fill="#FF5741"/>
<path d="M63.9629 45.5617C64.2658 55.5479 57.1537 61.2486 47.6126 61.5371C38.0715 61.8255 29.7151 56.5945 29.4122 46.6084C29.1093 36.6222 36.5984 28.2905 46.1395 28.0021C55.6806 27.7136 63.66 35.5736 63.9629 45.5617Z" fill="white"/>
<path d="M63.8332 45.5608C63.93 48.9562 63.1451 52.3741 61.1239 55.1493C59.2408 57.735 56.4554 59.5068 53.4288 60.4607C50.0603 61.5238 46.3559 61.6927 42.8844 61.0788C39.6127 60.4998 36.4254 59.1462 33.9799 56.8573C31.4911 54.5271 30.0056 51.3646 29.6348 47.9878C29.231 44.3082 29.9665 40.5111 31.7218 37.2518C33.3865 34.1572 35.9557 31.5675 39.0852 29.9543C42.291 28.2999 46.0201 27.7395 49.572 28.3823C53.0374 29.0107 56.2329 30.7619 58.6846 33.2816C61.2063 35.8714 62.8937 39.209 63.5386 42.7609C63.7075 43.686 63.8023 44.6214 63.8311 45.5608C63.8373 45.7257 64.0948 45.7277 64.0887 45.5608C63.9671 41.8132 62.7557 38.1294 60.5429 35.0926C58.4456 32.2103 55.5056 29.9646 52.1329 28.7903C48.6902 27.5912 44.8725 27.5603 41.4092 28.6996C38.016 29.8163 35.0492 32.0228 32.9209 34.8825C30.7041 37.8616 29.4453 41.5 29.2887 45.2065C29.1362 48.7728 30.0056 52.3803 32.1854 55.2523C34.2045 57.9142 37.1259 59.7334 40.2926 60.7182C43.7476 61.7916 47.522 61.9523 51.0739 61.3054C54.3106 60.7162 57.4484 59.344 59.826 57.0303C62.2056 54.7146 63.5839 51.6139 63.9733 48.3381C64.0825 47.4171 64.1154 46.488 64.0887 45.5608C64.0845 45.396 63.827 45.394 63.8311 45.5608H63.8332Z" fill="#421B36"/>
<path d="M61.2495 45.1771C61.2495 53.2163 55.011 58.6904 46.9698 58.6904C38.9286 58.6904 32.1338 53.2183 32.1338 45.1771C32.1338 37.1359 38.6504 30.6193 46.6916 30.6193C54.7329 30.6193 61.2495 37.1359 61.2495 45.1771Z" fill="#F9DAB9"/>
<path d="M56.2638 47.7548C56.2638 47.7548 55.0894 49.2979 55.6601 50.1014C56.2308 50.9049 58.7484 51.113 58.9874 49.234C59.2264 47.3551 60.5079 47.2624 58.9874 46.4795C57.467 45.6945 56.4863 46.8173 56.2638 47.7548Z" fill="#FFAA71"/>
<path d="M32.2554 43.296C32.7746 43.4299 33.2031 43.8543 33.5163 44.3035C33.8789 44.8227 34.1549 45.4098 34.6185 45.8466C35.5353 46.7099 37.0579 46.749 38.123 46.0897C39.1882 45.4304 39.8042 44.1963 39.9051 42.954C40.0061 41.7117 39.6414 40.4652 39.0893 39.3403C38.568 38.2834 37.8758 37.3006 37.5235 36.1798C37.2948 35.4567 37.2433 34.6367 37.4596 33.9259C34.6659 36.221 32.7437 39.534 32.2574 43.2981L32.2554 43.296Z" fill="#FFAA71"/>
<path d="M60.3534 40.1406C58.6021 35.3937 54.4466 31.8089 49.3639 30.8673C49.0899 31.1949 48.888 31.5925 48.7891 32.0025C48.546 32.9997 48.7479 34.0463 48.8921 35.0641C49.0363 36.0839 49.1146 37.1697 48.6552 38.0885C48.2163 38.9642 47.3448 39.5699 46.9163 40.4496C46.2385 41.8403 46.8256 43.4906 47.4149 44.9307C47.7795 45.8207 48.2369 46.8035 49.1455 47.1372C50.153 47.506 51.2573 46.8921 51.9948 46.1298C52.922 45.1718 53.5586 43.9397 53.7996 42.6314C53.9047 42.0649 53.948 41.4571 54.2838 40.9894C54.7391 40.3569 55.6127 40.1591 56.3997 40.2147C57.1867 40.2704 57.947 40.5279 58.7319 40.598C59.3088 40.6515 59.9825 40.5279 60.3534 40.1406Z" fill="#FFAA71"/>
<path d="M46.9699 58.6912C48.3441 58.6912 49.6647 58.5305 50.9091 58.2256C50.8081 57.4014 50.4764 56.4764 50.2807 55.8315C49.8707 54.4779 48.7726 53.2274 47.3572 53.0605C46.4569 52.9554 45.5751 53.2892 44.6953 53.4931C43.8156 53.6971 42.7937 53.7445 42.0953 53.1676C40.7829 52.086 41.4051 49.5312 39.8825 48.7669C38.7226 48.1818 37.4102 49.2345 36.7221 50.3203C36.1267 51.2598 35.5724 52.3785 34.6206 52.8709C37.3072 56.5052 41.8892 58.6912 46.9678 58.6912H46.9699Z" fill="#FFAA71"/>
<path d="M61.1197 45.1777C61.1135 48.0436 60.2811 50.8723 58.5526 53.1757C56.8899 55.3946 54.498 56.9872 51.867 57.8216C49.0218 58.724 45.9005 58.792 43.0017 58.0956C40.2409 57.4301 37.6491 56.0333 35.696 53.9565C33.7305 51.8633 32.5355 49.1479 32.3068 46.2862C32.0678 43.2988 32.793 40.2619 34.3485 37.701C35.8484 35.2308 38.0859 33.2405 40.7148 32.0394C43.4714 30.7806 46.6216 30.4324 49.5904 31.0402C52.4459 31.6253 55.0872 33.0881 57.1063 35.1916C59.1398 37.3116 60.4913 40.0332 60.9487 42.9341C61.0661 43.6758 61.1197 44.4257 61.1217 45.1777C61.1217 45.3425 61.3793 45.3446 61.3793 45.1777C61.371 42.1388 60.4295 39.1453 58.6638 36.6688C56.9497 34.2665 54.5268 32.4082 51.7578 31.3883C48.8652 30.3232 45.6429 30.2058 42.6782 31.0463C39.8227 31.856 37.2453 33.5475 35.3581 35.8385C33.4503 38.1563 32.2862 41.0304 32.0514 44.026C31.8185 47.0031 32.5231 50.0152 34.2023 52.4979C35.8093 54.8754 38.1827 56.6493 40.8446 57.6897C43.696 58.8043 46.8791 59.0907 49.8912 58.5695C52.7035 58.0812 55.388 56.8203 57.4442 54.8218C59.4859 52.8378 60.7921 50.2048 61.2124 47.3946C61.3216 46.6611 61.3751 45.9194 61.3772 45.1777C61.3772 45.0129 61.1197 45.0108 61.1197 45.1777Z" fill="#421B36"/>
<path d="M32.1256 44.9061H60.9755C61.1404 44.9061 61.1424 44.6486 60.9755 44.6486H32.1256C31.9608 44.6486 31.9587 44.9061 32.1256 44.9061Z" fill="#421B36"/>
<path d="M35.245 36.5252H58.0522C58.217 36.5252 58.219 36.2677 58.0522 36.2677H35.245C35.0802 36.2677 35.0781 36.5252 35.245 36.5252Z" fill="#421B36"/>
<path d="M35.245 53.4471H58.6064C58.7712 53.4471 58.7733 53.1896 58.6064 53.1896H35.245C35.0802 53.1896 35.0781 53.4471 35.245 53.4471Z" fill="#421B36"/>
<path d="M44.7469 30.7563C41.197 33.3048 38.6237 37.1802 37.8037 41.4882C36.9982 45.72 38.0448 50.0898 40.4697 53.6253C41.8542 55.6423 43.6487 57.3605 45.7234 58.6564C45.8635 58.745 45.9933 58.5225 45.8532 58.4339C42.258 56.1862 39.5055 52.626 38.3559 48.5323C37.2063 44.4344 37.8697 40.0481 39.9876 36.3767C41.2114 34.2546 42.8864 32.4066 44.8767 30.9788C45.0106 30.884 44.8808 30.6594 44.7469 30.7563Z" fill="#421B36"/>
<path d="M47.9711 30.7311C51.6692 33.1931 54.4918 37.0128 55.3963 41.3971C56.2678 45.6268 55.0893 49.9637 52.5531 53.4126C51.0491 55.4584 49.1042 57.1602 46.91 58.4314C46.7658 58.5138 46.8956 58.7363 47.0398 58.6539C50.9111 56.4103 54.0344 52.7904 55.3283 48.47C56.5912 44.2485 55.8125 39.7283 53.4926 36.0136C52.1184 33.8132 50.258 31.9425 48.1009 30.5065C47.9628 30.4138 47.833 30.6384 47.9711 30.729V30.7311Z" fill="#421B36"/>
<path d="M46.1294 30.7163V58.6742C46.1294 58.839 46.3868 58.841 46.3868 58.6742V30.7163C46.3868 30.5515 46.1294 30.5494 46.1294 30.7163Z" fill="#421B36"/>
<path d="M88.5995 38.1076C87.8413 45.3679 81.4689 48.7303 73.6605 47.9144C65.8521 47.0986 59.5642 42.4156 60.3223 35.1531C61.0805 27.8928 68.0257 22.6679 75.8341 23.4817C83.6425 24.2976 89.3577 30.8451 88.5995 38.1055V38.1076Z" fill="#FFEDED"/>
<path d="M88.4719 38.1078C88.202 40.6296 87.1595 43.0133 85.2785 44.746C83.4202 46.456 80.9725 47.379 78.5002 47.7313C75.6241 48.1413 72.6099 47.857 69.8306 47.035C67.2882 46.283 64.8324 44.9974 63.0214 43.0278C61.2929 41.1467 60.3513 38.7115 60.3925 36.1547C60.4358 33.4145 61.468 30.728 63.1986 28.6121C64.9354 26.492 67.3192 24.951 69.9378 24.1598C72.7562 23.3089 75.8157 23.3275 78.6321 24.1763C81.3084 24.9839 83.7436 26.5539 85.5381 28.7027C87.2749 30.7815 88.3627 33.3898 88.5193 36.1011C88.5585 36.7707 88.5399 37.4424 88.4719 38.1099C88.4554 38.2747 88.713 38.2727 88.7295 38.1099C89.0117 35.3265 88.3442 32.5142 86.8793 30.1325C85.4062 27.7385 83.1935 25.8348 80.6429 24.6646C77.9172 23.4161 74.835 22.9958 71.8744 23.4573C69.0827 23.892 66.4188 25.1323 64.3318 27.0442C62.2859 28.917 60.8437 31.4223 60.339 34.1562C59.8548 36.7769 60.2524 39.4903 61.707 41.7504C63.1409 43.9755 65.3784 45.5639 67.791 46.5817C70.5229 47.7355 73.5638 48.2485 76.5244 48.1578C79.176 48.0754 81.8852 47.4532 84.1206 45.976C86.218 44.5894 87.7137 42.5003 88.371 40.0733C88.5461 39.4305 88.6594 38.7733 88.7315 38.1099C88.7501 37.9451 88.4905 37.9471 88.474 38.1099L88.4719 38.1078Z" fill="#421B36"/>
<path d="M65.7433 15.6951C66.1862 15.3531 66.9238 15.3819 67.2328 15.8496C66.9794 14.873 67.0227 13.7914 67.5069 12.9055C67.989 12.0195 68.9532 11.3706 69.9606 11.4118C70.9681 11.453 71.9303 12.2771 71.99 13.2846C72.6266 12.8931 73.5599 13.1115 73.9555 13.744C74.3511 14.3765 74.1409 15.3119 73.5105 15.7136L69.4909 19.5045C68.6503 20.0381 67.5233 20.0814 66.6457 19.6137C65.7659 19.1481 65.1705 18.1901 65.1417 17.1949C65.1252 16.6345 65.3024 16.035 65.7453 15.693L65.7433 15.6951Z" fill="#421B36"/>
<path d="M72.4926 17.2176C72.1197 17.1991 71.7963 16.8942 71.7448 16.5645C71.6933 16.237 71.8828 15.9094 72.1712 15.7136C72.4597 15.5179 72.8388 15.4396 73.2117 15.4376C73.7123 15.4335 74.2748 15.6003 74.5117 16C74.6188 16.1813 74.6415 16.4141 74.5117 16.5728C74.3963 16.7129 74.1965 16.7685 74.0069 16.818C73.5496 16.9354 73.0942 17.0549 72.6369 17.1723" fill="#FF5741"/>
<path d="M70.9062 17.9087C70.043 18.4856 69.429 19.421 69.2436 20.4408C68.1063 19.5013 66.3304 19.4436 65.1333 20.3069C63.9363 21.1701 63.4316 22.874 63.9631 24.2502C62.5971 23.1583 60.506 23.0779 59.0782 24.0854C57.6504 25.0929 57.0262 27.1161 57.669 28.7416C58.3118 30.3672 60.1743 31.42 61.8925 31.1027C61.7483 32.6932 62.8485 34.3085 64.3793 34.7576C65.9121 35.2067 67.7107 34.4403 68.4483 33.0249C69.0417 34.2652 70.5168 34.9616 71.8848 34.8009C73.2508 34.6381 74.4622 33.7131 75.1442 32.5181C75.8261 31.3231 76.0157 29.8913 75.8673 28.5232L76.8212 17.0002C74.1759 15.9247 71.7695 17.336 70.9062 17.9108V17.9087Z" fill="#421B36"/>
<path d="M75.8982 17.2537C76.6997 16.1412 77.9997 15.3768 79.3698 15.3212C80.7398 15.2656 82.1388 15.962 82.8372 17.1404C83.5356 18.3189 83.4491 19.9424 82.5549 20.9808C83.7787 20.5069 85.3054 21.024 85.9935 22.1407C86.6817 23.2594 86.4509 24.8541 85.4764 25.7318C86.3664 25.6679 87.2256 26.1397 87.856 26.7701C88.8676 27.7817 89.4177 29.2672 89.2034 30.6805C88.9892 32.0959 87.9755 33.3856 86.6178 33.8327C85.2601 34.2819 83.6222 33.808 82.7877 32.644C82.8578 33.4166 82.2974 34.1665 81.5681 34.4343C80.8387 34.7022 79.9961 34.5353 79.343 34.1191C78.6878 33.7029 78.2037 33.0581 77.8472 32.3699C77.4455 33.4104 76.0486 33.8142 75.0247 33.3712C74.0007 32.9283 73.36 31.8569 73.1436 30.7629C72.9252 29.6689 73.0653 28.5399 73.2054 27.4335" fill="#421B36"/>
<path d="M77.6143 31.6689C77.6143 31.6689 72.2906 31.4752 72.0227 32.0645C71.7549 32.6537 75.0905 36.7001 77.5319 36.3828C79.9733 36.0634 77.6143 31.6689 77.6143 31.6689Z" fill="#CC8770"/>
<path d="M71.6848 20.2147C73.2382 16.7803 78.0057 16.2405 80.2946 19.2382C81.0178 20.1859 81.6276 21.5189 81.8501 23.402C82.4847 28.7958 78.1107 29.0986 78.1107 29.0986L76.6273 34.3894L72.8035 33.7322L72.9044 28.0705C72.9044 28.0705 71.5323 24.327 71.3716 21.8156C71.3366 21.2572 71.4602 20.7174 71.6868 20.2147H71.6848Z" fill="#CC8770"/>
<path d="M78.8997 21.6906C78.9409 21.8802 78.8359 22.0635 78.665 22.1006C78.4941 22.1377 78.3232 22.0141 78.2799 21.8245C78.2388 21.635 78.3438 21.4516 78.5147 21.4145C78.6856 21.3774 78.8565 21.5011 78.8997 21.6906Z" fill="#421B36"/>
<path d="M75.669 22.3915C75.7102 22.5811 75.6052 22.7644 75.4343 22.8015C75.2634 22.8386 75.0925 22.715 75.0492 22.5255C75.008 22.3359 75.1131 22.1525 75.284 22.1155C75.4549 22.0784 75.6258 22.202 75.669 22.3915Z" fill="#421B36"/>
<path d="M73.879 20.7813C74.1613 20.5197 74.5837 20.3281 74.9504 20.2251C75.2903 20.1282 75.6241 20.1632 75.9682 20.1262C76.1659 20.1035 76.1556 19.8109 75.9867 19.7553C75.1399 19.4689 74.2643 20.0211 73.7369 20.6268C73.6504 20.7257 73.7781 20.8761 73.879 20.7813Z" fill="#421B36"/>
<path d="M72.3277 31.877C73.3208 31.5433 73.875 30.8201 73.7163 29.2337C73.5577 27.6473 72.9087 25.1214 73.1209 23.294C73.3373 21.4356 74.6167 18.2937 75.5974 17.3295L75.5685 17.1976C74.0501 17.0122 72.4369 17.2059 71.2523 18.1763C70.5847 18.7243 69.9728 19.3588 69.5711 20.1232C69.2332 20.7639 69.054 21.4768 68.8768 22.1794C68.5492 23.4835 64.4863 35.2002 72.7995 33.7333" fill="#421B36"/>
<g opacity="0.2">
<path d="M76.4524 23.233C76.5142 23.5132 76.1227 23.8387 75.5809 23.9561C75.039 24.0756 74.5487 23.9438 74.4869 23.6615C74.4251 23.3813 74.8165 23.0558 75.3584 22.9384C75.9002 22.8189 76.3906 22.9507 76.4524 23.233Z" fill="#421B36"/>
</g>
<g opacity="0.2">
<path d="M80.9768 22.2427C81.0386 22.5229 80.6472 22.8485 80.1053 22.9659C79.5635 23.0854 79.0731 22.9535 79.0113 22.6713C78.9495 22.3911 79.3409 22.0656 79.8828 21.9481C80.4246 21.8286 80.915 21.9605 80.9768 22.2427Z" fill="#421B36"/>
</g>
<path d="M70.9886 24.415C70.2798 24.1945 69.8987 24.4541 69.6803 24.7055C69.4619 24.9568 69.3671 25.2947 69.3568 25.6264C69.3424 26.1786 69.5752 26.7513 70.0264 27.0686C70.4776 27.3859 71.1493 27.3941 71.5593 27.0254L70.9886 24.415Z" fill="#CC8770"/>
<path d="M70.255 26.0176C70.3312 25.9393 70.5351 25.8652 70.638 25.8425C70.811 25.8054 70.9366 25.8672 71.0787 25.9538C71.2455 26.0547 71.4411 25.8363 71.3031 25.688C71.1343 25.5087 70.8563 25.4407 70.6195 25.4984C70.5063 25.5252 70.3868 25.587 70.3065 25.6736C70.2118 25.7766 70.2283 25.859 70.1994 25.9847C70.1933 26.0135 70.2283 26.0444 70.253 26.0176H70.255Z" fill="#421B36"/>
<path d="M79.1843 19.0704C78.4652 18.5409 77.4804 18.8788 77.2167 19.7111C76.8459 20.8814 77.705 22.4595 78.5332 23.2424C78.7228 23.4217 78.9865 23.1744 78.8299 22.9705C78.3251 22.305 77.8142 21.6334 77.6123 20.8051C77.4722 20.2283 77.4681 19.5216 78.1212 19.2435C78.3931 19.1281 78.834 19.1404 79.1183 19.2167C79.2069 19.2393 79.2605 19.126 79.1863 19.0725L79.1843 19.0704Z" fill="#421B36"/>
<path d="M75.995 29.0838C76.9592 29.5968 78.0965 29.6628 79.1389 29.3475C79.345 29.2857 79.2832 28.9726 79.0668 29.0179C78.0305 29.2363 77.0478 29.2198 76.0053 29.055C75.9909 29.0529 75.9826 29.0756 75.997 29.0838H75.995Z" fill="#421B36"/>
<path d="M76.0152 16.9892C75.8669 16.3484 75.6013 15.6995 75.1936 15.1782C75.0598 15.0072 74.7735 15.2297 74.8909 15.411C75.241 15.9446 75.5684 16.4515 75.8175 17.0448C75.8669 17.1622 76.044 17.1231 76.0131 16.9912L76.0152 16.9892Z" fill="#421B36"/>
<path d="M75.855 17.0666C76.3986 16.0859 76.3986 14.9218 76.2709 13.834C76.2421 13.5909 75.8653 13.5765 75.8797 13.834C75.9374 14.9424 75.9888 15.9417 75.8035 17.046C75.7994 17.0769 75.8385 17.0995 75.8571 17.0686L75.855 17.0666Z" fill="#421B36"/>
<path d="M76.8542 23.9773C77.2477 24.649 78.2119 24.9168 78.8733 24.4594C79.0216 24.3585 78.9351 24.0783 78.7414 24.1483C78.0759 24.3914 77.5238 24.3667 76.9531 23.899C76.8995 23.8537 76.813 23.9093 76.8521 23.9773H76.8542Z" fill="#421B36"/>
<path d="M71.7775 39.9713C71.8764 39.6396 72.3915 38.2365 72.2143 35.6097C72.0371 32.9808 69.4391 30.3828 68.1741 30.9493C68.1741 30.9493 65.2423 31.347 65.5431 35.3192C65.8439 39.2914 66.907 45.9769 66.907 45.9769C68.4193 46.8567 70.1664 47.4068 72.103 47.6952C72.3297 46.6424 71.6807 40.303 71.7775 39.9713Z" fill="#CC8770"/>
<path d="M83.5192 40.3943C83.5192 40.3943 88.4206 46.707 91.5934 47.6506C94.7662 48.5942 95.1679 46.8079 95.4358 45.8066C95.7036 44.8054 95.9611 37.5285 95.6315 36.7353C95.3019 35.9421 92.9284 36.9846 92.9284 36.9846L91.5274 41.3317C91.5274 41.3317 86.3273 34.5576 85.4538 34.0198C84.5823 33.4821 82.8311 36.2676 82.8311 36.2676L83.5192 40.3964V40.3943Z" fill="#CC8770"/>
<path d="M91.3502 45.4025C91.2431 44.051 91.379 42.7736 91.7641 41.4777C91.83 41.2532 91.4573 41.1357 91.3728 41.3541C90.8622 42.6686 90.8148 44.0881 91.2637 45.4231C91.2802 45.4705 91.3543 45.452 91.3502 45.4025Z" fill="#421B36"/>
<path d="M97.6853 31.3962L97.1499 34.021L98.3092 33.6234L98.4513 32.6406L97.6853 31.3962Z" fill="#CC8770"/>
<path d="M98.349 29.0263C98.349 29.0263 96.8182 36.4948 95.9014 37.049C94.9845 37.6032 91.513 37.6485 91.4182 37.1252C91.3234 36.6019 92.8748 29.2818 93.4867 28.9974C94.0986 28.7131 98.5385 28.093 98.349 29.0263Z" fill="#421B36"/>
<path d="M97.3578 31.3305C97.3578 31.3305 96.8325 30.8875 97.1374 30.4549C97.4444 30.0243 98.2087 30.1335 98.664 31.1018C99.1194 32.0701 99.346 32.9272 98.3674 33.4876C98.3674 33.4876 98.5384 33.8811 98.0274 34.3673C98.0274 34.3673 98.2252 34.9442 97.739 35.5067C97.739 35.5067 97.6998 36.543 97.1209 36.8644C96.542 37.1858 95.2914 37.0395 95.3264 36.5739C95.3614 36.1083 96.5399 35.7498 96.5399 35.7498C96.5399 35.7498 95.5695 35.7209 95.3862 35.3418C95.2028 34.9607 95.7282 34.4415 95.7282 34.4415C95.7282 34.4415 95.3573 34.2169 95.4624 33.7678C95.5654 33.3166 96.0866 33.0694 96.8325 33.0096C97.5783 32.9499 98.1799 33.0776 98.1799 33.0776C98.1799 33.0776 97.7699 31.4932 97.3558 31.3284L97.3578 31.3305Z" fill="#CC8770"/>
<path d="M98.3077 33.3323C97.7206 33.0768 97.0757 32.9862 96.4411 33.0645C96.301 33.0809 96.2804 32.8646 96.4205 32.8461C97.0942 32.7636 97.7782 32.8646 98.4004 33.1345C98.5302 33.1901 98.4375 33.39 98.3077 33.3323Z" fill="#421B36"/>
<path d="M98.0007 34.511C97.2322 34.4307 96.4596 34.4307 95.6911 34.5048C95.551 34.5193 95.5304 34.3009 95.6705 34.2865C96.4576 34.2082 97.2528 34.2123 98.0398 34.2947C98.1799 34.3091 98.1408 34.5254 98.0007 34.511Z" fill="#421B36"/>
<path d="M97.6671 35.6353C97.0841 35.8558 96.4516 35.9238 95.8356 35.8352C95.6955 35.8146 95.7346 35.6003 95.8747 35.6188C96.4537 35.7013 97.0429 35.6374 97.5909 35.4293C97.7228 35.3799 97.8011 35.5838 97.6692 35.6353H97.6671Z" fill="#421B36"/>
<path d="M97.8995 33.1196C97.8521 32.5633 97.6483 32.0317 97.3106 31.5867C97.2241 31.4734 97.4033 31.3477 97.4877 31.459C97.848 31.9328 98.0684 32.5056 98.1178 33.099C98.1301 33.2391 97.9119 33.2597 97.8995 33.1196Z" fill="#421B36"/>
<path d="M98.2062 30.6601C98.0209 30.7858 97.7882 30.8146 97.5761 30.7405C97.3908 30.6745 97.2405 30.518 97.1705 30.3346C97.1211 30.2027 97.3249 30.1265 97.3744 30.2563C97.4238 30.384 97.5226 30.485 97.6565 30.5365C97.7903 30.588 97.955 30.5633 98.0786 30.4809C98.1959 30.4026 98.3236 30.5798 98.2062 30.6581V30.6601Z" fill="#421B36"/>
<path d="M96.597 33.1115C96.5723 33.3649 96.422 33.61 96.2037 33.744C95.9587 33.8923 95.6478 33.9067 95.3883 33.781C95.2627 33.7192 95.3533 33.5214 95.481 33.5833C95.6704 33.676 95.9093 33.6739 96.0884 33.5585C96.2573 33.4514 96.3623 33.2722 96.3808 33.0744C96.387 33.0146 96.4529 32.9755 96.5085 32.9858C96.5702 32.9961 96.6032 33.0538 96.597 33.1135V33.1115Z" fill="#421B36"/>
<path d="M96.2696 34.3609C96.2861 34.8307 95.899 35.2716 95.4254 35.2963C95.3657 35.3004 95.3122 35.2571 95.306 35.1974C95.2998 35.1397 95.3451 35.082 95.4048 35.0779C95.5819 35.0676 95.7446 34.9852 95.864 34.8554C95.932 34.7812 95.969 34.7215 96.0081 34.6308C96.0267 34.5855 96.0329 34.5649 96.0431 34.5113C96.0473 34.4887 96.0514 34.466 96.0534 34.4433C96.0534 34.4413 96.0534 34.4083 96.0534 34.4269C96.0534 34.4124 96.0534 34.396 96.0534 34.3815C96.0514 34.3218 96.0905 34.2682 96.1523 34.262C96.2079 34.2559 96.2696 34.3012 96.2717 34.3609H96.2696Z" fill="#421B36"/>
<path d="M96.0576 36.1729C96.1317 36.5397 95.8188 36.927 95.4481 36.9414C95.3905 36.9435 95.3328 36.9043 95.3287 36.8425C95.3266 36.7848 95.3658 36.7251 95.4275 36.723C95.4481 36.723 95.4666 36.721 95.4872 36.7169L95.5119 36.7127C95.4975 36.7169 95.4955 36.7169 95.5078 36.7127C95.5099 36.7127 95.514 36.7127 95.5161 36.7107C95.5346 36.7045 95.5531 36.6983 95.5717 36.6921C95.5799 36.688 95.5861 36.6859 95.5943 36.6818C95.6046 36.6777 95.6149 36.6715 95.5984 36.6818C95.6293 36.6633 95.6602 36.6427 95.687 36.62C95.6911 36.6159 95.6952 36.6118 95.6993 36.6097C95.689 36.62 95.689 36.62 95.6993 36.6097C95.7055 36.6035 95.7117 36.5974 95.7179 36.5912C95.7302 36.5788 95.7426 36.5644 95.7529 36.55C95.7632 36.5355 95.7755 36.5211 95.7838 36.5046C95.7693 36.5273 95.7838 36.5046 95.7858 36.4985C95.7899 36.4902 95.7961 36.482 95.8002 36.4717C95.8085 36.4552 95.8167 36.4387 95.8229 36.4222C95.8249 36.414 95.8291 36.4057 95.8311 36.3996C95.8208 36.4264 95.8311 36.3975 95.8332 36.3913C95.8373 36.3748 95.8414 36.3563 95.8435 36.3378C95.8435 36.3295 95.8455 36.3213 95.8476 36.313C95.8476 36.3089 95.8496 36.276 95.8476 36.2945C95.8476 36.313 95.8476 36.278 95.8476 36.276C95.8476 36.2677 95.8476 36.2595 95.8476 36.2512C95.8476 36.2306 95.8435 36.2121 95.8393 36.1935C95.827 36.1379 95.8846 36.0761 95.9382 36.074C96.002 36.072 96.0453 36.1132 96.0576 36.1729Z" fill="#421B36"/>
<path d="M95.2337 30.8105C95.0814 31.0907 95.1411 31.4162 95.3676 31.5378C95.592 31.6593 95.8988 31.5316 96.0492 31.2514C96.2015 30.9712 96.1418 30.6457 95.9153 30.5241C95.6909 30.4026 95.3841 30.5303 95.2337 30.8105Z" fill="white"/>
<path d="M72.1011 47.6953C72.4164 48.0064 81.1148 49.6711 85.0664 45.0643C85.0664 45.0643 84.4937 42.9402 84.4751 42.7362C84.4566 42.5322 85.5259 38.1398 83.8323 36.3638C83.8323 36.3638 87.0711 35.6427 86.4942 34.594C85.9152 33.5454 81.0139 29.2188 77.4702 31.6891C77.4702 31.6891 79.2214 35.1029 77.8163 35.4511C75.1586 36.1104 72.3298 31.8765 72.3298 31.8765C72.3298 31.8765 66.0975 28.337 65.2322 34.4745C64.3669 40.6141 64.6821 40.7851 64.985 41.0921C65.2878 41.3991 71.4604 41.8812 71.4604 41.8812C71.4604 41.8812 71.7097 47.3079 72.1011 47.6932V47.6953Z" fill="#FF5741"/>
<path d="M76.9305 38.8315C76.9305 38.8315 77.7875 45.3769 78.7559 45.7004C79.7242 46.0239 82.4211 45.0494 82.419 44.7156C82.419 44.3818 81.6629 38.1948 81.086 37.892C80.5092 37.5871 76.8707 38.4132 76.9284 38.8315H76.9305Z" fill="#FFEDED"/>
<path d="M66.4973 45.9934C67.717 46.6135 69.0088 47.073 70.3335 47.4108C71.7118 47.7631 73.1252 48.0351 74.5406 48.1814C77.3343 48.4719 80.1507 48.1505 82.6786 46.8813C83.9416 46.2468 85.1365 45.4103 86.0657 44.3369C86.1728 44.2112 85.9915 44.0299 85.8844 44.1556C84.2547 46.0387 81.8133 47.2687 79.3966 47.7549C76.5741 48.3215 73.6608 47.9362 70.8877 47.2831C69.4167 46.9349 67.9807 46.4569 66.6291 45.7709C66.4808 45.6967 66.351 45.9171 66.4993 45.9934H66.4973Z" fill="#421B36"/>
<path d="M64.0744 24.1751C63.72 22.9018 64.1691 21.4535 65.2137 20.6314C66.2994 19.7764 67.892 19.727 69.054 20.4522C69.1117 20.4893 69.1962 20.4645 69.2312 20.4068C70.0718 18.909 71.516 17.4957 73.1643 16.9394C73.3208 16.8858 73.2529 16.6386 73.0963 16.6901C71.3821 17.2691 69.8823 18.7195 69.0087 20.277C69.0664 20.2626 69.1261 20.2461 69.1859 20.2317C67.9353 19.4509 66.2253 19.5147 65.0592 20.4295C63.9343 21.3134 63.446 22.873 63.8292 24.2451C63.8745 24.4038 64.1217 24.3378 64.0785 24.1771L64.0744 24.1751Z" fill="#FF5741"/>
<path d="M84.3844 42.493C84.7717 41.1868 85.1034 39.8085 84.8809 38.4425C84.7037 37.3568 84.166 36.3205 83.243 35.6921C83.105 35.5994 82.9772 35.8219 83.1132 35.9146C84.0074 36.5244 84.5018 37.5566 84.6481 38.6094C84.8273 39.8991 84.5018 41.1971 84.1371 42.425C84.0898 42.5837 84.3391 42.6517 84.3864 42.493H84.3844Z" fill="#421B36"/>
<path d="M83.2265 35.8497C83.4406 35.5757 83.6548 35.3017 83.8689 35.0277C83.9101 34.9741 83.9245 34.8958 83.8689 34.8464C83.8236 34.8031 83.731 34.7887 83.6877 34.8464C83.4736 35.1204 83.2594 35.3944 83.0453 35.6684C83.0041 35.722 82.9897 35.8003 83.0453 35.8497C83.0906 35.893 83.1832 35.9054 83.2265 35.8497Z" fill="#421B36"/>
<path d="M71.7032 41.9828C71.6167 40.0462 71.5302 38.1095 71.4417 36.1749C71.4334 36.0101 71.176 36.008 71.1843 36.1749C71.2708 38.1116 71.3572 40.0482 71.4458 41.9828C71.454 42.1476 71.7114 42.1497 71.7032 41.9828Z" fill="#421B36"/>
<path d="M57.8935 77.0393C56.7851 85.9335 48.8798 89.9036 39.3161 88.7107C29.7523 87.5178 22.1478 81.6131 23.2583 72.7189C24.3688 63.8247 33.0199 57.5821 42.5857 58.775C52.1515 59.9679 59.004 68.1451 57.8956 77.0393H57.8935Z" fill="#FFEDED"/>
<path d="M57.766 77.0385C57.3724 80.1454 56.0188 83.0628 53.6475 85.1478C51.3111 87.2018 48.2661 88.2752 45.2107 88.6358C41.6814 89.054 38.008 88.6358 34.6271 87.5603C31.5161 86.5714 28.5225 84.9273 26.3448 82.4529C24.2742 80.1022 23.1782 77.09 23.2894 73.9564C23.4069 70.5734 24.7522 67.2832 26.9443 64.7161C29.1303 62.1593 32.0971 60.3298 35.3296 59.4253C38.8074 58.4508 42.5571 58.5497 45.9936 59.6561C49.2715 60.7109 52.2341 62.7053 54.3892 65.396C56.468 67.9898 57.7392 71.21 57.8731 74.5394C57.9061 75.3738 57.869 76.2083 57.768 77.0365C57.7474 77.2013 58.0049 77.1992 58.0256 77.0365C58.4417 73.6412 57.6959 70.1881 55.9694 67.2399C54.2202 64.2525 51.5419 61.8544 48.4309 60.3545C45.1303 58.764 41.3642 58.1747 37.734 58.6671C34.2851 59.1348 30.9783 60.5955 28.3659 62.9051C25.8235 65.1508 24.0105 68.1773 23.3286 71.5067C22.6755 74.7001 23.0978 78.0254 24.8202 80.8233C26.5261 83.5943 29.2436 85.6031 32.1857 86.9072C35.5068 88.3803 39.2153 89.0829 42.8434 89.0396C46.0863 89.0025 49.4074 88.3062 52.1785 86.559C54.7786 84.9191 56.6596 82.4035 57.529 79.4573C57.7618 78.6641 57.9225 77.8544 58.0256 77.0344C58.0462 76.8696 57.7886 76.8717 57.768 77.0344L57.766 77.0385Z" fill="#421B36"/>
<path d="M43.6861 72.6491C43.6861 72.6491 32.3629 67.5129 27.822 69.0334C23.2812 70.5559 24.334 79.8457 27.4677 81.1477C30.6013 82.4478 33.0592 81.0983 33.0592 81.0983L43.684 72.6491H43.6861Z" fill="#421B36"/>
<path d="M50.3449 86.0496C50.3449 86.0496 45.9997 88.3757 40.0208 88.423C34.0419 88.4704 30.6137 86.0249 30.6137 86.0249C30.2758 83.909 30.6713 79.9759 32.231 77.9507C34.2995 75.2662 37.2766 74.0321 37.2766 74.0321C40.472 72.3138 44.2217 72.2767 46.418 73.1874C48.6142 74.098 49.8937 78.7583 50.2872 81.4387C50.8743 85.446 50.3449 86.0496 50.3449 86.0496Z" fill="#421B36"/>
<path d="M38.9598 70.2357L33.6011 63.6696L35.2678 59.6603C39.2174 57.3281 42.0647 59.9034 42.0647 59.9034C42.9382 59.4749 43.8138 59.0464 44.6874 58.6178C44.7945 58.5663 44.9099 58.5127 45.0294 58.5375C45.256 58.589 45.324 58.8795 45.3281 59.1102C45.3405 59.8911 45.153 60.6678 44.7863 61.3477L45.0809 61.7659C46.1193 62.864 46.6034 64.4587 46.3438 65.9194C46.0842 67.3801 44.3722 69.3724 43.0309 69.9802L41.9081 75.2401L38.0059 73.3529L38.9557 70.2336L38.9598 70.2357Z" fill="#FFBFBF"/>
<path d="M30.692 64.0081C30.692 64.0081 29.6537 61.5419 31.9323 59.6115C31.6274 59.2736 31.5512 58.6988 31.9138 58.433C32.2146 58.2125 32.6452 58.3053 32.9892 58.161C33.4178 57.9818 33.6073 57.4935 33.8937 57.1268C34.2645 56.655 34.8517 56.3604 35.4513 56.348C36.0508 56.3356 36.6503 56.6035 37.0397 57.0588C37.9112 56.0596 39.5017 55.7773 40.6637 56.4139C41.2241 56.7209 41.7021 57.271 41.7206 57.9117C41.7392 58.5504 41.1376 59.1953 40.5133 59.0573L38.8074 59.2921C38.4634 59.4137 38.0266 59.5455 37.4703 59.6815C37.4703 59.6815 37.048 60.8147 35.6264 61.3277C35.6264 61.3277 39.4131 63.1489 39.1577 63.936C38.9022 64.723 38.0019 64.6859 38.0019 64.6859C38.0019 64.6859 39.3163 70.1044 39.2627 70.7555C39.2627 70.7555 36.0652 71.1304 33.7165 69.9025C31.3678 68.6746 29.2334 65.7057 30.692 64.006V64.0081Z" fill="#421B36"/>
<path d="M36.6194 66.6514C36.3351 66.2661 36.1765 65.7593 36.3145 65.2998C36.4546 64.8424 37.767 63.8803 38.5499 64.7229L39.17 67.187C38.8033 67.3621 37.9606 67.5002 37.5774 67.3704C37.1922 67.2406 36.8605 66.9769 36.6194 66.6514Z" fill="#FFBFBF"/>
<path d="M40.8138 60.9548C40.9497 61.101 40.9559 61.3174 40.8262 61.4369C40.6964 61.5564 40.4823 61.5358 40.3464 61.3874C40.2105 61.2391 40.2043 61.0248 40.334 60.9053C40.4638 60.7858 40.6779 60.8064 40.8138 60.9548Z" fill="#421B36"/>
<path d="M38.1442 61.195C38.2801 60.3688 38.7578 59.4417 39.6638 59.2521C39.8615 59.2109 39.9789 59.4932 39.8182 59.6106C39.5114 59.8372 39.1882 59.9815 38.9308 60.2781C38.6898 60.5542 38.4613 60.8983 38.3563 61.2465C38.3192 61.366 38.1215 61.3186 38.1421 61.195H38.1442Z" fill="#421B36"/>
<path d="M39.0875 65.7448C38.9618 65.7675 38.8444 65.8396 38.7105 65.8602C38.5436 65.8849 38.3767 65.9014 38.2099 65.9261C37.9008 65.9694 37.5773 66.0951 37.2683 66.1013C37.0334 66.1054 37.054 65.7943 37.2086 65.7036C37.4764 65.5491 37.9317 65.547 38.2325 65.5306C38.3973 65.5223 38.5766 65.512 38.7414 65.5367C38.8856 65.5573 38.9742 65.6294 39.0958 65.683C39.1267 65.6954 39.1225 65.7407 39.0896 65.7469L39.0875 65.7448Z" fill="#421B36"/>
<g opacity="0.2">
<path d="M39.5284 64.5252C39.7303 64.7436 40.268 64.5746 40.7254 64.1502C41.1849 63.7237 41.3909 63.2025 41.189 62.9841C40.9871 62.7657 40.4493 62.9346 39.992 63.3591C39.5325 63.7855 39.3265 64.3068 39.5284 64.5252Z" fill="#421B36"/>
</g>
<path d="M45.0892 68.4418C44.568 69.4122 43.1938 70.0756 42.1348 70.193C41.9927 70.2095 41.9247 69.9829 42.0709 69.9396C42.586 69.7872 43.0949 69.6553 43.5791 69.4122C44.123 69.1402 44.5597 68.7344 45.0769 68.4315C45.0831 68.4274 45.0934 68.4315 45.0892 68.4418Z" fill="#421B36"/>
<path d="M62.2738 79.4848C63.0217 79.6352 63.5532 80.3027 63.5408 81.065C63.4996 83.865 62.9763 90.3445 59.0474 90.944C54.0224 91.7105 49.8277 84.2708 49.8277 84.2708L46.2634 73.1268C48.8573 73.6481 53.1859 79.0295 57.0015 82.567C57.0015 82.567 56.4885 79.6888 58.6003 79.3076C59.8159 79.0892 61.2642 79.2809 62.2758 79.4848H62.2738Z" fill="#421B36"/>
<path d="M57.2358 81.1108C56.861 82.8435 56.6634 84.607 56.6448 86.3809C56.6448 86.5684 56.3524 86.5354 56.3545 86.348C56.371 84.5761 56.5686 82.8105 56.9455 81.0778C56.9846 80.8944 57.277 80.9253 57.2358 81.1108Z" fill="white"/>
<path d="M56.781 82.6662C56.1135 83.4821 55.5861 84.401 55.2173 85.3878C55.1514 85.565 54.8773 85.4579 54.9433 85.2807C55.3203 84.2712 55.8621 83.3276 56.5441 82.4932C56.6636 82.3469 56.9005 82.5179 56.781 82.6662Z" fill="white"/>
<path d="M50.413 86.4279C50.277 82.5691 49.6486 79.0481 48.3342 75.4117C48.2806 75.2654 48.4887 75.1665 48.5567 75.3107C50.1431 78.6875 50.8745 82.7153 50.4768 86.4259C50.4727 86.4609 50.415 86.465 50.413 86.4259V86.4279Z" fill="white"/>
<path d="M58.3019 69.6714C58.3019 69.6714 56.4827 68.8638 54.9416 70.0072C53.4005 71.1507 50.1144 77.5499 50.2257 77.5684C50.3369 77.587 51.8162 80.1149 51.8162 80.1149L52.4054 79.0868C52.4054 79.0868 52.9411 79.9707 53.9135 79.3135C54.886 78.6562 55.5411 76.4682 55.5411 76.4682C55.5411 76.4682 55.364 77.6096 56.0933 77.4572C56.8226 77.3047 57.2656 75.7986 56.9112 75.3866C56.9112 75.3866 57.7704 74.2431 56.9463 73.5859C56.9463 73.5859 57.7003 73.143 57.2161 72.5743C56.7299 72.0057 55.2919 71.7688 55.2919 71.7688C55.2919 71.7688 55.5061 71.2084 56.4271 70.9055C57.348 70.6047 57.8692 71.0168 58.3163 70.9302C58.7366 70.8499 59.1507 70.0752 58.2978 69.6714H58.3019Z" fill="#FFBFBF"/>
<path d="M57.0122 73.7412C56.4374 73.2612 55.6648 73.0675 54.9314 73.2241C54.7459 73.2633 54.7006 72.9728 54.886 72.9336C55.6875 72.7647 56.5549 72.9789 57.1853 73.5043C57.3295 73.6238 57.1585 73.8628 57.0122 73.7412Z" fill="#421B36"/>
<path d="M56.7937 75.4979C56.326 74.9087 55.4751 74.68 54.7767 74.9663C54.6016 75.0384 54.48 74.7706 54.6551 74.6985C55.4731 74.3647 56.4702 74.6182 57.0203 75.3104C57.1378 75.4587 56.9111 75.6442 56.7937 75.4958V75.4979Z" fill="#421B36"/>
<path d="M55.7674 76.0803C55.7139 76.3831 55.6603 76.6839 55.6068 76.9868C55.5944 77.063 55.5265 77.129 55.4441 77.1166C55.37 77.1042 55.3 77.0362 55.3144 76.9538C55.3679 76.651 55.4215 76.3502 55.475 76.0473C55.4874 75.9711 55.5553 75.9052 55.6377 75.9175C55.7118 75.9299 55.7818 75.9979 55.7674 76.0803Z" fill="#421B36"/>
<path d="M56.1676 72.1478C55.3558 71.9707 54.5091 72.0531 53.7509 72.393C53.5778 72.4692 53.4563 72.2035 53.6293 72.1252C54.4328 71.7667 55.3393 71.6699 56.2005 71.8573C56.3839 71.8965 56.353 72.1891 56.1676 72.1478Z" fill="#421B36"/>
<path d="M52.2838 82.4821C52.1581 82.6222 47.7162 88.9266 43.4205 90.3482C39.1269 91.7698 33.3396 85.4201 32.295 83.2733C31.2505 81.1265 31.8686 76.5073 34.5263 76.5568C37.1841 76.6062 41.8465 82.9065 41.8465 82.9065C41.8465 82.9065 49.1007 76.802 49.7064 76.9668C50.3121 77.1316 53.8743 80.7 52.2817 82.4821H52.2838Z" fill="#421B36"/>
<path d="M32.4288 83.2122C33.0262 84.4237 34.0152 85.4909 34.9567 86.4407C36.2423 87.7386 37.7113 88.9377 39.3739 89.7165C40.1177 90.0647 40.913 90.3284 41.7371 90.3923C42.588 90.4602 43.3729 90.2583 44.1414 89.906C45.8967 89.1005 47.4028 87.7778 48.7502 86.4159C49.8236 85.3322 50.8167 84.1682 51.7417 82.9588C51.9251 82.7178 52.1291 82.4788 52.298 82.2274C52.7059 81.6217 52.5349 80.845 52.2671 80.2207C51.956 79.4976 51.4821 78.8465 50.9629 78.2573C50.6024 77.8493 50.2068 77.4229 49.7371 77.1406C49.6547 77.0912 49.6691 77.1035 49.5578 77.153C49.4054 77.2189 49.2632 77.3054 49.1231 77.392C48.6637 77.6783 48.2249 78.0018 47.7901 78.3253C45.8267 79.786 43.9354 81.3497 42.0605 82.9197C42.0214 82.9526 41.9802 82.9877 41.941 83.0206C41.8751 83.0762 41.7906 83.0536 41.735 83C40.3423 81.665 38.9433 80.3299 37.4991 79.0484C37.1983 78.7826 36.8996 78.4921 36.5637 78.2717C36.4051 78.1687 36.5782 77.9318 36.7368 78.0348C37.0211 78.2202 37.2745 78.4592 37.5279 78.6838C37.9688 79.0711 38.3994 79.4667 38.83 79.8643C39.6892 80.6575 40.538 81.4589 41.3848 82.2645C41.5784 82.4479 41.77 82.6312 41.9616 82.8167C41.8936 82.8105 41.8236 82.8022 41.7556 82.796C43.5171 81.3127 45.3013 79.8499 47.135 78.4551C47.6418 78.0698 48.1527 77.6866 48.6843 77.3322C48.9501 77.155 49.2797 76.8851 49.6052 76.8295C49.9452 76.7718 50.3243 77.2004 50.5427 77.4043C51.103 77.9256 51.6078 78.5189 52.024 79.1617C52.434 79.7942 52.8069 80.5215 52.8357 81.29C52.8563 81.8339 52.6565 82.2439 52.3351 82.6621C51.5645 83.6675 50.7816 84.6585 49.9287 85.598C48.5916 87.0732 47.1267 88.4844 45.4291 89.5414C44.6771 90.009 43.8468 90.4479 42.9712 90.6209C42.1615 90.7817 41.325 90.691 40.5359 90.4705C38.7435 89.9678 37.1468 88.8306 35.7685 87.613C34.5653 86.5499 33.4198 85.3467 32.5441 83.9951C32.4061 83.7829 32.2763 83.5666 32.163 83.34C32.0785 83.171 32.3464 83.0495 32.4308 83.2184L32.4288 83.2122Z" fill="white"/>
<path d="M64.5256 73.1277C64.6122 73.2245 62.3685 79.8668 62.0327 80.4581C61.6969 81.0494 58.9238 81.2039 58.8496 80.1923C58.7754 79.1807 58.761 77.9631 58.761 77.9631L63.0196 71.5742L64.5236 73.1256L64.5256 73.1277Z" fill="#FFBFBF"/>
<path d="M64.097 67.1179C64.1176 67.1241 64.7151 67.328 64.6904 67.5835C64.5029 69.5057 63.2008 77.4316 61.8802 77.9013C60.3844 78.4329 56.441 79.1952 56.3215 78.3196C56.1835 77.308 57.7493 68.5312 58.592 67.9667C59.4346 67.4022 63.5387 66.9366 64.097 67.1179Z" fill="#421B36"/>
<path d="M60.7386 70.1123C60.6954 70.4831 60.8519 70.8045 61.0887 70.8313C61.3234 70.8581 61.5479 70.5799 61.5911 70.2091C61.6343 69.8382 61.4778 69.5168 61.241 69.4901C61.0063 69.4633 60.7819 69.7414 60.7386 70.1123Z" fill="white"/>
<path d="M63.8623 75.3397C63.8623 75.3397 60.4587 73.9593 60.4979 73.3062C60.537 72.6531 60.6792 72.274 62.1049 72.7994L62.5479 72.9807C62.5479 72.9807 61.1263 72.0103 61.0047 71.7549C60.8584 71.4499 60.6936 70.7185 61.6207 70.6794C61.6207 70.6794 61.0871 69.8038 61.5548 69.5854C62.0225 69.367 63.5162 70.1705 63.5162 70.1705C63.5162 70.1705 61.5775 69.0126 62.0719 68.1968C62.4119 67.6364 63.2113 68.0958 63.7346 68.582C64.3877 69.1878 64.9687 70.2694 65.1314 71.0667C65.2942 71.864 64.8698 71.895 64.8698 71.895C64.8698 71.895 65.5991 72.6305 64.7194 73.0425C64.9233 73.8543 64.6926 74.7505 63.8644 75.3459L63.8623 75.3397Z" fill="#FFBFBF"/>
<path d="M61.2682 72.2571C61.8286 72.4281 62.356 72.7 62.8525 73.009C63.3552 73.3201 63.8312 73.6766 64.2659 74.0763C64.4039 74.2019 64.2329 74.4409 64.0928 74.3132C63.2584 73.5468 62.2509 72.8628 61.161 72.529C60.9797 72.4734 61.0869 72.2014 61.2682 72.255V72.2571Z" fill="#421B36"/>
<path d="M61.4476 70.4913C62.6714 71.1217 63.9838 71.8264 64.8306 72.9471C64.9439 73.0975 64.7172 73.285 64.6039 73.1326C63.7881 72.053 62.521 71.371 61.3425 70.7633C61.1756 70.6788 61.2807 70.4027 61.4497 70.4892L61.4476 70.4913Z" fill="#421B36"/>
<path d="M64.8408 72.1066C64.4123 71.1568 63.6644 70.3615 62.7331 69.8876C62.5663 69.8032 62.6713 69.5292 62.8403 69.6136C63.8395 70.1225 64.6471 70.961 65.1086 71.985C65.1869 72.1581 64.9191 72.2796 64.8408 72.1066Z" fill="#421B36"/>
<path d="M63.0989 70.0446C62.8909 70.3206 62.5265 70.4649 62.1867 70.3866C61.8449 70.3062 61.5813 70.0301 61.5093 69.6881C61.4928 69.6098 61.5546 69.5316 61.6308 69.5213C61.7131 69.5089 61.7811 69.5645 61.7976 69.6428C61.8429 69.855 62.022 70.0466 62.2361 70.1002C62.4647 70.1579 62.718 70.0631 62.86 69.8736C62.9733 69.7232 63.2101 69.8942 63.0969 70.0466L63.0989 70.0446Z" fill="#421B36"/>
<path d="M62.4355 71.2364C62.3819 71.4651 62.1904 71.5701 61.9722 71.6052C61.7683 71.6381 61.5542 71.6402 61.3586 71.5722C61.1815 71.5104 61.025 71.3888 60.9385 71.2199C60.8479 71.0406 60.8582 70.8284 60.9611 70.6595C61.0023 70.5915 61.1053 70.5833 61.165 70.6265C61.2329 70.676 61.2391 70.7625 61.1979 70.8305C61.1506 70.9088 61.1609 71.0159 61.2082 71.1045C61.2577 71.1952 61.3585 71.2611 61.4636 71.2961C61.5912 71.3394 61.7292 71.3373 61.861 71.3208C61.933 71.3126 62.003 71.3023 62.0689 71.2714C62.0875 71.2632 62.1019 71.2529 62.1225 71.2322C62.1142 71.2405 62.139 71.2075 62.139 71.2075C62.1307 71.2219 62.1472 71.1828 62.1431 71.2013C62.1616 71.1251 62.2193 71.0633 62.3057 71.0715C62.3778 71.0798 62.454 71.156 62.4355 71.2343V71.2364Z" fill="#421B36"/>
<path d="M61.9327 72.8295C61.9265 73.0108 61.8112 73.1695 61.6567 73.2581C61.4858 73.359 61.2758 73.3631 61.0864 73.3178C60.9464 73.2849 60.8084 73.2333 60.6807 73.1654C60.5469 73.0932 60.4048 73.0026 60.3698 72.844C60.3533 72.7657 60.4172 72.6874 60.4913 72.6771C60.5737 72.6647 60.6416 72.7203 60.6581 72.7986C60.6498 72.7657 60.654 72.7945 60.6601 72.7986C60.6704 72.8089 60.6457 72.7863 60.6663 72.8048C60.6663 72.8048 60.691 72.8316 60.6828 72.8234C60.6725 72.8151 60.7013 72.8378 60.7034 72.8398C60.7446 72.8707 60.7837 72.8934 60.8084 72.9058C60.9052 72.9552 61.0081 72.9944 61.1111 73.0253C61.2264 73.0582 61.3623 73.0706 61.4756 73.0211C61.5723 72.9799 61.6341 72.8996 61.6362 72.7966C61.6382 72.7183 61.7226 72.6585 61.7988 72.6668C61.8832 72.675 61.9306 72.7492 61.9286 72.8295H61.9327Z" fill="#421B36"/>
<path d="M63.6078 68.6834C63.3422 68.8482 63.0086 68.8832 62.7121 68.7905C62.4444 68.706 62.2241 68.5123 62.0903 68.2692C62.0511 68.1992 62.0944 68.1065 62.1623 68.0756C62.2385 68.0406 62.3188 68.0797 62.3559 68.1477C62.4547 68.3249 62.6236 68.4567 62.8171 68.5185C63.0436 68.5906 63.2866 68.5412 63.4843 68.4176C63.5522 68.3764 63.649 68.4238 63.6778 68.4897C63.7149 68.57 63.6737 68.6421 63.6058 68.6834H63.6078Z" fill="#421B36"/>
<path d="M41.7616 63.1143C41.8255 62.9021 42.0501 62.8444 42.2417 62.8155C42.9916 62.7022 43.7416 62.591 44.4894 62.4777C44.5945 62.4612 44.6996 62.5127 44.7531 62.6033C44.8768 62.8135 45.0313 63.0937 45.0601 63.2853C45.0972 63.5263 45.0745 63.7818 44.9736 63.9858C44.8046 64.3278 44.4523 64.472 44.1165 64.5379C43.7106 64.6162 43.2842 64.6142 42.8804 64.4679C42.4765 64.3216 42.0995 64.027 41.8626 63.6067C41.7781 63.4583 41.7122 63.275 41.7616 63.1143Z" fill="white"/>
<path d="M38.7064 70.8206C36.197 70.6867 33.7638 69.8194 31.7303 68.3442C31.5964 68.2474 31.4666 68.4699 31.6005 68.5667C33.6711 70.0686 36.1537 70.9443 38.7064 71.0782C38.8712 71.0864 38.8712 70.8289 38.7064 70.8206Z" fill="white"/>
<path d="M64.6104 67.4398C63.5184 67.5139 62.4244 67.5963 61.3387 67.7509C60.7865 67.8291 60.2385 67.9239 59.6946 68.0475C59.4906 68.0929 59.1877 68.1135 59.0085 68.2206C58.9755 68.2412 58.959 68.2556 58.9364 68.2886C58.8437 68.4246 58.8251 68.6553 58.788 68.8098C58.6995 69.1724 58.6191 69.535 58.5388 69.8997C58.0567 72.0836 57.6096 74.2798 57.2016 76.4802C57.1151 76.9438 57.0306 77.4094 56.9565 77.875C56.9194 78.1058 56.8617 78.3551 56.8699 78.5899C56.8761 78.7547 57.1337 78.7568 57.1275 78.5899C57.1192 78.4086 57.1625 78.217 57.1893 78.0378C57.247 77.6649 57.3129 77.292 57.3809 76.9211C57.5725 75.8642 57.7806 74.8114 57.9907 73.7607C58.2091 72.6728 58.4337 71.5871 58.6686 70.5013C58.8128 69.84 58.9384 69.1642 59.1301 68.5152C59.1362 68.4926 59.163 68.441 59.161 68.4184C59.1568 68.3957 59.1692 68.4184 59.161 68.4163C59.1774 68.4246 58.9941 68.4575 59.095 68.4616C59.2351 68.4678 59.435 68.3731 59.573 68.3401C59.7172 68.3051 59.8614 68.2742 60.0057 68.2433C60.2941 68.1814 60.5846 68.1279 60.8751 68.0805C62.1113 67.8765 63.3618 67.7838 64.6124 67.6973C64.7772 67.687 64.7772 67.4295 64.6124 67.4398H64.6104Z" fill="white"/>
<path d="M41.9781 75.1335C38.7229 73.3597 35.2328 71.9319 31.6046 71.1428C30.6239 70.9306 29.635 70.7678 28.6358 70.6648C28.471 70.6483 28.473 70.9059 28.6358 70.9224C32.268 71.2994 35.8055 72.4614 39.1122 73.9819C40.0394 74.4083 40.9521 74.8678 41.8483 75.3561C41.9946 75.4364 42.1244 75.2139 41.9781 75.1335Z" fill="white"/>
<path d="M34.8351 75.0694C32.6822 76.0501 31.1576 78.1701 30.8877 80.5168C30.8691 80.6816 31.1267 80.6795 31.1452 80.5168C31.4069 78.2566 32.9006 76.2335 34.9649 75.2919C35.1153 75.2239 34.9855 75.0014 34.8351 75.0694Z" fill="white"/>
<path d="M36.712 75.7619C35.5933 75.1047 34.3159 74.7545 33.0179 74.7462C32.8531 74.7462 32.8511 75.0017 33.0179 75.0037C34.2706 75.012 35.5006 75.3499 36.5822 75.9844C36.7264 76.0689 36.8562 75.8464 36.712 75.7619Z" fill="white"/>
</g>
<defs>
<clipPath id="clip0_1_3722">
<rect width="99.0556" height="91" fill="white"/>
</clipPath>
</defs>
</svg>
