<svg width="827" height="543" viewBox="0 0 827 543" fill="none" xmlns="http://www.w3.org/2000/svg">
<path d="M39.5 8C39.5 12.4183 43.0817 16 47.5 16C51.9183 16 55.5 12.4183 55.5 8C55.5 3.58172 51.9183 0 47.5 0C43.0817 0 39.5 3.58172 39.5 8ZM72.5 444.5L72.585 443.002L72.5 444.5ZM814.5 178L816 177.962L814.5 178ZM813.326 541.933C813.841 542.582 814.785 542.69 815.433 542.174L826.003 533.776C826.652 533.261 826.76 532.318 826.244 531.669C825.729 531.02 824.786 530.912 824.137 531.428L814.741 538.892L807.276 529.497C806.761 528.848 805.818 528.74 805.169 529.256C804.52 529.771 804.412 530.715 804.928 531.363L813.326 541.933ZM46.0793 7.51876C45.3627 9.63422 44.6451 11.8028 43.9272 14.0221L46.7816 14.9454C47.4954 12.7386 48.2087 10.5831 48.9207 8.48124L46.0793 7.51876ZM39.7954 27.3471C38.5088 31.6692 37.2262 36.1406 35.9522 40.7471L38.8437 41.5468C40.1127 36.9581 41.3899 32.5055 42.6707 28.2031L39.7954 27.3471ZM32.3541 54.2102C31.2148 58.6199 30.0862 63.1307 28.9719 67.732L31.8876 68.4381C32.9984 63.8512 34.1233 59.3553 35.2587 54.9607L32.3541 54.2102ZM25.7864 81.3091C24.7694 85.7835 23.7681 90.3288 22.7852 94.9364L25.7192 95.5622C26.6993 90.9675 27.6978 86.4352 28.7118 81.974L25.7864 81.3091ZM19.9678 108.574C19.0674 113.076 18.1864 117.628 17.3274 122.221L20.2763 122.773C21.133 118.192 22.0116 113.652 22.9096 109.162L19.9678 108.574ZM14.8529 135.922C14.06 140.473 13.2903 145.056 12.5462 149.665L15.5079 150.143C16.25 145.547 17.0176 140.976 17.8084 136.437L14.8529 135.922ZM10.4114 163.438C9.7315 168.015 9.07865 172.61 8.45506 177.217L11.4279 177.619C12.0498 173.026 12.7008 168.443 13.3788 163.879L10.4114 163.438ZM6.67846 191.03C6.1169 195.641 5.58666 200.257 5.08998 204.871L8.07275 205.192C8.5679 200.592 9.09654 195.99 9.65646 191.393L6.67846 191.03ZM3.7006 218.725C3.2704 223.361 2.87647 227.989 2.52111 232.602L5.51225 232.832C5.86637 228.236 6.25896 223.624 6.68777 219.003L3.7006 218.725ZM1.56531 246.514C1.28463 251.18 1.04645 255.824 0.853205 260.437L3.85058 260.563C4.04304 255.968 4.28027 251.343 4.5599 246.694L1.56531 246.514ZM0.406742 274.359C0.304095 279.037 0.251634 283.676 0.252016 288.268L3.25202 288.268C3.25164 283.699 3.30383 279.082 3.40602 274.424L0.406742 274.359ZM0.4223 302.22C0.539403 306.938 0.717912 311.595 0.960933 316.183L3.95673 316.024C3.71528 311.466 3.53782 306.837 3.42138 302.146L0.4223 302.22ZM1.91993 330.119C2.32381 334.843 2.80456 339.478 3.36601 344.013L6.34328 343.644C5.78679 339.149 5.30989 334.552 4.90902 329.863L1.91993 330.119ZM5.38661 357.841C6.1877 362.552 7.08992 367.131 8.09835 371.564L11.0236 370.898C10.0284 366.524 9.13675 361.999 8.34416 357.338L5.38661 357.841ZM11.6586 385.113C13.0541 389.739 14.5919 394.162 16.2798 398.361L19.0633 397.242C17.4119 393.134 15.9031 388.796 14.5308 384.247L11.6586 385.113ZM22.2427 411.077C24.5829 415.356 27.1382 419.307 29.9216 422.894L32.2917 421.055C29.6169 417.608 27.1474 413.793 24.8749 409.638L22.2427 411.077ZM39.7427 433.186C43.4274 436.276 47.4127 438.858 51.7131 440.881L52.9901 438.166C48.9358 436.259 45.1676 433.82 41.6703 430.888L39.7427 433.186ZM65.258 445.166C67.5743 445.58 69.9596 445.858 72.415 445.998L72.585 443.002C70.2457 442.87 67.9798 442.605 65.7851 442.213L65.258 445.166ZM72.415 445.998C74.6195 446.123 76.9217 446.104 79.3168 445.95L79.1242 442.956C76.8361 443.104 74.6556 443.12 72.585 443.002L72.415 445.998ZM93.4958 443.759C97.8863 442.744 102.511 441.409 107.352 439.779L106.395 436.936C101.63 438.541 97.1003 439.847 92.8203 440.836L93.4958 443.759ZM120.661 434.791C124.813 433.092 129.098 431.218 133.508 429.18L132.249 426.457C127.875 428.478 123.631 430.334 119.525 432.015L120.661 434.791ZM146.512 422.885C150.534 420.856 154.646 418.712 158.842 416.46L157.424 413.816C153.248 416.058 149.159 418.19 145.161 420.207L146.512 422.885ZM171.397 409.545C175.371 407.304 179.412 404.978 183.516 402.574L182 399.986C177.909 402.382 173.882 404.7 169.923 406.932L171.397 409.545ZM195.823 395.246C199.74 392.877 203.709 390.445 207.725 387.955L206.144 385.405C202.137 387.89 198.178 390.316 194.271 392.678L195.823 395.246ZM219.912 380.314C223.777 377.865 227.682 375.368 231.624 372.827L229.999 370.305C226.063 372.843 222.164 375.335 218.306 377.78L219.912 380.314ZM243.562 365.072C247.449 362.529 251.368 359.947 255.319 357.331L253.662 354.83C249.716 357.443 245.801 360.022 241.919 362.562L243.562 365.072ZM267.059 349.512C270.971 346.895 274.909 344.247 278.872 341.572L277.193 339.085C273.233 341.758 269.298 344.404 265.391 347.019L267.059 349.512ZM290.472 333.713C294.361 331.07 298.272 328.404 302.202 325.717L300.509 323.241C296.581 325.926 292.672 328.59 288.786 331.232L290.472 333.713ZM313.832 317.751C317.687 315.105 321.559 312.442 325.447 309.765L323.746 307.294C319.859 309.97 315.988 312.632 312.134 315.278L313.832 317.751ZM337.147 301.699C340.987 299.05 344.841 296.389 348.705 293.72L347 291.251C343.136 293.92 339.283 296.581 335.443 299.23L337.147 301.699ZM360.33 285.689C364.201 283.015 368.081 280.336 371.969 277.652L370.264 275.183C366.376 277.867 362.496 280.547 358.625 283.221L360.33 285.689ZM383.571 269.652C387.445 266.983 391.325 264.312 395.21 261.643L393.511 259.171C389.625 261.841 385.743 264.512 381.869 267.181L383.571 269.652ZM406.856 253.655C410.738 250.997 414.623 248.343 418.509 245.694L416.82 243.215C412.932 245.865 409.045 248.52 405.161 251.179L406.856 253.655ZM430.171 237.768C434.078 235.12 437.985 232.479 441.89 229.85L440.215 227.361C436.307 229.993 432.397 232.635 428.488 235.284L430.171 237.768ZM453.604 221.991C457.518 219.375 461.428 216.773 465.333 214.185L463.676 211.684C459.767 214.274 455.854 216.879 451.937 219.497L453.604 221.991ZM477.156 206.389C481.091 203.807 485.019 201.244 488.939 198.701L487.306 196.184C483.382 198.73 479.449 201.296 475.511 203.88L477.156 206.389ZM500.816 191.042C504.804 188.487 508.781 185.956 512.746 183.451L511.143 180.915C507.173 183.423 503.19 185.957 499.197 188.516L500.816 191.042ZM524.601 176.02C528.656 173.499 532.696 171.008 536.72 168.551L535.156 165.991C531.126 168.452 527.078 170.947 523.016 173.473L524.601 176.02ZM548.755 161.274C552.817 158.843 556.86 156.449 560.881 154.097L559.367 151.508C555.336 153.865 551.285 156.264 547.214 158.7L548.755 161.274ZM573.155 147.009C577.222 144.692 581.263 142.42 585.277 140.199L583.825 137.574C579.799 139.802 575.747 142.079 571.67 144.403L573.155 147.009ZM597.847 133.359C602.006 131.136 606.131 128.972 610.221 126.87L608.85 124.202C604.745 126.311 600.605 128.483 596.433 130.713L597.847 133.359ZM622.907 120.498C627.174 118.406 631.398 116.389 635.575 114.452L634.313 111.73C630.115 113.677 625.872 115.703 621.587 117.804L622.907 120.498ZM648.447 108.673C652.834 106.772 657.163 104.968 661.431 103.267L660.32 100.481C656.023 102.193 651.667 104.008 647.254 105.921L648.447 108.673ZM674.603 98.2807C679.108 96.6695 683.534 95.1878 687.877 93.8429L686.989 90.9772C682.602 92.3359 678.135 93.8313 673.593 95.456L674.603 98.2807ZM701.488 90.0127C706.076 88.8599 710.553 87.883 714.915 87.091L714.379 84.1393C709.946 84.9442 705.403 85.9356 700.757 87.1032L701.488 90.0127ZM729.014 85.1492C733.822 84.7154 738.458 84.5507 742.911 84.669L742.991 81.6701C738.409 81.5484 733.656 81.7182 728.744 82.1614L729.014 85.1492ZM756.564 86.0369C761.255 86.8929 765.685 88.1474 769.841 89.8208L770.961 87.0378C766.601 85.2824 761.974 83.9748 757.102 83.0857L756.564 86.0369ZM781.874 96.3991C785.499 98.9974 788.84 102.055 791.881 105.6L794.158 103.646C790.963 99.9222 787.445 96.7014 783.622 93.9609L781.874 96.3991ZM799.63 116.88C801.772 120.779 803.678 125.071 805.332 129.776L808.162 128.781C806.458 123.935 804.487 119.491 802.259 115.436L799.63 116.88ZM809.038 142.845C810.005 147.171 810.805 151.769 811.431 156.647L814.406 156.265C813.769 151.304 812.954 146.614 811.965 142.19L809.038 142.845ZM812.696 170.558C812.835 172.992 812.936 175.485 813.001 178.038L816 177.962C815.934 175.379 815.832 172.855 815.691 170.387L812.696 170.558ZM813.001 178.038C813.06 180.406 813.119 182.761 813.177 185.103L816.176 185.029C816.118 182.687 816.059 180.331 816 177.962L813.001 178.038ZM813.513 198.994C813.625 203.729 813.733 208.407 813.837 213.03L816.837 212.962C816.732 208.339 816.624 203.659 816.512 198.923L813.513 198.994ZM814.144 226.977C814.245 231.668 814.341 236.299 814.434 240.87L817.434 240.809C817.341 236.237 817.244 231.605 817.144 226.912L814.144 226.977ZM814.71 254.902C814.8 259.625 814.885 264.281 814.967 268.872L817.966 268.819C817.885 264.227 817.799 259.569 817.709 254.845L814.71 254.902ZM815.205 282.792C815.282 287.511 815.355 292.157 815.423 296.73L818.423 296.685C818.354 292.11 818.281 287.463 818.204 282.743L815.205 282.792ZM815.622 310.739C815.686 315.48 815.745 320.14 815.799 324.717L818.799 324.682C818.745 320.103 818.686 315.442 818.622 310.699L815.622 310.739ZM815.953 338.677C816.001 343.419 816.044 348.069 816.082 352.626L819.081 352.601C819.044 348.042 819.001 343.391 818.953 338.646L815.953 338.677ZM816.184 366.575C816.214 371.334 816.239 375.986 816.258 380.53L819.258 380.518C819.239 375.971 819.214 371.317 819.184 366.556L816.184 366.575ZM816.302 394.495C816.311 399.281 816.315 403.938 816.312 408.468L819.312 408.47C819.315 403.937 819.311 399.277 819.302 394.489L816.302 394.495ZM816.285 422.442C816.269 427.251 816.246 431.903 816.217 436.399L819.217 436.418C819.246 431.919 819.269 427.264 819.285 422.452L816.285 422.442ZM816.102 450.307C816.053 455.181 815.996 459.847 815.933 464.31L818.933 464.352C818.996 459.885 819.053 455.215 819.102 450.338L816.102 450.307ZM815.701 478.23C815.606 483.192 815.502 487.852 815.391 492.219L818.39 492.296C818.501 487.922 818.605 483.256 818.701 478.288L815.701 478.23ZM814.98 506.163C814.805 511.337 814.62 515.958 814.429 520.05L817.426 520.189C817.617 516.084 817.803 511.45 817.978 506.265L814.98 506.163ZM813.623 533.996C813.415 536.83 813.208 539.096 813.01 540.829L815.99 541.171C816.195 539.383 816.405 537.073 816.615 534.216L813.623 533.996Z" fill="#E5E5E5"/>
</svg>
