<svg width="480" height="135" viewBox="0 0 480 135" fill="none" xmlns="http://www.w3.org/2000/svg">
<path d="M239.964 54.0949C116.19 54.0949 14.3879 43.6528 2.09204 30.2686L37.1598 107.003C37.1598 121.662 127.958 133.55 239.981 133.55C352.004 133.55 442.803 121.662 442.803 107.003L477.853 30.2856C465.558 43.6698 363.756 54.1119 239.981 54.1119L239.964 54.0949Z" fill="#FFFFA5" stroke="#333333" stroke-linecap="round" stroke-linejoin="round"/>
<path d="M239.964 54.0948C372.023 54.0948 479.078 42.2091 479.078 27.5474C479.078 12.8857 372.023 1 239.964 1C107.905 1 0.850342 12.8857 0.850342 27.5474C0.850342 42.2091 107.905 54.0948 239.964 54.0948Z" fill="#FFFFA5" stroke="#333333" stroke-linecap="round" stroke-linejoin="round"/>
<path d="M239.964 47.1394C354.149 47.1394 446.714 38.3679 446.714 27.5477C446.714 16.7275 354.149 7.95605 239.964 7.95605C125.779 7.95605 33.2139 16.7275 33.2139 27.5477C33.2139 38.3679 125.779 47.1394 239.964 47.1394Z" fill="#FFFFA5" stroke="#333333" stroke-linecap="round" stroke-linejoin="round"/>
<path opacity="0.23" d="M239.964 47.1394C354.149 47.1394 446.714 38.3679 446.714 27.5477C446.714 16.7275 354.149 7.95605 239.964 7.95605C125.779 7.95605 33.2139 16.7275 33.2139 27.5477C33.2139 38.3679 125.779 47.1394 239.964 47.1394Z" fill="#9FA956" stroke="#333333" stroke-linecap="round" stroke-linejoin="round"/>
<path d="M239.964 47.1394C354.149 47.1394 446.714 38.3679 446.714 27.5477C446.714 16.7275 354.149 7.95605 239.964 7.95605C125.779 7.95605 33.2139 16.7275 33.2139 27.5477C33.2139 38.3679 125.779 47.1394 239.964 47.1394Z" stroke="#333333" stroke-linecap="round" stroke-linejoin="round"/>
</svg>
