<svg width="382" height="119" viewBox="0 0 382 119" fill="none" xmlns="http://www.w3.org/2000/svg">
<path d="M190.964 38.2107C91.1179 38.2107 9.31587 30.6767 1.59485 21.085L36.0844 99.1966C36.0844 109.469 105.421 117.802 190.964 117.802C276.508 117.802 345.844 109.469 345.844 99.1966L380.333 21.085C372.629 30.6597 290.81 38.2107 190.964 38.2107Z" fill="#FFC0A5" stroke="#242424" stroke-linecap="round" stroke-linejoin="round"/>
<path d="M190.964 38.2106C295.907 38.2106 380.979 29.8807 380.979 19.6053C380.979 9.32986 295.907 1 190.964 1C86.0213 1 0.948486 9.32986 0.948486 19.6053C0.948486 29.8807 86.0213 38.2106 190.964 38.2106Z" fill="#FFC0A5" stroke="#242424" stroke-linecap="round" stroke-linejoin="round"/>
<path opacity="0.58" d="M190.964 38.2106C295.907 38.2106 380.979 29.8807 380.979 19.6053C380.979 9.32986 295.907 1 190.964 1C86.0213 1 0.948486 9.32986 0.948486 19.6053C0.948486 29.8807 86.0213 38.2106 190.964 38.2106Z" fill="white" stroke="#242424" stroke-linecap="round" stroke-linejoin="round"/>
<path d="M190.964 33.3296C281.705 33.3296 355.265 27.185 355.265 19.6052C355.265 12.0255 281.705 5.88086 190.964 5.88086C100.223 5.88086 26.6626 12.0255 26.6626 19.6052C26.6626 27.185 100.223 33.3296 190.964 33.3296Z" fill="#FFC0A5" stroke="#242424" stroke-linecap="round" stroke-linejoin="round"/>
<path d="M140.151 79.2561H135.063L134.087 81.9121H132.903L136.983 70.8721H138.247L142.311 81.9121H141.127L140.151 79.2561ZM139.815 78.3281L137.607 72.2801L135.399 78.3281H139.815ZM143.596 77.5441C143.596 76.6374 143.777 75.8481 144.14 75.1761C144.503 74.4934 145.004 73.9708 145.644 73.6081C146.284 73.2348 147.015 73.0481 147.836 73.0481C148.913 73.0481 149.799 73.3148 150.492 73.8481C151.196 74.3814 151.649 75.1068 151.852 76.0241H150.652C150.503 75.3948 150.177 74.9041 149.676 74.5521C149.185 74.1894 148.572 74.0081 147.836 74.0081C147.249 74.0081 146.721 74.1414 146.252 74.4081C145.783 74.6748 145.409 75.0748 145.132 75.6081C144.865 76.1308 144.732 76.7761 144.732 77.5441C144.732 78.3121 144.865 78.9628 145.132 79.4961C145.409 80.0294 145.783 80.4294 146.252 80.6961C146.721 80.9628 147.249 81.0961 147.836 81.0961C148.572 81.0961 149.185 80.9201 149.676 80.5681C150.177 80.2054 150.503 79.7041 150.652 79.0641H151.852C151.649 79.9601 151.196 80.6801 150.492 81.2241C149.788 81.7681 148.903 82.0401 147.836 82.0401C147.015 82.0401 146.284 81.8588 145.644 81.4961C145.004 81.1228 144.503 80.6001 144.14 79.9281C143.777 79.2454 143.596 78.4508 143.596 77.5441ZM153.409 77.5281C153.409 76.6321 153.59 75.8481 153.953 75.1761C154.315 74.4934 154.811 73.9708 155.441 73.6081C156.081 73.2348 156.801 73.0481 157.601 73.0481C158.422 73.0481 159.137 73.2454 159.745 73.6401C160.353 74.0241 160.785 74.5094 161.041 75.0961V73.1761H162.161V86.0401H161.041V79.9921C160.785 80.5788 160.347 81.0694 159.729 81.4641C159.121 81.8481 158.401 82.0401 157.569 82.0401C156.779 82.0401 156.065 81.8534 155.425 81.4801C154.795 81.1068 154.299 80.5788 153.937 79.8961C153.585 79.2134 153.409 78.4241 153.409 77.5281ZM161.041 77.5441C161.041 76.8401 160.897 76.2214 160.609 75.6881C160.321 75.1548 159.926 74.7441 159.425 74.4561C158.934 74.1681 158.39 74.0241 157.793 74.0241C157.174 74.0241 156.619 74.1628 156.129 74.4401C155.638 74.7174 155.249 75.1228 154.961 75.6561C154.683 76.1788 154.545 76.8028 154.545 77.5281C154.545 78.2428 154.683 78.8721 154.961 79.4161C155.249 79.9494 155.638 80.3601 156.129 80.6481C156.619 80.9254 157.174 81.0641 157.793 81.0641C158.39 81.0641 158.934 80.9201 159.425 80.6321C159.926 80.3441 160.321 79.9334 160.609 79.4001C160.897 78.8668 161.041 78.2481 161.041 77.5441ZM172.286 73.1761V81.9121H171.166V80.3761C170.91 80.9201 170.515 81.3361 169.982 81.6241C169.448 81.9121 168.851 82.0561 168.19 82.0561C167.144 82.0561 166.291 81.7361 165.63 81.0961C164.968 80.4454 164.638 79.5068 164.638 78.2801V73.1761H165.742V78.1521C165.742 79.1014 165.976 79.8268 166.446 80.3281C166.926 80.8294 167.576 81.0801 168.398 81.0801C169.24 81.0801 169.912 80.8134 170.414 80.2801C170.915 79.7468 171.166 78.9628 171.166 77.9281V73.1761H172.286ZM174.331 77.5281C174.331 76.6321 174.507 75.8481 174.859 75.1761C175.221 74.4934 175.717 73.9708 176.347 73.6081C176.987 73.2348 177.707 73.0481 178.507 73.0481C179.339 73.0481 180.053 73.2401 180.651 73.6241C181.259 74.0081 181.696 74.4988 181.963 75.0961V73.1761H183.083V81.9121H181.963V79.9761C181.685 80.5734 181.243 81.0694 180.635 81.4641C180.037 81.8481 179.323 82.0401 178.491 82.0401C177.701 82.0401 176.987 81.8534 176.347 81.4801C175.717 81.1068 175.221 80.5788 174.859 79.8961C174.507 79.2134 174.331 78.4241 174.331 77.5281ZM181.963 77.5441C181.963 76.8401 181.819 76.2214 181.531 75.6881C181.243 75.1548 180.848 74.7441 180.347 74.4561C179.856 74.1681 179.312 74.0241 178.715 74.0241C178.096 74.0241 177.541 74.1628 177.051 74.4401C176.56 74.7174 176.171 75.1228 175.883 75.6561C175.605 76.1788 175.467 76.8028 175.467 77.5281C175.467 78.2428 175.605 78.8721 175.883 79.4161C176.171 79.9494 176.56 80.3601 177.051 80.6481C177.541 80.9254 178.096 81.0641 178.715 81.0641C179.312 81.0641 179.856 80.9201 180.347 80.6321C180.848 80.3441 181.243 79.9334 181.531 79.4001C181.819 78.8668 181.963 78.2481 181.963 77.5441ZM186.199 71.5281C185.975 71.5281 185.783 71.4481 185.623 71.2881C185.463 71.1281 185.383 70.9308 185.383 70.6961C185.383 70.4614 185.463 70.2694 185.623 70.1201C185.783 69.9601 185.975 69.8801 186.199 69.8801C186.423 69.8801 186.615 69.9601 186.775 70.1201C186.935 70.2694 187.015 70.4614 187.015 70.6961C187.015 70.9308 186.935 71.1281 186.775 71.2881C186.615 71.4481 186.423 71.5281 186.199 71.5281ZM186.759 73.1761V81.9121H185.639V73.1761H186.759ZM193.392 73.0161C194.437 73.0161 195.29 73.3414 195.952 73.9921C196.613 74.6321 196.944 75.5654 196.944 76.7921V81.9121H195.84V76.9201C195.84 75.9708 195.6 75.2454 195.12 74.7441C194.65 74.2428 194.005 73.9921 193.184 73.9921C192.341 73.9921 191.669 74.2588 191.168 74.7921C190.666 75.3254 190.416 76.1094 190.416 77.1441V81.9121H189.296V73.1761H190.416V74.6641C190.693 74.1308 191.093 73.7254 191.616 73.4481C192.138 73.1601 192.73 73.0161 193.392 73.0161ZM200.877 74.1201V79.5441C200.877 80.0774 200.978 80.4454 201.181 80.6481C201.383 80.8508 201.741 80.9521 202.253 80.9521H203.277V81.9121H202.077C201.287 81.9121 200.701 81.7308 200.317 81.3681C199.933 80.9948 199.741 80.3868 199.741 79.5441V74.1201H198.525V73.1761H199.741V70.9841H200.877V73.1761H203.277V74.1201H200.877ZM204.612 77.5281C204.612 76.6321 204.788 75.8481 205.14 75.1761C205.502 74.4934 205.998 73.9708 206.628 73.6081C207.268 73.2348 207.988 73.0481 208.788 73.0481C209.62 73.0481 210.334 73.2401 210.932 73.6241C211.54 74.0081 211.977 74.4988 212.244 75.0961V73.1761H213.364V81.9121H212.244V79.9761C211.966 80.5734 211.524 81.0694 210.916 81.4641C210.318 81.8481 209.604 82.0401 208.772 82.0401C207.982 82.0401 207.268 81.8534 206.628 81.4801C205.998 81.1068 205.502 80.5788 205.14 79.8961C204.788 79.2134 204.612 78.4241 204.612 77.5281ZM212.244 77.5441C212.244 76.8401 212.1 76.2214 211.812 75.6881C211.524 75.1548 211.129 74.7441 210.628 74.4561C210.137 74.1681 209.593 74.0241 208.996 74.0241C208.377 74.0241 207.822 74.1628 207.332 74.4401C206.841 74.7174 206.452 75.1228 206.164 75.6561C205.886 76.1788 205.748 76.8028 205.748 77.5281C205.748 78.2428 205.886 78.8721 206.164 79.4161C206.452 79.9494 206.841 80.3601 207.332 80.6481C207.822 80.9254 208.377 81.0641 208.996 81.0641C209.593 81.0641 210.137 80.9201 210.628 80.6321C211.129 80.3441 211.524 79.9334 211.812 79.4001C212.1 78.8668 212.244 78.2481 212.244 77.5441ZM220.017 73.0161C221.062 73.0161 221.915 73.3414 222.577 73.9921C223.238 74.6321 223.569 75.5654 223.569 76.7921V81.9121H222.465V76.9201C222.465 75.9708 222.225 75.2454 221.745 74.7441C221.275 74.2428 220.63 73.9921 219.809 73.9921C218.966 73.9921 218.294 74.2588 217.793 74.7921C217.291 75.3254 217.041 76.1094 217.041 77.1441V81.9121H215.921V73.1761H217.041V74.6641C217.318 74.1308 217.718 73.7254 218.241 73.4481C218.763 73.1601 219.355 73.0161 220.017 73.0161ZM225.534 77.5441C225.534 76.6374 225.715 75.8481 226.078 75.1761C226.44 74.4934 226.942 73.9708 227.582 73.6081C228.222 73.2348 228.952 73.0481 229.774 73.0481C230.851 73.0481 231.736 73.3148 232.43 73.8481C233.134 74.3814 233.587 75.1068 233.79 76.0241H232.59C232.44 75.3948 232.115 74.9041 231.614 74.5521C231.123 74.1894 230.51 74.0081 229.774 74.0081C229.187 74.0081 228.659 74.1414 228.19 74.4081C227.72 74.6748 227.347 75.0748 227.07 75.6081C226.803 76.1308 226.67 76.7761 226.67 77.5441C226.67 78.3121 226.803 78.9628 227.07 79.4961C227.347 80.0294 227.72 80.4294 228.19 80.6961C228.659 80.9628 229.187 81.0961 229.774 81.0961C230.51 81.0961 231.123 80.9201 231.614 80.5681C232.115 80.2054 232.44 79.7041 232.59 79.0641H233.79C233.587 79.9601 233.134 80.6801 232.43 81.2241C231.726 81.7681 230.84 82.0401 229.774 82.0401C228.952 82.0401 228.222 81.8588 227.582 81.4961C226.942 81.1228 226.44 80.6001 226.078 79.9281C225.715 79.2454 225.534 78.4508 225.534 77.5441ZM243.762 77.0961C243.762 77.4801 243.751 77.7734 243.73 77.9761H236.482C236.514 78.6374 236.674 79.2028 236.962 79.6721C237.25 80.1414 237.629 80.4988 238.098 80.7441C238.567 80.9788 239.079 81.0961 239.634 81.0961C240.359 81.0961 240.967 80.9201 241.458 80.5681C241.959 80.2161 242.29 79.7414 242.45 79.1441H243.634C243.421 79.9974 242.962 80.6961 242.258 81.2401C241.565 81.7734 240.69 82.0401 239.634 82.0401C238.813 82.0401 238.077 81.8588 237.426 81.4961C236.775 81.1228 236.263 80.6001 235.89 79.9281C235.527 79.2454 235.346 78.4508 235.346 77.5441C235.346 76.6374 235.527 75.8428 235.89 75.1601C236.253 74.4774 236.759 73.9548 237.41 73.5921C238.061 73.2294 238.802 73.0481 239.634 73.0481C240.466 73.0481 241.191 73.2294 241.81 73.5921C242.439 73.9548 242.919 74.4454 243.25 75.0641C243.591 75.6721 243.762 76.3494 243.762 77.0961ZM242.626 77.0641C242.637 76.4134 242.503 75.8588 242.226 75.4001C241.959 74.9414 241.591 74.5948 241.122 74.3601C240.653 74.1254 240.141 74.0081 239.586 74.0081C238.754 74.0081 238.045 74.2748 237.458 74.8081C236.871 75.3414 236.546 76.0934 236.482 77.0641H242.626ZM248.819 82.0401C247.817 82.0401 246.995 81.8108 246.355 81.3521C245.726 80.8828 245.374 80.2481 245.299 79.4481H246.451C246.505 79.9388 246.734 80.3388 247.139 80.6481C247.555 80.9468 248.11 81.0961 248.803 81.0961C249.411 81.0961 249.886 80.9521 250.227 80.6641C250.579 80.3761 250.755 80.0188 250.755 79.5921C250.755 79.2934 250.659 79.0481 250.467 78.8561C250.275 78.6641 250.03 78.5148 249.731 78.4081C249.443 78.2908 249.049 78.1681 248.547 78.0401C247.897 77.8694 247.369 77.6988 246.963 77.5281C246.558 77.3574 246.211 77.1068 245.923 76.7761C245.646 76.4348 245.507 75.9814 245.507 75.4161C245.507 74.9894 245.635 74.5948 245.891 74.2321C246.147 73.8694 246.51 73.5814 246.979 73.3681C247.449 73.1548 247.982 73.0481 248.579 73.0481C249.518 73.0481 250.275 73.2881 250.851 73.7681C251.427 74.2374 251.737 74.8881 251.779 75.7201H250.659C250.627 75.2081 250.425 74.7974 250.051 74.4881C249.689 74.1681 249.187 74.0081 248.547 74.0081C247.982 74.0081 247.523 74.1414 247.171 74.4081C246.819 74.6748 246.643 75.0054 246.643 75.4001C246.643 75.7414 246.745 76.0241 246.947 76.2481C247.161 76.4614 247.422 76.6321 247.731 76.7601C248.041 76.8774 248.457 77.0108 248.979 77.1601C249.609 77.3308 250.11 77.4961 250.483 77.6561C250.857 77.8161 251.177 78.0508 251.443 78.3601C251.71 78.6694 251.849 79.0801 251.859 79.5921C251.859 80.0614 251.731 80.4828 251.475 80.8561C251.219 81.2188 250.862 81.5068 250.403 81.7201C249.945 81.9334 249.417 82.0401 248.819 82.0401Z" fill="black"/>
</svg>
