<svg width="295" height="100" viewBox="0 0 295 100" fill="none" xmlns="http://www.w3.org/2000/svg">
<path d="M147.964 25.1667C70.9408 25.1667 7.82905 20.2688 1.92773 14.0273L40.4648 88.0233C40.4648 94.0267 88.5937 98.9076 147.964 98.9076C207.334 98.9076 255.463 94.0437 255.463 88.0233L294 14.0273C288.099 20.2518 224.987 25.1667 147.964 25.1667Z" fill="#FFA4A4" stroke="#333333" stroke-linecap="round" stroke-linejoin="round"/>
<path d="M147.964 25.1835C228.89 25.1835 294.493 19.7698 294.493 13.0917C294.493 6.41366 228.89 1 147.964 1C67.038 1 1.43457 6.41366 1.43457 13.0917C1.43457 19.7698 67.038 25.1835 147.964 25.1835Z" fill="#FFB1B1" stroke="#333333" stroke-linecap="round" stroke-linejoin="round"/>
<path d="M147.964 22.0203C217.938 22.0203 274.664 18.0229 274.664 13.0918C274.664 8.16075 217.938 4.16333 147.964 4.16333C77.9896 4.16333 21.2643 8.16075 21.2643 13.0918C21.2643 18.0229 77.9896 22.0203 147.964 22.0203Z" fill="#DC9292" stroke="#333333" stroke-linecap="round" stroke-linejoin="round"/>
<path d="M86.592 55.1676C87.8293 55.1676 88.8907 55.3916 89.776 55.8396C90.6613 56.2876 91.3387 56.9329 91.808 57.7756C92.2773 58.6182 92.512 59.6209 92.512 60.7836C92.512 61.9356 92.2773 62.9329 91.808 63.7756C91.3387 64.6076 90.6613 65.2476 89.776 65.6956C88.8907 66.1329 87.8293 66.3516 86.592 66.3516H83.28V55.1676H86.592ZM86.592 65.4236C88.1493 65.4236 89.3333 65.0182 90.144 64.2076C90.9653 63.3862 91.376 62.2449 91.376 60.7836C91.376 59.3116 90.9653 58.1649 90.144 57.3436C89.3333 56.5116 88.1493 56.0956 86.592 56.0956H84.4V65.4236H86.592ZM102.481 61.5356C102.481 61.9196 102.47 62.2129 102.449 62.4156H95.2009C95.2329 63.0769 95.3929 63.6422 95.6809 64.1116C95.9689 64.5809 96.3475 64.9382 96.8169 65.1836C97.2862 65.4182 97.7982 65.5356 98.3529 65.5356C99.0782 65.5356 99.6862 65.3596 100.177 65.0076C100.678 64.6556 101.009 64.1809 101.169 63.5836H102.353C102.14 64.4369 101.681 65.1356 100.977 65.6796C100.284 66.2129 99.4089 66.4796 98.3529 66.4796C97.5315 66.4796 96.7955 66.2982 96.1449 65.9356C95.4942 65.5622 94.9822 65.0396 94.6089 64.3676C94.2462 63.6849 94.0649 62.8902 94.0649 61.9836C94.0649 61.0769 94.2462 60.2822 94.6089 59.5996C94.9715 58.9169 95.4782 58.3942 96.1289 58.0316C96.7795 57.6689 97.5209 57.4876 98.3529 57.4876C99.1849 57.4876 99.9102 57.6689 100.529 58.0316C101.158 58.3942 101.638 58.8849 101.969 59.5036C102.31 60.1116 102.481 60.7889 102.481 61.5356ZM101.345 61.5036C101.356 60.8529 101.222 60.2982 100.945 59.8396C100.678 59.3809 100.31 59.0342 99.8409 58.7996C99.3715 58.5649 98.8595 58.4476 98.3049 58.4476C97.4729 58.4476 96.7635 58.7142 96.1769 59.2476C95.5902 59.7809 95.2649 60.5329 95.2009 61.5036H101.345ZM107.634 65.2636L110.578 57.6156H111.762L108.258 66.3516H106.994L103.49 57.6156H104.69L107.634 65.2636ZM121.184 61.5356C121.184 61.9196 121.173 62.2129 121.152 62.4156H113.904C113.936 63.0769 114.096 63.6422 114.384 64.1116C114.672 64.5809 115.051 64.9382 115.52 65.1836C115.989 65.4182 116.501 65.5356 117.056 65.5356C117.781 65.5356 118.389 65.3596 118.88 65.0076C119.381 64.6556 119.712 64.1809 119.872 63.5836H121.056C120.843 64.4369 120.384 65.1356 119.68 65.6796C118.987 66.2129 118.112 66.4796 117.056 66.4796C116.235 66.4796 115.499 66.2982 114.848 65.9356C114.197 65.5622 113.685 65.0396 113.312 64.3676C112.949 63.6849 112.768 62.8902 112.768 61.9836C112.768 61.0769 112.949 60.2822 113.312 59.5996C113.675 58.9169 114.181 58.3942 114.832 58.0316C115.483 57.6689 116.224 57.4876 117.056 57.4876C117.888 57.4876 118.613 57.6689 119.232 58.0316C119.861 58.3942 120.341 58.8849 120.672 59.5036C121.013 60.1116 121.184 60.7889 121.184 61.5356ZM120.048 61.5036C120.059 60.8529 119.925 60.2982 119.648 59.8396C119.381 59.3809 119.013 59.0342 118.544 58.7996C118.075 58.5649 117.563 58.4476 117.008 58.4476C116.176 58.4476 115.467 58.7142 114.88 59.2476C114.293 59.7809 113.968 60.5329 113.904 61.5036H120.048ZM124.353 54.5116V66.3516H123.233V54.5116H124.353ZM130.713 66.4796C129.892 66.4796 129.151 66.2982 128.489 65.9356C127.839 65.5622 127.321 65.0396 126.937 64.3676C126.564 63.6849 126.377 62.8902 126.377 61.9836C126.377 61.0769 126.569 60.2876 126.953 59.6156C127.337 58.9329 127.86 58.4102 128.521 58.0476C129.183 57.6742 129.924 57.4876 130.745 57.4876C131.567 57.4876 132.308 57.6742 132.969 58.0476C133.641 58.4102 134.164 58.9329 134.537 59.6156C134.921 60.2876 135.113 61.0769 135.113 61.9836C135.113 62.8796 134.921 63.6689 134.537 64.3516C134.153 65.0342 133.625 65.5622 132.953 65.9356C132.281 66.2982 131.535 66.4796 130.713 66.4796ZM130.713 65.5036C131.289 65.5036 131.823 65.3756 132.313 65.1196C132.804 64.8529 133.199 64.4582 133.497 63.9356C133.807 63.4022 133.961 62.7516 133.961 61.9836C133.961 61.2156 133.812 60.5702 133.513 60.0476C133.215 59.5142 132.82 59.1196 132.329 58.8636C131.839 58.5969 131.305 58.4636 130.729 58.4636C130.153 58.4636 129.62 58.5969 129.129 58.8636C128.639 59.1196 128.244 59.5142 127.945 60.0476C127.657 60.5702 127.513 61.2156 127.513 61.9836C127.513 62.7516 127.657 63.4022 127.945 63.9356C128.244 64.4582 128.633 64.8529 129.113 65.1196C129.604 65.3756 130.137 65.5036 130.713 65.5036ZM138.259 59.5356C138.536 58.9489 138.974 58.4636 139.571 58.0796C140.179 57.6849 140.899 57.4876 141.731 57.4876C142.52 57.4876 143.23 57.6742 143.859 58.0476C144.499 58.4102 144.995 58.9329 145.347 59.6156C145.71 60.2876 145.891 61.0716 145.891 61.9676C145.891 62.8636 145.71 63.6529 145.347 64.3356C144.995 65.0182 144.499 65.5462 143.859 65.9196C143.23 66.2929 142.52 66.4796 141.731 66.4796C140.91 66.4796 140.195 66.2876 139.587 65.9036C138.979 65.5089 138.536 65.0182 138.259 64.4316V70.4796H137.155V57.6156H138.259V59.5356ZM144.755 61.9676C144.755 61.2422 144.611 60.6182 144.323 60.0956C144.046 59.5622 143.662 59.1569 143.171 58.8796C142.68 58.6022 142.126 58.4636 141.507 58.4636C140.91 58.4636 140.36 58.6076 139.859 58.8956C139.368 59.1836 138.979 59.5942 138.691 60.1276C138.403 60.6609 138.259 61.2796 138.259 61.9836C138.259 62.6876 138.403 63.3062 138.691 63.8396C138.979 64.3729 139.368 64.7836 139.859 65.0716C140.36 65.3596 140.91 65.5036 141.507 65.5036C142.126 65.5036 142.68 65.3649 143.171 65.0876C143.662 64.7996 144.046 64.3889 144.323 63.8556C144.611 63.3116 144.755 62.6822 144.755 61.9676ZM148.512 55.9676C148.288 55.9676 148.096 55.8876 147.936 55.7276C147.776 55.5676 147.696 55.3702 147.696 55.1356C147.696 54.9009 147.776 54.7089 147.936 54.5596C148.096 54.3996 148.288 54.3196 148.512 54.3196C148.736 54.3196 148.928 54.3996 149.088 54.5596C149.248 54.7089 149.328 54.9009 149.328 55.1356C149.328 55.3702 149.248 55.5676 149.088 55.7276C148.928 55.8876 148.736 55.9676 148.512 55.9676ZM149.072 57.6156V66.3516H147.952V57.6156H149.072ZM155.704 57.4556C156.749 57.4556 157.603 57.7809 158.264 58.4316C158.925 59.0716 159.256 60.0049 159.256 61.2316V66.3516H158.152V61.3596C158.152 60.4102 157.912 59.6849 157.432 59.1836C156.963 58.6822 156.317 58.4316 155.496 58.4316C154.653 58.4316 153.981 58.6982 153.48 59.2316C152.979 59.7649 152.728 60.5489 152.728 61.5836V66.3516H151.608V57.6156H152.728V59.1036C153.005 58.5702 153.405 58.1649 153.928 57.8876C154.451 57.5996 155.043 57.4556 155.704 57.4556ZM165.397 57.4876C166.218 57.4876 166.933 57.6796 167.541 58.0636C168.149 58.4476 168.586 58.9329 168.853 59.5196V57.6156H169.973V66.5756C169.973 67.3756 169.797 68.0849 169.445 68.7036C169.104 69.3222 168.624 69.7969 168.005 70.1276C167.386 70.4689 166.682 70.6396 165.893 70.6396C164.773 70.6396 163.84 70.3729 163.093 69.8396C162.357 69.3062 161.898 68.5809 161.717 67.6636H162.821C163.013 68.2716 163.376 68.7569 163.909 69.1196C164.453 69.4822 165.114 69.6636 165.893 69.6636C166.458 69.6636 166.965 69.5409 167.413 69.2956C167.861 69.0609 168.213 68.7089 168.469 68.2396C168.725 67.7702 168.853 67.2156 168.853 66.5756V64.4156C168.576 65.0129 168.133 65.5089 167.525 65.9036C166.928 66.2876 166.218 66.4796 165.397 66.4796C164.597 66.4796 163.877 66.2929 163.237 65.9196C162.608 65.5462 162.112 65.0182 161.749 64.3356C161.397 63.6529 161.221 62.8636 161.221 61.9676C161.221 61.0716 161.397 60.2876 161.749 59.6156C162.112 58.9329 162.608 58.4102 163.237 58.0476C163.877 57.6742 164.597 57.4876 165.397 57.4876ZM168.853 61.9836C168.853 61.2796 168.709 60.6609 168.421 60.1276C168.133 59.5942 167.738 59.1836 167.237 58.8956C166.746 58.6076 166.202 58.4636 165.605 58.4636C164.986 58.4636 164.432 58.6022 163.941 58.8796C163.45 59.1569 163.061 59.5622 162.773 60.0956C162.496 60.6182 162.357 61.2422 162.357 61.9676C162.357 62.6822 162.496 63.3116 162.773 63.8556C163.061 64.3889 163.45 64.7996 163.941 65.0876C164.432 65.3649 164.986 65.5036 165.605 65.5036C166.202 65.5036 166.746 65.3596 167.237 65.0716C167.738 64.7836 168.133 64.3729 168.421 63.8396C168.709 63.3062 168.853 62.6876 168.853 61.9836ZM183.465 55.1676V56.0956H180.361V66.3516H179.241V56.0956H176.121V55.1676H183.465ZM186.353 59.1676C186.598 58.6236 186.972 58.2022 187.473 57.9036C187.985 57.6049 188.609 57.4556 189.345 57.4556V58.6236H189.041C188.23 58.6236 187.58 58.8422 187.089 59.2796C186.598 59.7169 186.353 60.4476 186.353 61.4716V66.3516H185.233V57.6156H186.353V59.1676ZM198.598 57.6156V66.3516H197.478V64.8156C197.222 65.3596 196.827 65.7756 196.294 66.0636C195.761 66.3516 195.163 66.4956 194.502 66.4956C193.457 66.4956 192.603 66.1756 191.942 65.5356C191.281 64.8849 190.95 63.9462 190.95 62.7196V57.6156H192.054V62.5916C192.054 63.5409 192.289 64.2662 192.758 64.7676C193.238 65.2689 193.889 65.5196 194.71 65.5196C195.553 65.5196 196.225 65.2529 196.726 64.7196C197.227 64.1862 197.478 63.4022 197.478 62.3676V57.6156H198.598ZM204.163 66.4796C203.16 66.4796 202.339 66.2502 201.699 65.7916C201.07 65.3222 200.718 64.6876 200.643 63.8876H201.795C201.848 64.3782 202.078 64.7782 202.483 65.0876C202.899 65.3862 203.454 65.5356 204.147 65.5356C204.755 65.5356 205.23 65.3916 205.571 65.1036C205.923 64.8156 206.099 64.4582 206.099 64.0316C206.099 63.7329 206.003 63.4876 205.811 63.2956C205.619 63.1036 205.374 62.9542 205.075 62.8476C204.787 62.7302 204.392 62.6076 203.891 62.4796C203.24 62.3089 202.712 62.1382 202.307 61.9676C201.902 61.7969 201.555 61.5462 201.267 61.2156C200.99 60.8742 200.851 60.4209 200.851 59.8556C200.851 59.4289 200.979 59.0342 201.235 58.6716C201.491 58.3089 201.854 58.0209 202.323 57.8076C202.792 57.5942 203.326 57.4876 203.923 57.4876C204.862 57.4876 205.619 57.7276 206.195 58.2076C206.771 58.6769 207.08 59.3276 207.123 60.1596H206.003C205.971 59.6476 205.768 59.2369 205.395 58.9276C205.032 58.6076 204.531 58.4476 203.891 58.4476C203.326 58.4476 202.867 58.5809 202.515 58.8476C202.163 59.1142 201.987 59.4449 201.987 59.8396C201.987 60.1809 202.088 60.4636 202.291 60.6876C202.504 60.9009 202.766 61.0716 203.075 61.1996C203.384 61.3169 203.8 61.4502 204.323 61.5996C204.952 61.7702 205.454 61.9356 205.827 62.0956C206.2 62.2556 206.52 62.4902 206.787 62.7996C207.054 63.1089 207.192 63.5196 207.203 64.0316C207.203 64.5009 207.075 64.9222 206.819 65.2956C206.563 65.6582 206.206 65.9462 205.747 66.1596C205.288 66.3729 204.76 66.4796 204.163 66.4796ZM210.767 58.5596V63.9836C210.767 64.5169 210.869 64.8849 211.071 65.0876C211.274 65.2902 211.631 65.3916 212.143 65.3916H213.167V66.3516H211.967C211.178 66.3516 210.591 66.1702 210.207 65.8076C209.823 65.4342 209.631 64.8262 209.631 63.9836V58.5596H208.415V57.6156H209.631V55.4236H210.767V57.6156H213.167V58.5596H210.767Z" fill="black"/>
</svg>
