<svg width="382" height="119" viewBox="0 0 382 119" fill="none" xmlns="http://www.w3.org/2000/svg">
<path d="M190.964 38.2107C91.1178 38.2107 9.31575 30.6767 1.59473 21.085L36.0842 99.1966C36.0842 109.469 105.42 117.802 190.964 117.802C276.507 117.802 345.844 109.469 345.844 99.1966L380.333 21.085C372.629 30.6597 290.81 38.2107 190.964 38.2107Z" fill="#FFC0A5" stroke="#242424" stroke-linecap="round" stroke-linejoin="round"/>
<path d="M190.964 38.2106C295.907 38.2106 380.979 29.8807 380.979 19.6053C380.979 9.32986 295.907 1 190.964 1C86.0213 1 0.948486 9.32986 0.948486 19.6053C0.948486 29.8807 86.0213 38.2106 190.964 38.2106Z" fill="#FFC0A5" stroke="#242424" stroke-linecap="round" stroke-linejoin="round"/>
<path opacity="0.58" d="M190.964 38.2106C295.907 38.2106 380.979 29.8807 380.979 19.6053C380.979 9.32986 295.907 1 190.964 1C86.0213 1 0.948486 9.32986 0.948486 19.6053C0.948486 29.8807 86.0213 38.2106 190.964 38.2106Z" fill="white" stroke="#242424" stroke-linecap="round" stroke-linejoin="round"/>
<path d="M190.964 33.3296C281.705 33.3296 355.265 27.185 355.265 19.6052C355.265 12.0255 281.705 5.88086 190.964 5.88086C100.223 5.88086 26.6626 12.0255 26.6626 19.6052C26.6626 27.185 100.223 33.3296 190.964 33.3296Z" fill="#FFC0A5" stroke="#242424" stroke-linecap="round" stroke-linejoin="round"/>
</svg>
