<svg width="206" height="88" viewBox="0 0 206 88" fill="none" xmlns="http://www.w3.org/2000/svg">
<path d="M102.964 12.9558C48.7639 12.9558 4.49554 7.07146 1.5874 4.8606L38.1857 75.7104C38.1857 78.2443 67.1991 87.0708 102.964 87.0708C138.729 87.0708 167.742 78.2443 167.742 75.7104L204.341 4.8606C201.416 7.07146 157.147 12.9558 102.964 12.9558Z" fill="#D2A3FF" stroke="#333333" stroke-linecap="round" stroke-linejoin="round"/>
<path d="M204.511 4.63942C204.511 6.64621 159.052 12.9557 102.964 12.9557C46.8761 12.9557 1.41724 6.64621 1.41724 4.63942C1.41724 2.63264 46.8761 1 102.964 1C159.052 1 204.511 2.63264 204.511 4.63942Z" fill="#D2A3FF" stroke="#333333" stroke-linecap="round" stroke-linejoin="round"/>
<path d="M190.769 4.63945C190.769 6.11903 151.467 10.3367 102.981 10.3367C54.495 10.3367 15.1926 6.11903 15.1926 4.63945C15.1926 3.15987 54.495 1.95239 102.981 1.95239C151.467 1.95239 190.769 3.15987 190.769 4.63945Z" fill="#333333"/>
</svg>
