<svg width="295" height="100" viewBox="0 0 295 100" fill="none" xmlns="http://www.w3.org/2000/svg">
<path d="M147.964 25.1667C70.9408 25.1667 7.82905 20.2688 1.92773 14.0273L40.4648 88.0233C40.4648 94.0267 88.5937 98.9076 147.964 98.9076C207.334 98.9076 255.463 94.0437 255.463 88.0233L294 14.0273C288.099 20.2518 224.987 25.1667 147.964 25.1667Z" fill="#FFA4A4" stroke="#333333" stroke-linecap="round" stroke-linejoin="round"/>
<path d="M147.964 25.1835C228.89 25.1835 294.493 19.7698 294.493 13.0917C294.493 6.41366 228.89 1 147.964 1C67.038 1 1.43457 6.41366 1.43457 13.0917C1.43457 19.7698 67.038 25.1835 147.964 25.1835Z" fill="#FFB1B1" stroke="#333333" stroke-linecap="round" stroke-linejoin="round"/>
<path d="M147.964 22.0203C217.938 22.0203 274.664 18.0229 274.664 13.0918C274.664 8.16075 217.938 4.16333 147.964 4.16333C77.9898 4.16333 21.2644 8.16075 21.2644 13.0918C21.2644 18.0229 77.9898 22.0203 147.964 22.0203Z" fill="#DC9292" stroke="#333333" stroke-linecap="round" stroke-linejoin="round"/>
</svg>
