<svg width="480" height="135" viewBox="0 0 480 135" fill="none" xmlns="http://www.w3.org/2000/svg">
<path d="M239.964 54.0949C116.19 54.0949 14.3877 43.6528 2.09192 30.2686L37.1597 107.003C37.1597 121.662 127.958 133.55 239.981 133.55C352.004 133.55 442.803 121.662 442.803 107.003L477.853 30.2856C465.557 43.6698 363.756 54.1119 239.981 54.1119L239.964 54.0949Z" fill="#FFFFA5" stroke="#333333" stroke-linecap="round" stroke-linejoin="round"/>
<path d="M239.964 54.0948C372.023 54.0948 479.078 42.2091 479.078 27.5474C479.078 12.8857 372.023 1 239.964 1C107.905 1 0.850342 12.8857 0.850342 27.5474C0.850342 42.2091 107.905 54.0948 239.964 54.0948Z" fill="#FFFFA5" stroke="#333333" stroke-linecap="round" stroke-linejoin="round"/>
<path d="M239.964 47.1394C354.149 47.1394 446.714 38.3679 446.714 27.5477C446.714 16.7275 354.149 7.95605 239.964 7.95605C125.779 7.95605 33.2139 16.7275 33.2139 27.5477C33.2139 38.3679 125.779 47.1394 239.964 47.1394Z" fill="#FFFFA5" stroke="#333333" stroke-linecap="round" stroke-linejoin="round"/>
<path opacity="0.23" d="M239.964 47.1394C354.149 47.1394 446.714 38.3679 446.714 27.5477C446.714 16.7275 354.149 7.95605 239.964 7.95605C125.779 7.95605 33.2139 16.7275 33.2139 27.5477C33.2139 38.3679 125.779 47.1394 239.964 47.1394Z" fill="#9FA956" stroke="#333333" stroke-linecap="round" stroke-linejoin="round"/>
<path d="M239.964 47.1394C354.149 47.1394 446.714 38.3679 446.714 27.5477C446.714 16.7275 354.149 7.95605 239.964 7.95605C125.779 7.95605 33.2139 16.7275 33.2139 27.5477C33.2139 38.3679 125.779 47.1394 239.964 47.1394Z" stroke="#333333" stroke-linecap="round" stroke-linejoin="round"/>
<path d="M205.672 100.261C204.936 100.261 204.285 100.133 203.72 99.8774C203.165 99.6214 202.728 99.2641 202.408 98.8054C202.088 98.3467 201.917 97.8347 201.896 97.2694H203.08C203.133 97.8134 203.373 98.2934 203.8 98.7094C204.227 99.1147 204.851 99.3174 205.672 99.3174C206.429 99.3174 207.027 99.1254 207.464 98.7414C207.912 98.3467 208.136 97.8507 208.136 97.2534C208.136 96.7734 208.013 96.3894 207.768 96.1014C207.523 95.8027 207.219 95.5841 206.856 95.4454C206.493 95.2961 205.992 95.1361 205.352 94.9654C204.605 94.7627 204.013 94.5654 203.576 94.3734C203.139 94.1814 202.765 93.8827 202.456 93.4774C202.147 93.0721 201.992 92.5227 201.992 91.8294C201.992 91.2534 202.141 90.7414 202.44 90.2934C202.739 89.8347 203.16 89.4774 203.704 89.2214C204.248 88.9654 204.872 88.8374 205.576 88.8374C206.611 88.8374 207.443 89.0934 208.072 89.6054C208.712 90.1067 209.08 90.7574 209.176 91.5574H207.96C207.885 91.0987 207.635 90.6934 207.208 90.3414C206.781 89.9787 206.205 89.7974 205.48 89.7974C204.808 89.7974 204.248 89.9787 203.8 90.3414C203.352 90.6934 203.128 91.1787 203.128 91.7974C203.128 92.2667 203.251 92.6454 203.496 92.9334C203.741 93.2214 204.045 93.4401 204.408 93.5894C204.781 93.7387 205.283 93.8987 205.912 94.0694C206.637 94.2721 207.224 94.4747 207.672 94.6774C208.12 94.8694 208.499 95.1681 208.808 95.5734C209.117 95.9787 209.272 96.5227 209.272 97.2054C209.272 97.7281 209.133 98.2241 208.856 98.6934C208.579 99.1627 208.168 99.5414 207.624 99.8294C207.08 100.117 206.429 100.261 205.672 100.261ZM212.892 92.3574V97.7814C212.892 98.3147 212.993 98.6827 213.196 98.8854C213.399 99.0881 213.756 99.1894 214.268 99.1894H215.292V100.149H214.092C213.303 100.149 212.716 99.9681 212.332 99.6054C211.948 99.2321 211.756 98.6241 211.756 97.7814V92.3574H210.54V91.4134H211.756V89.2214H212.892V91.4134H215.292V92.3574H212.892ZM218.259 92.9654C218.505 92.4214 218.878 92.0001 219.379 91.7014C219.891 91.4027 220.515 91.2534 221.251 91.2534V92.4214H220.947C220.137 92.4214 219.486 92.6401 218.995 93.0774C218.505 93.5147 218.259 94.2454 218.259 95.2694V100.149H217.139V91.4134H218.259V92.9654ZM222.424 95.7654C222.424 94.8694 222.6 94.0854 222.952 93.4134C223.315 92.7307 223.811 92.2081 224.44 91.8454C225.08 91.4721 225.8 91.2854 226.6 91.2854C227.432 91.2854 228.147 91.4774 228.744 91.8614C229.352 92.2454 229.789 92.7361 230.056 93.3334V91.4134H231.176V100.149H230.056V98.2134C229.779 98.8107 229.336 99.3067 228.728 99.7014C228.131 100.085 227.416 100.277 226.584 100.277C225.795 100.277 225.08 100.091 224.44 99.7174C223.811 99.3441 223.315 98.8161 222.952 98.1334C222.6 97.4507 222.424 96.6614 222.424 95.7654ZM230.056 95.7814C230.056 95.0774 229.912 94.4587 229.624 93.9254C229.336 93.3921 228.941 92.9814 228.44 92.6934C227.949 92.4054 227.405 92.2614 226.808 92.2614C226.189 92.2614 225.635 92.4001 225.144 92.6774C224.653 92.9547 224.264 93.3601 223.976 93.8934C223.699 94.4161 223.56 95.0401 223.56 95.7654C223.56 96.4801 223.699 97.1094 223.976 97.6534C224.264 98.1867 224.653 98.5974 225.144 98.8854C225.635 99.1627 226.189 99.3014 226.808 99.3014C227.405 99.3014 227.949 99.1574 228.44 98.8694C228.941 98.5814 229.336 98.1707 229.624 97.6374C229.912 97.1041 230.056 96.4854 230.056 95.7814ZM237.829 91.2534C238.874 91.2534 239.728 91.5787 240.389 92.2294C241.05 92.8694 241.381 93.8027 241.381 95.0294V100.149H240.277V95.1574C240.277 94.2081 240.037 93.4827 239.557 92.9814C239.088 92.4801 238.442 92.2294 237.621 92.2294C236.778 92.2294 236.106 92.4961 235.605 93.0294C235.104 93.5627 234.853 94.3467 234.853 95.3814V100.149H233.733V91.4134H234.853V92.9014C235.13 92.3681 235.53 91.9627 236.053 91.6854C236.576 91.3974 237.168 91.2534 237.829 91.2534ZM247.522 91.2854C248.343 91.2854 249.058 91.4774 249.666 91.8614C250.274 92.2454 250.711 92.7307 250.978 93.3174V91.4134H252.098V100.373C252.098 101.173 251.922 101.883 251.57 102.501C251.229 103.12 250.749 103.595 250.13 103.925C249.511 104.267 248.807 104.437 248.018 104.437C246.898 104.437 245.965 104.171 245.218 103.637C244.482 103.104 244.023 102.379 243.842 101.461H244.946C245.138 102.069 245.501 102.555 246.034 102.917C246.578 103.28 247.239 103.461 248.018 103.461C248.583 103.461 249.09 103.339 249.538 103.093C249.986 102.859 250.338 102.507 250.594 102.037C250.85 101.568 250.978 101.013 250.978 100.373V98.2134C250.701 98.8107 250.258 99.3067 249.65 99.7014C249.053 100.085 248.343 100.277 247.522 100.277C246.722 100.277 246.002 100.091 245.362 99.7174C244.733 99.3441 244.237 98.8161 243.874 98.1334C243.522 97.4507 243.346 96.6614 243.346 95.7654C243.346 94.8694 243.522 94.0854 243.874 93.4134C244.237 92.7307 244.733 92.2081 245.362 91.8454C246.002 91.4721 246.722 91.2854 247.522 91.2854ZM250.978 95.7814C250.978 95.0774 250.834 94.4587 250.546 93.9254C250.258 93.3921 249.863 92.9814 249.362 92.6934C248.871 92.4054 248.327 92.2614 247.73 92.2614C247.111 92.2614 246.557 92.4001 246.066 92.6774C245.575 92.9547 245.186 93.3601 244.898 93.8934C244.621 94.4161 244.482 95.0401 244.482 95.7654C244.482 96.4801 244.621 97.1094 244.898 97.6534C245.186 98.1867 245.575 98.5974 246.066 98.8854C246.557 99.1627 247.111 99.3014 247.73 99.3014C248.327 99.3014 248.871 99.1574 249.362 98.8694C249.863 98.5814 250.258 98.1707 250.546 97.6374C250.834 97.1041 250.978 96.4854 250.978 95.7814ZM262.559 95.3334C262.559 95.7174 262.548 96.0107 262.527 96.2134H255.279C255.311 96.8747 255.471 97.4401 255.759 97.9094C256.047 98.3787 256.426 98.7361 256.895 98.9814C257.364 99.2161 257.876 99.3334 258.431 99.3334C259.156 99.3334 259.764 99.1574 260.255 98.8054C260.756 98.4534 261.087 97.9787 261.247 97.3814H262.431C262.218 98.2347 261.759 98.9334 261.055 99.4774C260.362 100.011 259.487 100.277 258.431 100.277C257.61 100.277 256.874 100.096 256.223 99.7334C255.572 99.3601 255.06 98.8374 254.687 98.1654C254.324 97.4827 254.143 96.6881 254.143 95.7814C254.143 94.8747 254.324 94.0801 254.687 93.3974C255.05 92.7147 255.556 92.1921 256.207 91.8294C256.858 91.4667 257.599 91.2854 258.431 91.2854C259.263 91.2854 259.988 91.4667 260.607 91.8294C261.236 92.1921 261.716 92.6827 262.047 93.3014C262.388 93.9094 262.559 94.5867 262.559 95.3334ZM261.423 95.3014C261.434 94.6507 261.3 94.0961 261.023 93.6374C260.756 93.1787 260.388 92.8321 259.919 92.5974C259.45 92.3627 258.938 92.2454 258.383 92.2454C257.551 92.2454 256.842 92.5121 256.255 93.0454C255.668 93.5787 255.343 94.3307 255.279 95.3014H261.423ZM265.728 92.9654C265.973 92.4214 266.347 92.0001 266.848 91.7014C267.36 91.4027 267.984 91.2534 268.72 91.2534V92.4214H268.416C267.605 92.4214 266.955 92.6401 266.464 93.0774C265.973 93.5147 265.728 94.2454 265.728 95.2694V100.149H264.608V91.4134H265.728V92.9654ZM273.413 100.277C272.41 100.277 271.589 100.048 270.949 99.5894C270.32 99.1201 269.968 98.4854 269.893 97.6854H271.045C271.098 98.1761 271.328 98.5761 271.733 98.8854C272.149 99.1841 272.704 99.3334 273.397 99.3334C274.005 99.3334 274.48 99.1894 274.821 98.9014C275.173 98.6134 275.349 98.2561 275.349 97.8294C275.349 97.5307 275.253 97.2854 275.061 97.0934C274.869 96.9014 274.624 96.7521 274.325 96.6454C274.037 96.5281 273.642 96.4054 273.141 96.2774C272.49 96.1067 271.962 95.9361 271.557 95.7654C271.152 95.5947 270.805 95.3441 270.517 95.0134C270.24 94.6721 270.101 94.2187 270.101 93.6534C270.101 93.2267 270.229 92.8321 270.485 92.4694C270.741 92.1067 271.104 91.8187 271.573 91.6054C272.042 91.3921 272.576 91.2854 273.173 91.2854C274.112 91.2854 274.869 91.5254 275.445 92.0054C276.021 92.4747 276.33 93.1254 276.373 93.9574H275.253C275.221 93.4454 275.018 93.0347 274.645 92.7254C274.282 92.4054 273.781 92.2454 273.141 92.2454C272.576 92.2454 272.117 92.3787 271.765 92.6454C271.413 92.9121 271.237 93.2427 271.237 93.6374C271.237 93.9787 271.338 94.2614 271.541 94.4854C271.754 94.6987 272.016 94.8694 272.325 94.9974C272.634 95.1147 273.05 95.2481 273.573 95.3974C274.202 95.5681 274.704 95.7334 275.077 95.8934C275.45 96.0534 275.77 96.2881 276.037 96.5974C276.304 96.9067 276.442 97.3174 276.453 97.8294C276.453 98.2987 276.325 98.7201 276.069 99.0934C275.813 99.4561 275.456 99.7441 274.997 99.9574C274.538 100.171 274.01 100.277 273.413 100.277Z" fill="black"/>
</svg>
