<svg width="206" height="88" viewBox="0 0 206 88" fill="none" xmlns="http://www.w3.org/2000/svg">
<path d="M102.964 12.9558C48.7638 12.9558 4.49542 7.07146 1.58728 4.8606L38.1856 75.7104C38.1856 78.2443 67.199 87.0708 102.964 87.0708C138.729 87.0708 167.742 78.2443 167.742 75.7104L204.341 4.8606C201.416 7.07146 157.147 12.9558 102.964 12.9558Z" fill="#D2A3FF" stroke="#333333" stroke-linecap="round" stroke-linejoin="round"/>
<path d="M204.511 4.63942C204.511 6.64621 159.052 12.9557 102.964 12.9557C46.8761 12.9557 1.41724 6.64621 1.41724 4.63942C1.41724 2.63264 46.8761 1 102.964 1C159.052 1 204.511 2.63264 204.511 4.63942Z" fill="#D2A3FF" stroke="#333333" stroke-linecap="round" stroke-linejoin="round"/>
<path d="M190.769 4.63945C190.769 6.11903 151.467 10.3367 102.981 10.3367C54.495 10.3367 15.1926 6.11903 15.1926 4.63945C15.1926 3.15987 54.495 1.95239 102.981 1.95239C151.467 1.95239 190.769 3.15987 190.769 4.63945Z" fill="#333333"/>
<path d="M48.2146 42.7369V43.6649H45.1106V53.9209H43.9906V43.6649H40.8706V42.7369H48.2146ZM51.1031 46.7369C51.3485 46.1929 51.7218 45.7716 52.2231 45.4729C52.7351 45.1742 53.3591 45.0249 54.0951 45.0249V46.1929H53.7911C52.9805 46.1929 52.3298 46.4116 51.8391 46.8489C51.3485 47.2862 51.1031 48.0169 51.1031 49.0409V53.9209H49.9831V45.1849H51.1031V46.7369ZM63.348 45.1849V53.9209H62.228V52.3849C61.972 52.9289 61.5773 53.3449 61.044 53.6329C60.5107 53.9209 59.9133 54.0649 59.252 54.0649C58.2067 54.0649 57.3533 53.7449 56.692 53.1049C56.0307 52.4542 55.7 51.5156 55.7 50.2889V45.1849H56.804V50.1609C56.804 51.1102 57.0387 51.8356 57.508 52.3369C57.988 52.8382 58.6387 53.0889 59.46 53.0889C60.3027 53.0889 60.9747 52.8222 61.476 52.2889C61.9773 51.7556 62.228 50.9716 62.228 49.9369V45.1849H63.348ZM68.913 54.0489C67.9103 54.0489 67.089 53.8196 66.449 53.3609C65.8197 52.8916 65.4677 52.2569 65.393 51.4569H66.545C66.5983 51.9476 66.8277 52.3476 67.233 52.6569C67.649 52.9556 68.2037 53.1049 68.897 53.1049C69.505 53.1049 69.9797 52.9609 70.321 52.6729C70.673 52.3849 70.849 52.0276 70.849 51.6009C70.849 51.3022 70.753 51.0569 70.561 50.8649C70.369 50.6729 70.1237 50.5236 69.825 50.4169C69.537 50.2996 69.1423 50.1769 68.641 50.0489C67.9903 49.8782 67.4623 49.7076 67.057 49.5369C66.6517 49.3662 66.305 49.1156 66.017 48.7849C65.7397 48.4436 65.601 47.9902 65.601 47.4249C65.601 46.9982 65.729 46.6036 65.985 46.2409C66.241 45.8782 66.6037 45.5902 67.073 45.3769C67.5423 45.1636 68.0757 45.0569 68.673 45.0569C69.6117 45.0569 70.369 45.2969 70.945 45.7769C71.521 46.2462 71.8303 46.8969 71.873 47.7289H70.753C70.721 47.2169 70.5183 46.8062 70.145 46.4969C69.7823 46.1769 69.281 46.0169 68.641 46.0169C68.0757 46.0169 67.617 46.1502 67.265 46.4169C66.913 46.6836 66.737 47.0142 66.737 47.4089C66.737 47.7502 66.8383 48.0329 67.041 48.2569C67.2543 48.4702 67.5157 48.6409 67.825 48.7689C68.1343 48.8862 68.5503 49.0196 69.073 49.1689C69.7023 49.3396 70.2037 49.5049 70.577 49.6649C70.9503 49.8249 71.2703 50.0596 71.537 50.3689C71.8037 50.6782 71.9423 51.0889 71.953 51.6009C71.953 52.0702 71.825 52.4916 71.569 52.8649C71.313 53.2276 70.9557 53.5156 70.497 53.7289C70.0383 53.9422 69.5103 54.0489 68.913 54.0489ZM75.5173 46.1289V51.5529C75.5173 52.0862 75.6186 52.4542 75.8213 52.6569C76.0239 52.8596 76.3813 52.9609 76.8932 52.9609H77.9173V53.9209H76.7173C75.9279 53.9209 75.3413 53.7396 74.9573 53.3769C74.5733 53.0036 74.3813 52.3956 74.3813 51.5529V46.1289H73.1653V45.1849H74.3813V42.9929H75.5173V45.1849H77.9173V46.1289H75.5173ZM87.6684 49.1049C87.6684 49.4889 87.6577 49.7822 87.6364 49.9849H80.3884C80.4204 50.6462 80.5804 51.2116 80.8684 51.6809C81.1564 52.1502 81.535 52.5076 82.0044 52.7529C82.4737 52.9876 82.9857 53.1049 83.5404 53.1049C84.2657 53.1049 84.8737 52.9289 85.3644 52.5769C85.8657 52.2249 86.1964 51.7502 86.3564 51.1529H87.5404C87.327 52.0062 86.8684 52.7049 86.1644 53.2489C85.471 53.7822 84.5964 54.0489 83.5404 54.0489C82.719 54.0489 81.983 53.8676 81.3324 53.5049C80.6817 53.1316 80.1697 52.6089 79.7964 51.9369C79.4337 51.2542 79.2524 50.4596 79.2524 49.5529C79.2524 48.6462 79.4337 47.8516 79.7964 47.1689C80.159 46.4862 80.6657 45.9636 81.3164 45.6009C81.967 45.2382 82.7084 45.0569 83.5404 45.0569C84.3724 45.0569 85.0977 45.2382 85.7164 45.6009C86.3457 45.9636 86.8257 46.4542 87.1564 47.0729C87.4977 47.6809 87.6684 48.3582 87.6684 49.1049ZM86.5324 49.0729C86.543 48.4222 86.4097 47.8676 86.1324 47.4089C85.8657 46.9502 85.4977 46.6036 85.0284 46.3689C84.559 46.1342 84.047 46.0169 83.4924 46.0169C82.6604 46.0169 81.951 46.2836 81.3644 46.8169C80.7777 47.3502 80.4524 48.1022 80.3884 49.0729H86.5324ZM89.2055 49.5369C89.2055 48.6409 89.3868 47.8569 89.7495 47.1849C90.1122 46.5022 90.6082 45.9796 91.2375 45.6169C91.8775 45.2436 92.5975 45.0569 93.3975 45.0569C94.1655 45.0569 94.8588 45.2436 95.4775 45.6169C96.0962 45.9902 96.5495 46.4756 96.8375 47.0729V42.0809H97.9575V53.9209H96.8375V51.9689C96.5708 52.5769 96.1335 53.0782 95.5255 53.4729C94.9175 53.8569 94.2028 54.0489 93.3815 54.0489C92.5815 54.0489 91.8615 53.8622 91.2215 53.4889C90.5922 53.1156 90.0962 52.5876 89.7335 51.9049C89.3815 51.2222 89.2055 50.4329 89.2055 49.5369ZM96.8375 49.5529C96.8375 48.8489 96.6935 48.2302 96.4055 47.6969C96.1175 47.1636 95.7228 46.7529 95.2215 46.4649C94.7308 46.1769 94.1868 46.0329 93.5895 46.0329C92.9708 46.0329 92.4162 46.1716 91.9255 46.4489C91.4348 46.7262 91.0455 47.1316 90.7575 47.6649C90.4802 48.1876 90.3415 48.8116 90.3415 49.5369C90.3415 50.2516 90.4802 50.8809 90.7575 51.4249C91.0455 51.9582 91.4348 52.3689 91.9255 52.6569C92.4162 52.9342 92.9708 53.0729 93.5895 53.0729C94.1868 53.0729 94.7308 52.9289 95.2215 52.6409C95.7228 52.3529 96.1175 51.9422 96.4055 51.4089C96.6935 50.8756 96.8375 50.2569 96.8375 49.5529ZM112.057 45.9529C112.057 46.9129 111.742 47.6862 111.113 48.2729C110.484 48.8596 109.54 49.1529 108.281 49.1529H106.025V53.9209H104.905V42.7369H108.281C109.529 42.7369 110.468 43.0302 111.097 43.6169C111.737 44.2036 112.057 44.9822 112.057 45.9529ZM108.281 48.1929C110.03 48.1929 110.905 47.4462 110.905 45.9529C110.905 45.2062 110.697 44.6409 110.281 44.2569C109.865 43.8729 109.198 43.6809 108.281 43.6809H106.025V48.1929H108.281ZM113.424 49.5369C113.424 48.6409 113.6 47.8569 113.952 47.1849C114.315 46.5022 114.811 45.9796 115.44 45.6169C116.08 45.2436 116.8 45.0569 117.6 45.0569C118.432 45.0569 119.147 45.2489 119.744 45.6329C120.352 46.0169 120.79 46.5076 121.056 47.1049V45.1849H122.176V53.9209H121.056V51.9849C120.779 52.5822 120.336 53.0782 119.728 53.4729C119.131 53.8569 118.416 54.0489 117.584 54.0489C116.795 54.0489 116.08 53.8622 115.44 53.4889C114.811 53.1156 114.315 52.5876 113.952 51.9049C113.6 51.2222 113.424 50.4329 113.424 49.5369ZM121.056 49.5529C121.056 48.8489 120.912 48.2302 120.624 47.6969C120.336 47.1636 119.942 46.7529 119.44 46.4649C118.95 46.1769 118.406 46.0329 117.808 46.0329C117.19 46.0329 116.635 46.1716 116.144 46.4489C115.654 46.7262 115.264 47.1316 114.976 47.6649C114.699 48.1876 114.56 48.8116 114.56 49.5369C114.56 50.2516 114.699 50.8809 114.976 51.4249C115.264 51.9582 115.654 52.3689 116.144 52.6569C116.635 52.9342 117.19 53.0729 117.808 53.0729C118.406 53.0729 118.95 52.9289 119.44 52.6409C119.942 52.3529 120.336 51.9422 120.624 51.4089C120.912 50.8756 121.056 50.2569 121.056 49.5529ZM125.853 46.7369C126.098 46.1929 126.472 45.7716 126.973 45.4729C127.485 45.1742 128.109 45.0249 128.845 45.0249V46.1929H128.541C127.73 46.1929 127.08 46.4116 126.589 46.8489C126.098 47.2862 125.853 48.0169 125.853 49.0409V53.9209H124.733V45.1849H125.853V46.7369ZM131.986 46.1289V51.5529C131.986 52.0862 132.087 52.4542 132.29 52.6569C132.493 52.8596 132.85 52.9609 133.362 52.9609H134.386V53.9209H133.186C132.397 53.9209 131.81 53.7396 131.426 53.3769C131.042 53.0036 130.85 52.3956 130.85 51.5529V46.1289H129.634V45.1849H130.85V42.9929H131.986V45.1849H134.386V46.1289H131.986ZM140.329 45.0249C141.374 45.0249 142.228 45.3502 142.889 46.0009C143.55 46.6409 143.881 47.5742 143.881 48.8009V53.9209H142.777V48.9289C142.777 47.9796 142.537 47.2542 142.057 46.7529C141.588 46.2516 140.942 46.0009 140.121 46.0009C139.278 46.0009 138.606 46.2676 138.105 46.8009C137.604 47.3342 137.353 48.1182 137.353 49.1529V53.9209H136.233V45.1849H137.353V46.6729C137.63 46.1396 138.03 45.7342 138.553 45.4569C139.076 45.1689 139.668 45.0249 140.329 45.0249ZM154.262 49.1049C154.262 49.4889 154.251 49.7822 154.23 49.9849H146.982C147.014 50.6462 147.174 51.2116 147.462 51.6809C147.75 52.1502 148.129 52.5076 148.598 52.7529C149.067 52.9876 149.579 53.1049 150.134 53.1049C150.859 53.1049 151.467 52.9289 151.958 52.5769C152.459 52.2249 152.79 51.7502 152.95 51.1529H154.134C153.921 52.0062 153.462 52.7049 152.758 53.2489C152.065 53.7822 151.19 54.0489 150.134 54.0489C149.313 54.0489 148.577 53.8676 147.926 53.5049C147.275 53.1316 146.763 52.6089 146.39 51.9369C146.027 51.2542 145.846 50.4596 145.846 49.5529C145.846 48.6462 146.027 47.8516 146.39 47.1689C146.753 46.4862 147.259 45.9636 147.91 45.6009C148.561 45.2382 149.302 45.0569 150.134 45.0569C150.966 45.0569 151.691 45.2382 152.31 45.6009C152.939 45.9636 153.419 46.4542 153.75 47.0729C154.091 47.6809 154.262 48.3582 154.262 49.1049ZM153.126 49.0729C153.137 48.4222 153.003 47.8676 152.726 47.4089C152.459 46.9502 152.091 46.6036 151.622 46.3689C151.153 46.1342 150.641 46.0169 150.086 46.0169C149.254 46.0169 148.545 46.2836 147.958 46.8169C147.371 47.3502 147.046 48.1022 146.982 49.0729H153.126ZM157.431 46.7369C157.677 46.1929 158.05 45.7716 158.551 45.4729C159.063 45.1742 159.687 45.0249 160.423 45.0249V46.1929H160.119C159.309 46.1929 158.658 46.4116 158.167 46.8489C157.677 47.2862 157.431 48.0169 157.431 49.0409V53.9209H156.311V45.1849H157.431V46.7369ZM165.116 54.0489C164.113 54.0489 163.292 53.8196 162.652 53.3609C162.023 52.8916 161.671 52.2569 161.596 51.4569H162.748C162.801 51.9476 163.031 52.3476 163.436 52.6569C163.852 52.9556 164.407 53.1049 165.1 53.1049C165.708 53.1049 166.183 52.9609 166.524 52.6729C166.876 52.3849 167.052 52.0276 167.052 51.6009C167.052 51.3022 166.956 51.0569 166.764 50.8649C166.572 50.6729 166.327 50.5236 166.028 50.4169C165.74 50.2996 165.345 50.1769 164.844 50.0489C164.193 49.8782 163.665 49.7076 163.26 49.5369C162.855 49.3662 162.508 49.1156 162.22 48.7849C161.943 48.4436 161.804 47.9902 161.804 47.4249C161.804 46.9982 161.932 46.6036 162.188 46.2409C162.444 45.8782 162.807 45.5902 163.276 45.3769C163.745 45.1636 164.279 45.0569 164.876 45.0569C165.815 45.0569 166.572 45.2969 167.148 45.7769C167.724 46.2462 168.033 46.8969 168.076 47.7289H166.956C166.924 47.2169 166.721 46.8062 166.348 46.4969C165.985 46.1769 165.484 46.0169 164.844 46.0169C164.279 46.0169 163.82 46.1502 163.468 46.4169C163.116 46.6836 162.94 47.0142 162.94 47.4089C162.94 47.7502 163.041 48.0329 163.244 48.2569C163.457 48.4702 163.719 48.6409 164.028 48.7689C164.337 48.8862 164.753 49.0196 165.276 49.1689C165.905 49.3396 166.407 49.5049 166.78 49.6649C167.153 49.8249 167.473 50.0596 167.74 50.3689C168.007 50.6782 168.145 51.0889 168.156 51.6009C168.156 52.0702 168.028 52.4916 167.772 52.8649C167.516 53.2276 167.159 53.5156 166.7 53.7289C166.241 53.9422 165.713 54.0489 165.116 54.0489Z" fill="black"/>
</svg>
